<svg width="24" height="25" viewBox="0 0 24 25" fill="none" xmlns="http://www.w3.org/2000/svg">
    <path d="M9 9.91064L13 13.9106M16 8.91064L11 13.9106M2.5 12.9106C2.5 8.43264 2.5 6.19264 3.891 4.80164C5.282 3.41064 7.521 3.41064 12 3.41064C16.478 3.41064 18.718 3.41064 20.109 4.80164C21.5 6.19264 21.5 8.43164 21.5 12.9106C21.5 17.3886 21.5 19.6286 20.109 21.0196C18.718 22.4106 16.479 22.4106 12 22.4106C7.522 22.4106 5.282 22.4106 3.891 21.0196C2.5 19.6286 2.5 17.3896 2.5 12.9106Z" stroke="#DF980C" stroke-width="1.5" stroke-linecap="round" stroke-linejoin="round"/>
</svg>
