<svg width="24" height="25" viewBox="0 0 24 25" fill="none" xmlns="http://www.w3.org/2000/svg">
    <path d="M18 2.91064V4.91064M6 2.91064V4.91064" stroke="#DF980C" stroke-width="1.5" stroke-linecap="round" stroke-linejoin="round"/>
    <path d="M11.9955 13.9106H12.0045M11.9955 17.9106H12.0045M15.991 13.9106H16M8 13.9106H8.00897M8 17.9106H8.00897" stroke="#DF980C" stroke-width="2" stroke-linecap="round" stroke-linejoin="round"/>
    <path d="M3.5 8.91064H20.5" stroke="#DF980C" stroke-width="1.5" stroke-linecap="round" stroke-linejoin="round"/>
    <path d="M2.5 13.1538C2.5 8.79658 2.5 6.61792 3.75212 5.26428C5.00424 3.91064 7.01949 3.91064 11.05 3.91064H12.95C16.9805 3.91064 18.9958 3.91064 20.2479 5.26428C21.5 6.61792 21.5 8.79658 21.5 13.1538V13.6674C21.5 18.0247 21.5 20.2033 20.2479 21.557C18.9958 22.9106 16.9805 22.9106 12.95 22.9106H11.05C7.01949 22.9106 5.00424 22.9106 3.75212 21.557C2.5 20.2033 2.5 18.0247 2.5 13.6674V13.1538Z" stroke="#DF980C" stroke-width="1.5" stroke-linecap="round" stroke-linejoin="round"/>
    <path d="M3 8.91064H21" stroke="#DF980C" stroke-width="1.5" stroke-linecap="round" stroke-linejoin="round"/>
</svg>
