<svg width="24" height="25" viewBox="0 0 24 25" fill="none" xmlns="http://www.w3.org/2000/svg">
    <path d="M7 18.9106C5.17107 19.3223 4 19.9549 4 20.6643C4 21.9049 7.58172 22.9106 12 22.9106C16.4183 22.9106 20 21.9049 20 20.6643C20 19.9549 18.8289 19.3223 17 18.9106" stroke="#DF980C" stroke-width="1.5" stroke-linecap="round"/>
    <path d="M14.5 9.91064C14.5 11.2913 13.3807 12.4106 12 12.4106C10.6193 12.4106 9.5 11.2913 9.5 9.91064C9.5 8.52993 10.6193 7.41064 12 7.41064C13.3807 7.41064 14.5 8.52993 14.5 9.91064Z" stroke="#DF980C" stroke-width="1.5"/>
    <path d="M13.2574 18.4042C12.9201 18.729 12.4693 18.9106 12.0002 18.9106C11.531 18.9106 11.0802 18.729 10.7429 18.4042C7.6543 15.4114 3.51519 12.0681 5.53371 7.21437C6.6251 4.58996 9.24494 2.91064 12.0002 2.91064C14.7554 2.91064 17.3752 4.58997 18.4666 7.21437C20.4826 12.062 16.3536 15.4217 13.2574 18.4042Z" stroke="#DF980C" stroke-width="1.5"/>
</svg>
