<svg width="328" height="109" viewBox="0 0 328 109" fill="none" xmlns="http://www.w3.org/2000/svg">
    <path d="M272.683 33.059C267.455 36.4965 255.938 38.504 250.797 39.094C249.999 39.0378 251.397 38.3158 252.413 37.873C256.248 36.203 257.588 33.6533 258.058 29.7783C258.545 25.7723 260.913 26.0172 262.353 26.9875C265 28.7702 261.657 34.0473 266.561 30.3029C271.464 26.5586 273.416 26.0163 274.735 26.0218C277.8 26.2086 277.91 29.6215 272.683 33.059Z" fill="#75895E"/>
    <path d="M325.273 34.4872C321.176 40.0767 312.716 44.1426 308.998 45.4769C308.565 45.637 307.884 45.8234 307.615 45.4984C307.206 45.0047 308.25 44.1134 308.953 43.7155C309.785 43.2295 312.765 41.3941 318.029 37.9407C323.293 34.4873 323.324 29.9291 322.681 28.0816C322.364 26.5947 320.202 22.3929 316.505 24.3405C312.728 26.3305 306.105 19.7865 310.072 14.1852C314.038 8.58381 322.688 14.6863 324.913 17.4588C327.138 20.2314 330.393 27.5004 325.273 34.4872Z" fill="#4E6F82"/>
    <path d="M226.776 58.0156C211.791 65.3244 192.349 83.4923 191.319 84.8656C190.312 86.3053 189.718 86.2694 189.32 85.939C189.061 85.6726 188.884 85.1239 190.788 82.9004C195.544 77.3483 217.703 58.2016 223.97 53.9823C230.238 49.7629 255.582 34.6731 270.52 44.1751C285.459 53.677 276.958 67.7659 274.48 70.5433C272.002 73.3208 266.325 76.7736 263.109 71.9663C259.549 66.6439 261.983 64.0095 264.078 60.9604C266.089 58.0325 266.567 51.9811 261.724 49.8202C257.241 47.8198 244.619 49.3122 226.776 58.0156Z" fill="#4E6F82"/>
    <path d="M323.696 38.7874C322.802 39.025 322.133 39.6853 322.326 40.8429C322.566 41.7327 323.487 42.3786 324.382 42.141C325.276 41.9033 325.904 40.9027 325.663 40.0129C325.423 39.123 324.591 38.5497 323.696 38.7874Z" fill="#B14B57"/>
    <path d="M319.033 42.7545C317.954 43.0411 317.26 44.1919 317.55 45.2651C317.84 46.3382 319.114 47.0138 320.193 46.7272C321.272 46.4406 321.819 45.3241 321.529 44.251C321.239 43.1779 320.112 42.4678 319.033 42.7545Z" fill="#B14B57"/>
    <path d="M312.216 46.1275C311.033 46.4418 310.367 47.8413 310.685 49.0182C311.003 50.1952 312.259 50.8275 313.442 50.5131C314.625 50.1988 315.344 48.8276 315.026 47.6506C314.708 46.4737 313.399 45.8131 312.216 46.1275Z" fill="#B14B57"/>
    <path d="M219.313 37.8128C218.967 38.6666 219.353 39.7344 220.213 40.0798C221.072 40.4251 222.079 39.9174 222.425 39.0636C222.771 38.2098 222.468 37.2425 221.548 36.8727C220.689 36.5273 219.619 36.886 219.313 37.8128Z" fill="#B14B57"/>
    <path d="M219.718 43.893C219.301 44.9227 219.795 46.064 220.832 46.4806C221.868 46.8971 223.157 46.4696 223.575 45.4399C223.992 44.4102 223.4 42.9147 222.387 42.6474C221.351 42.2309 220.136 42.8633 219.718 43.893Z" fill="#B14B57"/>
    <path d="M218.436 51.1988C217.979 52.3281 218.393 53.8251 219.576 54.2099C220.713 54.6667 222.139 54.0585 222.596 52.9293C223.054 51.8 222.387 50.4153 221.251 49.9585C220.114 49.5016 218.894 50.0695 218.436 51.1988Z" fill="#B14B57"/>
    <path d="M294.496 46.6718C284.774 47.4505 273.282 43.8731 271.283 42.0374C270.84 41.8204 270.07 41.0168 272.084 41.1694C274.098 41.322 278.058 43.2101 281.242 43.047C284.318 42.8895 286.624 41.5199 287.847 40.0344C289.15 38.451 291.236 37.6069 291.918 37.6278C292.986 37.6606 294.98 39.5188 295.306 39.9313C295.504 40.1827 295.651 40.1079 295.71 39.9917C296.264 38.7373 298.825 35.8598 300.899 34.6716C302.972 33.4835 304.981 34.5338 306.268 34.8219C307.144 35.018 308.78 34.3603 309.618 33.9316C310.375 33.4408 312.256 32.4419 313.728 32.3731C315.201 32.3044 314.87 34.2999 314.521 35.3063C312.393 40.6275 304.695 45.8549 294.496 46.6718Z" fill="#75895E"/>
    <path d="M201.527 65.645C199.579 71.2599 195.304 76.7893 194.029 77.4525C193.829 77.6458 193.296 77.8774 193.837 76.7915C194.378 75.7056 196.138 73.9621 196.816 72.1458C197.472 70.391 197.414 68.7673 197.05 67.7196C196.663 66.6029 196.784 65.2315 196.954 64.8562C197.22 64.2681 198.504 63.6136 198.761 63.5337C198.918 63.485 198.92 63.3844 198.883 63.3231C198.464 62.7048 197.805 60.5676 197.772 59.1185C197.739 57.6695 198.673 56.8075 199.102 56.1607C199.394 55.7204 199.491 54.6453 199.501 54.0723C199.463 53.5296 199.468 52.2345 199.785 51.3961C200.101 50.5578 200.899 51.2336 201.258 51.6763C203.09 54.1736 203.57 59.7551 201.527 65.645Z" fill="#75895E"/>
    <path d="M216.34 70.4643C208.834 71.8672 200.904 76.9228 199.779 78.7187C199.49 78.9731 199.077 79.7378 200.566 79.21C202.055 78.6823 204.65 76.4454 207.089 75.9165C209.445 75.4054 211.474 75.9675 212.709 76.8391C214.025 77.7681 215.777 77.9785 216.288 77.823C217.088 77.5793 218.204 75.7676 218.364 75.3894C218.461 75.159 218.588 75.1853 218.656 75.261C219.338 76.0948 221.876 77.7436 223.69 78.2164C225.505 78.6892 226.803 77.4845 227.714 77.0033C228.334 76.6758 229.709 76.8373 230.431 76.9894C231.105 77.2053 232.735 77.5745 233.862 77.3249C234.988 77.0752 234.321 75.6357 233.846 74.9472C231.123 71.364 224.213 68.9925 216.34 70.4643Z" fill="#75895E"/>
    <path d="M302.537 54.7348C297.192 54.685 288.33 49.1029 288.081 48.5603C287.833 48.0177 288.156 48.0607 288.333 48.1665C288.511 48.2724 292.365 50.1332 294.508 50.8946C297.074 51.8065 301.664 52.1798 305.557 50.5446C308.853 49.1605 309.622 50.4674 309.479 51.4136C309.301 52.5999 307.758 54.7834 302.537 54.7348Z" fill="#75895E"/>
    <path d="M217.28 48.1556C215.101 57.0295 204.293 69.0507 203.485 69.1985C202.677 69.3463 202.861 68.8295 203.069 68.5861C203.278 68.3427 207.237 62.8363 209.081 59.642C211.289 55.8161 213.592 48.3581 212.994 41.0755C212.487 34.9106 214.501 34.2695 215.682 34.9718C217.163 35.8479 219.409 39.4872 217.28 48.1556Z" fill="#4E6F82"/>
    <path d="M238.337 101.425C235.108 98.2362 226.415 96.2397 225.937 96.4148C225.459 96.59 225.678 96.7588 225.849 96.8023C226.019 96.8457 229.456 98.0535 231.2 98.8882C233.29 99.8879 236.263 102.428 237.6 105.752C238.732 108.565 239.986 108.246 240.475 107.593C241.089 106.777 241.491 104.54 238.337 101.425Z" fill="#75895E"/>
    <path d="M229.539 101.357C225.858 97.7206 215.946 95.4443 215.401 95.644C214.856 95.8437 215.106 96.0361 215.3 96.0857C215.495 96.1352 219.413 97.5123 221.402 98.464C223.784 99.6038 227.174 102.5 228.699 106.289C229.989 109.497 231.419 109.133 231.976 108.389C232.676 107.458 233.135 104.908 229.539 101.357Z" fill="#75895E"/>
    <path d="M225.043 91.8111C220.817 92.1141 213.453 88.2698 213.222 87.8569C212.99 87.4439 213.248 87.4572 213.395 87.5295C213.542 87.6019 216.709 88.8257 218.451 89.2902C220.537 89.8466 224.188 89.8477 227.158 88.3061C229.673 87.001 230.365 87.9847 230.313 88.7417C230.25 89.6907 229.172 91.5152 225.043 91.8111Z" fill="#75895E"/>
    <path d="M262.406 95.1453C264.23 92.268 270.267 89.3561 270.648 89.405C271.029 89.4539 270.897 89.6144 270.779 89.6746C270.661 89.7348 268.346 91.1931 267.209 92.0959C265.846 93.1772 264.099 95.5362 263.685 98.197C263.335 100.45 262.36 100.424 261.89 100.027C261.3 99.5299 260.623 97.9559 262.406 95.1453Z" fill="#B14B57"/>
    <path d="M268.88 92.3641C271.245 89.0698 278.617 86.0197 279.066 86.1036C279.515 86.1875 279.347 86.3691 279.203 86.4327C279.059 86.4963 276.209 88.0717 274.795 89.0671C273.103 90.2593 270.865 92.943 270.191 96.0758C269.621 98.7278 268.464 98.632 267.933 98.1279C267.266 97.4975 266.57 95.582 268.88 92.3641Z" fill="#B14B57"/>
    <path d="M217.733 86.9626C212.518 87.3364 203.43 82.5926 203.145 82.083C202.859 81.5734 203.178 81.5898 203.359 81.679C203.54 81.7683 207.448 83.2785 209.598 83.8518C212.173 84.5384 216.677 84.5397 220.343 82.6373C223.446 81.0269 224.3 82.2407 224.236 83.1749C224.158 84.3459 222.827 86.5974 217.733 86.9626Z" fill="#75895E"/>
    <path d="M309.107 60.2517C304.877 60.0868 297.995 55.4608 297.811 55.0255C297.628 54.5902 297.882 54.6319 298.02 54.7198C298.158 54.8077 301.165 56.371 302.843 57.0239C304.853 57.8059 308.476 58.209 311.597 57.0062C314.239 55.9881 314.817 57.0405 314.681 57.786C314.512 58.7208 313.238 60.4127 309.107 60.2517Z" fill="#75895E"/>
    <path d="M296.217 77.521C295.472 77.7191 294.965 78.539 295.165 79.2804C295.366 80.0218 296.274 80.472 297.019 80.2739C297.764 80.0759 298.176 79.2159 297.976 78.4745C297.776 77.7331 296.963 77.323 296.217 77.521Z" fill="#DF980C"/>
    <path d="M294.852 81.3763C294.107 81.5743 293.573 82.1963 293.766 83.1795C293.966 83.9209 294.86 84.3604 295.605 84.1623C296.351 83.9643 296.728 83.1872 296.528 82.4458C296.327 81.7044 295.598 81.1782 294.852 81.3763Z" fill="#DF980C"/>
    <path d="M290.876 54.5761C286.817 51.3047 280.371 48.7859 277.669 47.9175C277.265 47.7843 276.693 47.5013 276.642 46.9734C276.6 46.551 277.141 46.3591 277.417 46.3159C278.428 46.1676 283.183 46.6768 291.55 53.3511C300.537 60.52 300.878 69.4696 299.82 72.6165C302.402 74.1339 301.575 76.8454 301.381 77.1266C301.227 77.3515 301.104 77.277 301.061 77.2116C300.448 76.1676 299.93 75.6474 298.309 74.8427C296.688 74.0379 294.883 74.6746 294.6 74.7373C294.429 74.7753 294.423 74.7294 294.422 74.6593C294.928 72.0524 297.439 71.8517 298.631 72.0772C300.124 65.029 295.684 58.4516 290.876 54.5761Z" fill="#75895E"/>
    <path d="M303.14 85.8207C303.209 81.9879 301.277 78.423 300.301 77.1196C299.877 76.6096 299.726 76.8482 299.704 77.0313C299.292 80.8523 297.942 84.2493 295.826 86.7763C293.71 89.3032 291.795 87.9017 292.413 83.8259C293.031 79.7501 294.766 76.3578 295.887 75.5928C296.174 75.3968 296.236 75.0687 295.695 75.1389C290.116 76.2943 287.337 80.5338 287.145 82.8508C286.996 84.6485 289.489 85.6132 290.696 85.8675C289.774 86.8666 289.297 89.31 289.405 90.4125C289.514 91.5151 290.594 94.1105 293.967 93.5646C296.666 93.1278 297.609 89.8044 297.743 88.1973C298.794 89.0767 303.054 90.6117 303.14 85.8207Z" fill="#B14B57"/>
    <path d="M241.165 82.6532C240.919 81.7665 241.456 80.8234 242.348 80.5803C243.239 80.3372 244.232 80.8863 244.478 81.773C244.724 82.6598 244.321 83.6147 243.43 83.8578C242.538 84.1009 241.411 83.54 241.165 82.6532Z" fill="#DF980C"/>
    <path d="M244.313 78.7397C244.067 77.8529 244.555 76.929 245.566 76.592C246.457 76.3489 247.304 76.993 247.55 77.8797C247.796 78.7665 247.237 79.7473 246.345 79.9904C245.454 80.2335 244.559 79.6264 244.313 78.7397Z" fill="#DF980C"/>
    <path d="M214.066 91.023C208.209 88.83 201.687 83.7247 199.148 81.4719C198.765 81.1368 198.125 80.7202 197.545 80.9866C197.081 81.1998 197.21 81.8728 197.332 82.1827C197.791 83.3129 201.2 87.8953 213.202 92.4586C226.093 97.3602 235.594 92.2888 238.222 89.2933C241.362 91.0304 243.677 88.5365 243.852 88.1675C243.992 87.8722 243.84 87.7906 243.747 87.7867C242.291 87.7882 241.437 87.5709 239.619 86.3909C237.801 85.2108 237.368 82.9681 237.262 82.6392C237.198 82.4397 237.147 82.462 237.073 82.5034C234.672 84.6031 235.985 87.3074 236.941 88.397C230.526 94.2039 221.004 93.6211 214.066 91.023Z" fill="#75895E"/>
    <path d="M253.948 84.7095C250.009 87.1028 245.135 87.2743 243.191 87.0609C242.404 86.9331 242.56 86.6335 242.737 86.4997C246.456 83.7604 249.166 80.3135 250.509 76.6062C251.852 72.8988 249.236 71.7779 245.377 74.8829C241.518 77.9879 239.046 81.8283 238.93 83.4444C238.901 83.8586 238.597 84.1211 238.343 83.5227C236.163 77.0834 238.882 71.6556 241.172 70.0544C242.949 68.8121 245.462 70.7923 246.457 71.8791C246.936 70.3257 249.185 68.3545 250.395 67.7979C251.606 67.2414 254.957 66.7805 256.433 70.5811C257.615 73.6216 254.734 76.6057 253.147 77.7177C254.696 78.2651 258.872 81.7178 253.948 84.7095Z" fill="#B14B57"/>
    <path d="M287.945 64.8612C285.935 56.596 281.621 51.8559 279.96 50.7625C279.851 50.6721 277.56 49.3622 280.133 52.2414C284.215 56.811 289.547 68.3291 284.688 75.3146C279.903 82.1934 274.95 81.9685 264.779 86.7239C256.643 90.5282 255.876 96.5651 256.509 99.108C256.895 100.589 258.023 102.434 259.439 97.9672C261.209 92.3834 263.76 90.8865 267.999 89.0496C272.237 87.2127 275.447 86.1843 280.273 83.3721C285.099 80.5599 290.334 74.6829 287.945 64.8612Z" fill="#75895E"/>
    <path d="M247.705 52.9216C241.443 53.263 230.998 58.4788 226.52 61.0525C225.914 61.5704 227.47 61.3212 228.552 61.0737C232.632 60.1404 235.242 61.3912 237.953 64.2197C240.755 67.144 242.506 65.5442 243.077 63.9126C244.126 60.9144 238.269 58.6632 244.455 58.76C250.642 58.8569 252.534 58.1349 253.588 57.349C255.934 55.3823 253.967 52.5801 247.705 52.9216Z" fill="#75895E"/>
    <path d="M192.722 69.9835C192.301 77.9948 185.6 84.8775 182.302 87.3175C179.873 88.8925 182.375 85.7562 183.029 84.7622C185.002 82.4515 188.569 76.4131 188.723 70.6851C188.901 64.1058 184.316 62.2136 182.552 63.9591C180.773 65.72 176.75 68.091 175.253 65.7504C173.401 62.8554 174.154 59.514 180.277 57.9502C186.199 56.4381 193.222 60.4577 192.722 69.9835Z" fill="#4E6F82"/>
    <path d="M55.3175 33.059C60.5451 36.4965 72.0621 38.504 77.2031 39.094C78.001 39.0379 76.6034 38.3158 75.5867 37.873C71.752 36.203 70.4124 33.6533 69.9416 29.7783C69.4549 25.7723 67.087 26.0172 65.6468 26.9875C63.0004 28.7703 66.3426 34.0473 61.4393 30.3029C56.536 26.5586 54.584 26.0163 53.2653 26.0218C50.1997 26.2086 50.0899 29.6215 55.3175 33.059Z" fill="#75895E"/>
    <path d="M2.72739 34.4872C6.82408 40.0767 15.2838 44.1426 19.0015 45.4769C19.4347 45.637 20.1163 45.8234 20.3855 45.4984C20.7943 45.0047 19.75 44.1135 19.0471 43.7155C18.2152 43.2295 15.2354 41.3941 9.97127 37.9407C4.7071 34.4873 4.67649 29.9291 5.3192 28.0816C5.63568 26.5947 7.79806 22.3929 11.4948 24.3405C15.2719 26.3305 21.8946 19.7865 17.9281 14.1852C13.9616 8.58381 5.31174 14.6863 3.08689 17.4588C0.862048 20.2314 -2.39346 27.5004 2.72739 34.4872Z" fill="#4E6F82"/>
    <path d="M101.224 58.0156C116.209 65.3245 135.651 83.4924 136.681 84.8656C137.688 86.3054 138.282 86.2695 138.68 85.9391C138.939 85.6727 139.116 85.124 137.212 82.9005C132.456 77.3483 110.297 58.2017 104.03 53.9823C97.7618 49.763 72.4183 34.6732 57.4796 44.1751C42.5408 53.6771 51.0423 67.7659 53.5202 70.5434C55.9982 73.3208 61.6749 76.7736 64.8907 71.9663C68.451 66.6439 66.0172 64.0095 63.9223 60.9604C61.9107 58.0326 61.4326 51.9812 66.2757 49.8203C70.7593 47.8198 83.3811 49.3123 101.224 58.0156Z" fill="#4E6F82"/>
    <path d="M4.30348 38.7874C5.19803 39.0251 5.86688 39.6854 5.67413 40.843C5.43367 41.7328 4.5127 42.3787 3.61815 42.141C2.72361 41.9034 2.09607 40.9027 2.33654 40.0129C2.577 39.1231 3.40893 38.5498 4.30348 38.7874Z" fill="#B14B57"/>
    <path d="M8.96668 42.7545C10.0455 43.0411 10.7397 44.192 10.4497 45.2651C10.1597 46.3382 8.88544 47.0138 7.80662 46.7272C6.72779 46.4406 6.18065 45.3242 6.47065 44.251C6.76065 43.1779 7.88785 42.4679 8.96668 42.7545Z" fill="#B14B57"/>
    <path d="M15.7838 46.1275C16.967 46.4418 17.6333 47.8414 17.3153 49.0183C16.9972 50.1952 15.7411 50.8275 14.5579 50.5132C13.3747 50.1989 12.6554 48.8276 12.9735 47.6507C13.2915 46.4738 14.6006 45.8132 15.7838 46.1275Z" fill="#B14B57"/>
    <path d="M108.687 37.8128C109.033 38.6666 108.647 39.7343 107.788 40.0797C106.928 40.4251 105.921 39.9174 105.575 39.0636C105.229 38.2098 105.532 37.2425 106.452 36.8727C107.311 36.5273 108.381 36.8859 108.687 37.8128Z" fill="#B14B57"/>
    <path d="M108.282 43.893C108.699 44.9227 108.205 46.064 107.168 46.4806C106.132 46.8971 104.843 46.4696 104.425 45.4399C104.008 44.4103 104.6 42.9147 105.613 42.6474C106.649 42.2309 107.865 42.8633 108.282 43.893Z" fill="#B14B57"/>
    <path d="M109.564 51.1988C110.021 52.3281 109.607 53.8251 108.424 54.2099C107.287 54.6667 105.862 54.0585 105.404 52.9293C104.946 51.8 105.613 50.4153 106.749 49.9585C107.886 49.5016 109.106 50.0695 109.564 51.1988Z" fill="#B14B57"/>
    <path d="M33.5037 46.6718C43.2259 47.4505 54.718 43.8731 56.7174 42.0374C57.1597 41.8204 57.9297 41.0168 55.9156 41.1694C53.9016 41.322 49.9423 43.2101 46.7582 43.0471C43.6818 42.8895 41.3756 41.5199 40.1532 40.0344C38.8503 38.451 36.7644 37.6069 36.0823 37.6279C35.0135 37.6606 33.0198 39.5188 32.6945 39.9313C32.4963 40.1827 32.3489 40.1079 32.2903 39.9917C31.7356 38.7374 29.1747 35.8598 27.1014 34.6716C25.0281 33.4835 23.0192 34.5338 21.7325 34.8219C20.8564 35.018 19.2195 34.3603 18.3816 33.9316C17.6252 33.4408 15.7445 32.4419 14.272 32.3731C12.7994 32.3044 13.13 34.2999 13.4793 35.3063C15.6069 40.6275 23.3052 45.855 33.5037 46.6718Z" fill="#75895E"/>
    <path d="M126.473 65.645C128.421 71.2599 132.696 76.7893 133.971 77.4525C134.171 77.6458 134.704 77.8774 134.163 76.7915C133.622 75.7057 131.862 73.9622 131.184 72.1458C130.528 70.391 130.586 68.7673 130.95 67.7196C131.337 66.6029 131.216 65.2315 131.046 64.8562C130.78 64.2681 129.496 63.6136 129.239 63.5337C129.082 63.485 129.08 63.3844 129.117 63.3231C129.536 62.7048 130.195 60.5677 130.228 59.1186C130.261 57.6695 129.327 56.8076 128.898 56.1608C128.606 55.7204 128.509 54.6453 128.499 54.0723C128.537 53.5296 128.532 52.2345 128.215 51.3962C127.899 50.5578 127.101 51.2337 126.742 51.6763C124.91 54.1736 124.43 59.7551 126.473 65.645Z" fill="#75895E"/>
    <path d="M111.66 70.4643C119.166 71.8673 127.096 76.9228 128.221 78.7187C128.51 78.9731 128.923 79.7378 127.434 79.2101C125.945 78.6823 123.35 76.4454 120.911 75.9165C118.555 75.4054 116.526 75.9675 115.291 76.8391C113.975 77.7682 112.223 77.9785 111.712 77.823C110.912 77.5794 109.796 75.7676 109.636 75.3894C109.539 75.159 109.412 75.1853 109.344 75.2611C108.662 76.0948 106.124 77.7436 104.31 78.2164C102.495 78.6892 101.198 77.4845 100.286 77.0034C99.6656 76.6758 98.2914 76.8373 97.5686 76.9895C96.8945 77.2053 95.2646 77.5745 94.1381 77.3249C93.0116 77.0753 93.6795 75.6358 94.1543 74.9472C96.8766 71.3641 103.787 68.9926 111.66 70.4643Z" fill="#75895E"/>
    <path d="M25.4635 54.7348C30.8082 54.685 39.6705 49.1029 39.9189 48.5602C40.1672 48.0176 39.8441 48.0607 39.6668 48.1665C39.4895 48.2724 35.6348 50.1332 33.4922 50.8946C30.926 51.8065 26.3366 52.1797 22.4431 50.5446C19.1473 49.1605 18.3779 50.4674 18.5214 51.4136C18.6987 52.5999 20.2425 54.7834 25.4635 54.7348Z" fill="#75895E"/>
    <path d="M110.72 48.1556C112.9 57.0295 123.707 69.0507 124.515 69.1985C125.323 69.3463 125.139 68.8295 124.931 68.5861C124.722 68.3427 120.763 62.8363 118.92 59.642C116.711 55.8161 114.408 48.3581 115.006 41.0755C115.513 34.9106 113.499 34.2695 112.318 34.9718C110.837 35.8479 108.591 39.4873 110.72 48.1556Z" fill="#4E6F82"/>
    <path d="M89.6629 101.425C92.8916 98.2362 101.585 96.2397 102.063 96.4149C102.541 96.59 102.321 96.7588 102.151 96.8023C101.981 96.8457 98.544 98.0535 96.7994 98.8882C94.71 99.8879 91.7369 102.428 90.3999 105.752C89.268 108.565 88.014 108.246 87.5253 107.593C86.9111 106.777 86.509 104.54 89.6629 101.425Z" fill="#75895E"/>
    <path d="M98.4613 101.357C102.142 97.7206 112.054 95.4443 112.599 95.644C113.144 95.8437 112.894 96.0362 112.7 96.0857C112.505 96.1352 108.587 97.5123 106.598 98.464C104.216 99.6038 100.826 102.5 99.3015 106.289C98.011 109.497 96.5812 109.133 96.024 108.389C95.3237 107.458 94.8653 104.908 98.4613 101.357Z" fill="#75895E"/>
    <path d="M102.957 91.8111C107.183 92.1141 114.547 88.2698 114.778 87.8568C115.01 87.4439 114.752 87.4572 114.605 87.5295C114.458 87.6019 111.292 88.8257 109.549 89.2902C107.463 89.8466 103.812 89.8477 100.842 88.306C98.3273 87.001 97.6347 87.9847 97.6868 88.7417C97.7501 89.6906 98.8285 91.5152 102.957 91.8111Z" fill="#75895E"/>
    <path d="M65.5945 95.1453C63.77 92.268 57.7326 89.3561 57.3519 89.405C56.9712 89.4539 57.1034 89.6144 57.221 89.6746C57.3386 89.7348 59.6539 91.1931 60.7914 92.0959C62.1538 93.1772 63.9014 95.5362 64.315 98.1971C64.665 100.45 65.6396 100.424 66.1096 100.027C66.6997 99.5299 67.3766 97.9559 65.5945 95.1453Z" fill="#B14B57"/>
    <path d="M59.1202 92.3641C56.7555 89.0698 49.3829 86.0197 48.9339 86.1036C48.4849 86.1875 48.653 86.3691 48.7968 86.4327C48.9407 86.4963 51.7915 88.0717 53.2048 89.0671C54.8975 90.2593 57.1355 92.9431 57.8091 96.0759C58.3794 98.7278 59.5355 98.632 60.0667 98.1279C60.7338 97.4976 61.4302 95.582 59.1202 92.3641Z" fill="#B14B57"/>
    <path d="M110.267 86.9626C115.482 87.3365 124.57 82.5926 124.855 82.083C125.141 81.5734 124.822 81.5898 124.641 81.6791C124.46 81.7683 120.552 83.2785 118.402 83.8518C115.827 84.5384 111.323 84.5397 107.657 82.6373C104.554 81.0269 103.7 82.2407 103.764 83.1749C103.842 84.3459 105.173 86.5974 110.267 86.9626Z" fill="#75895E"/>
    <path d="M18.8932 60.2517C23.1226 60.0868 30.0049 55.4608 30.1886 55.0255C30.3723 54.5902 30.1176 54.6318 29.9798 54.7198C29.8419 54.8077 26.835 56.371 25.1571 57.0239C23.1475 57.8058 19.5237 58.2089 16.4031 57.0062C13.7614 55.988 13.1834 57.0405 13.3195 57.786C13.488 58.7207 14.7618 60.4127 18.8932 60.2517Z" fill="#75895E"/>
    <path d="M31.7826 77.5211C32.528 77.7191 33.0349 78.539 32.8346 79.2804C32.6342 80.0219 31.7264 80.472 30.981 80.274C30.2356 80.076 29.8236 79.216 30.0239 78.4745C30.2243 77.7331 31.0372 77.3231 31.7826 77.5211Z" fill="#DF980C"/>
    <path d="M33.1477 81.3763C33.8931 81.5743 34.4271 82.1963 34.2341 83.1795C34.0337 83.921 33.1401 84.3604 32.3948 84.1623C31.6494 83.9643 31.272 83.1872 31.4724 82.4458C31.6728 81.7044 32.4023 81.1782 33.1477 81.3763Z" fill="#DF980C"/>
    <path d="M37.1245 54.576C41.1831 51.3047 47.6294 48.7859 50.3308 47.9175C50.735 47.7843 51.3067 47.5013 51.3586 46.9733C51.4001 46.551 50.8589 46.3591 50.5832 46.3159C49.5718 46.1676 44.8174 46.6768 36.4505 53.351C27.4633 60.52 27.1222 69.4696 28.1806 72.6165C25.5982 74.1339 26.4256 76.8454 26.6187 77.1266C26.7732 77.3515 26.8965 77.277 26.9388 77.2116C27.5523 76.1676 28.0698 75.6474 29.6909 74.8426C31.312 74.0379 33.1171 74.6746 33.3999 74.7373C33.5714 74.7753 33.5768 74.7293 33.5779 74.6593C33.0722 72.0524 30.5616 71.8517 29.3695 72.0772C27.8759 65.029 32.3163 58.4516 37.1245 54.576Z" fill="#75895E"/>
    <path d="M24.8596 85.8207C24.7904 81.9879 26.7233 78.423 27.6984 77.1197C28.1231 76.6096 28.2738 76.8483 28.296 77.0313C28.7084 80.8524 30.0584 84.2494 32.1739 86.7763C34.2894 89.3033 36.2046 87.9017 35.5867 83.826C34.9689 79.7502 33.2337 76.3579 32.1133 75.5929C31.8261 75.3968 31.7642 75.0687 32.3045 75.139C37.8836 76.2943 40.663 80.5338 40.8548 82.8509C41.0036 84.6486 38.5105 85.6133 37.3044 85.8675C38.2259 86.8666 38.703 89.31 38.5946 90.4126C38.4862 91.5152 37.4057 94.1106 34.0327 93.5646C31.3342 93.1279 30.3908 89.8045 30.2564 88.1974C29.2063 89.0768 24.946 90.6117 24.8596 85.8207Z" fill="#B14B57"/>
    <path d="M86.8348 82.6533C87.0807 81.7665 86.5436 80.8235 85.6521 80.5804C84.7607 80.3373 83.7676 80.8863 83.5216 81.7731C83.2757 82.6598 83.6786 83.6147 84.57 83.8578C85.4615 84.1009 86.5888 83.54 86.8348 82.6533Z" fill="#DF980C"/>
    <path d="M83.6867 78.7397C83.9326 77.8529 83.4449 76.929 82.4342 76.592C81.5428 76.3489 80.6957 76.993 80.4498 77.8797C80.2038 78.7665 80.7635 79.7473 81.6549 79.9904C82.5464 80.2335 83.4408 79.6264 83.6867 78.7397Z" fill="#DF980C"/>
    <path d="M113.934 91.0231C119.791 88.83 126.313 83.7248 128.851 81.472C129.235 81.1368 129.875 80.7202 130.455 80.9867C130.919 81.1999 130.79 81.8729 130.668 82.1827C130.209 83.313 126.8 87.8953 114.798 92.4586C101.907 97.3603 92.4054 92.2888 89.7782 89.2933C86.6376 91.0305 84.3226 88.5366 84.1476 88.1675C84.0076 87.8723 84.1597 87.7906 84.2532 87.7867C85.7093 87.7882 86.5631 87.571 88.3812 86.3909C90.1992 85.2108 90.6315 82.9682 90.7378 82.6392C90.8022 82.4398 90.8532 82.4621 90.9266 82.5034C93.3279 84.6031 92.0152 87.3074 91.0586 88.3971C97.4741 94.204 106.996 93.6211 113.934 91.0231Z" fill="#75895E"/>
    <path d="M74.0518 84.7095C77.9908 87.1029 82.8644 87.2744 84.8089 87.061C85.596 86.9331 85.4394 86.6336 85.2628 86.4997C81.544 83.7605 78.8337 80.3135 77.491 76.6062C76.1482 72.8989 78.7642 71.7779 82.623 74.8829C86.4819 77.988 88.9539 81.8284 89.0696 83.4445C89.0992 83.8586 89.4024 84.1211 89.6569 83.5227C91.8372 77.0834 89.1179 71.6556 86.8276 70.0545C85.0506 68.8121 82.5382 70.7924 81.5433 71.8791C81.064 70.3257 78.8153 68.3545 77.6045 67.798C76.3936 67.2414 73.0434 66.7805 71.5667 70.5812C70.3854 73.6217 73.2655 76.6057 74.8533 77.7177C73.3037 78.2652 69.1281 81.7178 74.0518 84.7095Z" fill="#B14B57"/>
    <path d="M40.0548 64.8612C42.0647 56.596 46.379 51.8559 48.0405 50.7625C48.1494 50.6721 50.4398 49.3622 47.8675 52.2415C43.785 56.811 38.4528 68.3291 43.312 75.3146C48.097 82.1934 53.0503 81.9685 63.2206 86.7239C71.3569 90.5283 72.1245 96.5651 71.4913 99.108C71.1046 100.589 69.9771 102.434 68.5613 97.9672C66.7915 92.3834 64.2397 90.8865 60.0015 89.0496C55.7632 87.2127 52.553 86.1843 47.7269 83.3721C42.9008 80.5599 37.6664 74.6829 40.0548 64.8612Z" fill="#75895E"/>
    <path d="M80.2946 52.9216C86.5567 53.263 97.0017 58.4788 101.48 61.0526C102.086 61.5705 100.53 61.3213 99.4484 61.0738C95.3675 60.1404 92.758 61.3912 90.0474 64.2198C87.2449 67.144 85.4935 65.5443 84.9227 63.9126C83.8738 60.9145 89.7314 58.6632 83.5446 58.7601C77.3578 58.8569 75.4659 58.1349 74.4117 57.349C72.0656 55.3823 74.0325 52.5802 80.2946 52.9216Z" fill="#75895E"/>
    <path d="M135.278 69.9835C135.699 77.9948 142.4 84.8775 145.698 87.3175C148.127 88.8925 145.625 85.7562 144.971 84.7623C142.998 82.4515 139.431 76.4131 139.277 70.6851C139.099 64.1058 143.684 62.2136 145.448 63.9591C147.227 65.72 151.25 68.091 152.747 65.7504C154.599 62.8554 153.846 59.514 147.723 57.9502C141.801 56.4381 134.778 60.4577 135.278 69.9835Z" fill="#4E6F82"/>
    <path d="M171.491 18.1012C171.491 19.1289 172.354 20.0223 173.382 20.0223C174.409 20.0223 175.316 19.052 175.316 18.0244C175.316 16.9967 174.448 16.2423 173.42 16.2423C172.393 16.2423 171.491 17.0736 171.491 18.1012Z" fill="#DF980C"/>
    <path d="M176.362 28.157C175.484 28.6911 175.062 29.6891 175.596 30.5671C176.13 31.445 177.537 31.919 178.415 31.385C179.293 30.8509 179.487 29.7176 178.953 28.8396C178.419 27.9616 177.24 27.623 176.362 28.157Z" fill="#DF980C"/>
    <path d="M186.25 29.0023C185.673 39.3101 172.988 46.7539 167.014 48.8854C166.257 49.1495 165.047 49.1923 167.471 47.6544C178.418 40.2999 181.116 33.8855 181.609 29.5337C182.123 24.996 178.578 24.8875 176.285 25.1625C174.504 25.3761 175.146 24.469 175.725 24.0603C176.398 23.5206 177.307 22.3119 177.855 19.4648C179.013 14.4211 173.67 12.4222 171.167 14.72C169.164 16.5581 169 16.0089 169.168 15.5045C170.812 11.2454 170.476 6.50046 168.682 5.17413C166.889 3.84781 165.058 4.9126 164.703 5.17413C164.419 5.38336 164.223 5.61097 163.925 5.61097V0C172.815 0 173.443 7.07617 172.645 10.6142C174.639 8.57113 180.12 9.36845 181.715 13.654C182.991 17.0825 181.482 20.8298 180.569 22.275C183.06 20.8298 186.25 22.4743 186.25 29.0023Z" fill="#B14B57"/>
    <path d="M141.6 29.0023C142.177 39.3101 154.862 46.7539 160.835 48.8854C161.592 49.1495 162.802 49.1923 160.379 47.6544C149.431 40.2999 146.733 33.8855 146.24 29.5337C145.726 24.996 149.271 24.8875 151.564 25.1625C153.345 25.3761 152.703 24.469 152.125 24.0603C151.451 23.5206 150.543 22.3119 149.995 19.4648C148.837 14.4211 154.179 12.4222 156.683 14.72C158.685 16.5581 158.85 16.0089 158.681 15.5045C157.038 11.2454 157.374 6.50046 159.167 5.17413C160.96 3.84781 162.791 4.9126 163.146 5.17413C163.43 5.38336 163.631 5.61097 163.925 5.61097V0C155.035 0 154.407 7.07617 155.204 10.6142C153.211 8.57113 147.729 9.36845 146.135 13.654C144.859 17.0825 146.367 20.8298 147.281 22.275C144.789 20.8298 141.6 22.4743 141.6 29.0023Z" fill="#B14B57"/>
    <path d="M163.289 61.4341C163.663 55.4086 164.343 58.6086 164.585 61.2604C165.209 70.0501 164.968 100.042 164.882 102.952C164.795 105.862 163.624 107.747 163.289 103.579C162.954 99.4118 162.856 68.4158 163.289 61.4341Z" fill="#75895E"/>
    <path d="M145.013 50.2188C152.749 47.9372 158.694 53.5398 160.067 55.762C160.405 56.2009 160.797 56.9932 160.918 56.8228C161.039 56.6525 159.314 51.0463 153.42 48.0432C147.526 45.0401 143.74 45.394 140.88 47.8261C139.278 49.3309 138.241 52.216 145.013 50.2188Z" fill="#4E6F82"/>
    <path d="M183.126 50.2188C175.389 47.9372 169.445 53.5398 168.072 55.762C167.733 56.2009 167.341 56.9932 167.22 56.8228C167.099 56.6525 168.825 51.0463 174.719 48.0432C180.612 45.0401 184.399 45.394 187.258 47.8261C188.86 49.3309 189.897 52.216 183.126 50.2188Z" fill="#4E6F82"/>
    <path d="M162.104 27.2984C162.104 28.326 162.968 29.2194 163.995 29.2194C165.023 29.2194 165.929 28.2492 165.929 27.2215C165.929 26.1939 165.061 25.4395 164.034 25.4395C163.006 25.4395 162.104 26.2707 162.104 27.2984Z" fill="#DF980C"/>
    <path d="M163.049 31.425C162.171 31.959 161.857 33.161 162.391 34.039C162.925 34.917 164.225 35.1869 165.103 34.6529C165.981 34.1189 166.174 32.9855 165.64 32.1075C165.106 31.2295 163.927 30.8909 163.049 31.425Z" fill="#DF980C"/>
    <path d="M153.71 16.4596C152.832 16.9937 152.517 18.1957 153.051 19.0737C153.585 19.9517 154.885 20.2216 155.763 19.6876C156.641 19.1535 156.835 18.0202 156.301 17.1422C155.767 16.2642 154.588 15.9256 153.71 16.4596Z" fill="#DF980C"/>
    <path d="M164.709 8.83593C163.753 8.45915 162.703 8.72595 162.326 9.68204C161.949 10.6381 162.422 12.0459 163.378 12.4227C164.334 12.7994 165.354 12.2688 165.731 11.3127C166.108 10.3566 165.665 9.21271 164.709 8.83593Z" fill="#DF980C"/>
    <path d="M162.83 38.0289C162.056 38.7551 161.974 40.0162 162.677 40.7656C163.38 41.5149 164.731 41.49 165.505 40.7637C166.279 40.0374 166.253 38.8716 165.55 38.1222C164.847 37.3729 163.604 37.3026 162.83 38.0289Z" fill="#DF980C"/>
    <path d="M149.767 27.8618C148.993 28.588 148.911 29.8491 149.615 30.5984C150.318 31.3478 151.669 31.3228 152.442 30.5966C153.216 29.8703 153.191 28.7045 152.488 27.9551C151.784 27.2058 150.541 27.1355 149.767 27.8618Z" fill="#DF980C"/>
    <path d="M181.074 90.5223C173.663 94.5603 167.153 103.848 166.627 106.681C166.416 107.118 166.262 108.306 167.64 107.155C169.018 106.003 170.933 102.146 173.314 100.731C175.615 99.3639 177.965 99.5952 179.59 100.48C181.323 101.423 183.251 101.237 183.733 100.877C184.489 100.315 184.999 97.4614 185.028 96.8861C185.046 96.5356 185.189 96.5376 185.29 96.6252C186.318 97.6091 189.606 99.2275 191.697 99.3922C193.788 99.5569 194.714 97.5069 195.499 96.5799C196.034 95.9488 197.545 95.7974 198.364 95.8122C199.156 95.9299 201.013 96.0001 202.111 95.3392C203.209 94.6782 201.972 92.8393 201.217 92.0024C197.02 87.7167 188.847 86.2865 181.074 90.5223Z" fill="#75895E"/>
    <path d="M146.928 90.6727C154.338 94.7107 160.849 103.998 161.375 106.832C161.586 107.269 161.74 108.457 160.362 107.305C158.984 106.154 157.068 102.296 154.687 100.881C152.387 99.5143 150.037 99.7456 148.411 100.631C146.679 101.574 144.75 101.387 144.268 101.028C143.513 100.465 143.002 97.6118 142.973 97.0365C142.956 96.686 142.812 96.688 142.712 96.7756C141.684 97.7595 138.396 99.3779 136.305 99.5426C134.213 99.7073 133.288 97.6573 132.503 96.7303C131.968 96.0991 130.457 95.9478 129.638 95.9626C128.846 96.0803 126.988 96.1505 125.89 95.4895C124.793 94.8286 126.029 92.9897 126.785 92.1528C130.982 87.8671 139.155 86.4369 146.928 90.6727Z" fill="#75895E"/>
    <path d="M174.787 56.1504C170.926 58.9174 168.502 64.1816 167.715 66.3282C167.617 66.5951 166.855 68.0559 167.318 65.5317C168.075 61.3947 172.635 55.0126 176.571 53.3522C180.506 51.6918 184.273 53.1687 185.092 54.4776C186.073 56.0449 184.484 56.3027 183.525 55.538C182.845 54.9963 179.564 52.7272 174.787 56.1504Z" fill="#B14B57"/>
    <path d="M154.497 56.1504C158.358 58.9174 160.781 64.1816 161.569 66.3282C161.667 66.5951 162.429 68.0559 161.966 65.5317C161.208 61.3947 156.649 55.0126 152.713 53.3522C148.777 51.6918 145.011 53.1687 144.192 54.4776C143.21 56.0449 144.8 56.3027 145.759 55.538C146.439 54.9963 149.72 52.7272 154.497 56.1504Z" fill="#B14B57"/>
    <path d="M161.633 45.5879C164.358 48.2908 164.29 47.1152 163.346 45.7825C162.402 44.4498 159.474 39.4469 158.792 34.8621C157.917 28.9776 159.537 23.3457 164.521 22.7438C169.122 22.3739 171.254 30.4493 169.616 36.9976C168.56 40.8562 166.923 44.4214 165.682 45.6319C165.219 46.1128 164.572 46.794 164.736 46.8981C164.979 46.9761 166.49 46.7895 168.032 44.7647C171.082 40.7579 173.274 36.15 173.463 27.9469C173.639 20.3572 168.516 16.5583 164.521 16.369C162.783 16.3301 158.434 17.2332 156.38 22.7438C154.325 28.2544 155.523 34.328 156.38 36.676C156.963 38.5569 158.912 42.8886 161.633 45.5879Z" fill="#D2939B"/>
    <path d="M159.999 49.8786C159.391 52.9845 162.058 54.3242 163.468 54.6058C164.14 54.7044 164.778 54.655 165.014 54.5917C168.526 54.0649 168.827 50.6479 168.74 50.2511C168.671 49.9338 168.503 49.9612 168.427 50.0146C167.288 50.8951 166.487 51.2395 164.348 51.4069C162.21 51.5742 160.512 50.0668 160.229 49.8716C160.058 49.7533 160.031 49.8017 159.999 49.8786Z" fill="#4E6F82"/>
    <path d="M157.058 75.7532C159.618 80.8179 160.228 91.3828 160.224 96.0662C160.09 96.7773 159.584 95.4442 159.29 94.4833C158.181 90.8588 156.017 89.383 152.564 88.5468C148.995 87.6822 149.464 85.5802 150.491 84.3893C152.379 82.2009 156.799 85.7673 153.927 80.9613C151.056 76.1553 150.77 74.3431 150.913 73.1585C151.402 70.4232 154.498 70.6884 157.058 75.7532Z" fill="#75895E"/>
    <path d="M149.888 79.931C150.195 80.6743 149.852 81.6039 149.089 81.9046C148.326 82.2054 147.431 81.7633 147.123 81.02C146.816 80.2766 147.085 79.4344 147.903 79.1125C148.666 78.8117 149.616 79.124 149.888 79.931Z" fill="#B14B57"/>
    <path d="M179.888 79.931C180.195 80.6743 179.852 81.6039 179.089 81.9046C178.326 82.2054 177.431 81.7633 177.123 81.02C176.816 80.2766 177.085 79.4344 177.903 79.1125C178.666 78.8117 179.616 79.124 179.888 79.931Z" fill="#B14B57"/>
    <path d="M169.943 75.7532C167.383 80.8179 166.773 91.3828 166.777 96.0662C166.911 96.7773 167.418 95.4442 167.712 94.4833C168.82 90.8588 170.984 89.383 174.437 88.5468C178.006 87.6822 177.537 85.5802 176.51 84.3893C174.622 82.2009 170.202 85.7673 173.074 80.9613C175.945 76.1553 176.231 74.3431 176.088 73.1585C175.599 70.4232 172.503 70.6884 169.943 75.7532Z" fill="#75895E"/>
</svg>
