<svg width="26" height="31" viewBox="0 0 26 31" fill="none" xmlns="http://www.w3.org/2000/svg">
    <path d="M9.08469 10.326C9.08469 10.8606 8.62916 11.3253 8.08703 11.3253C7.5449 11.3253 7.06689 10.8206 7.06689 10.2861C7.06689 9.75154 7.52461 9.35913 8.06674 9.35913C8.60886 9.35913 9.08469 9.79151 9.08469 10.326Z" fill="#DF980C"/>
    <path d="M6.51485 15.5566C6.97802 15.8344 7.20072 16.3535 6.91899 16.8102C6.63726 17.2669 5.89479 17.5134 5.43162 17.2356C4.96844 16.9578 4.86628 16.3683 5.14801 15.9116C5.42974 15.455 6.05168 15.2788 6.51485 15.5566Z" fill="#DF980C"/>
    <path d="M1.29919 15.9962C1.60335 21.3578 8.29544 25.2297 11.4466 26.3383C11.8459 26.4758 12.4842 26.498 11.2057 25.6981C5.43056 21.8726 4.00709 18.5361 3.74707 16.2726C3.47594 13.9123 5.34602 13.8559 6.55569 13.9989C7.49541 14.11 7.15661 13.6382 6.85133 13.4256C6.49625 13.1449 6.01695 12.5162 5.72788 11.0353C5.11689 8.41175 7.93536 7.37206 9.2559 8.56722C10.3123 9.52335 10.3991 9.23768 10.3104 8.97532C9.44314 6.75991 9.62052 4.29186 10.5666 3.60197C11.5126 2.91208 12.4784 3.46593 12.6657 3.60197C12.8154 3.71079 12.9192 3.82919 13.0764 3.82919V0.910645C8.38655 0.910645 8.05532 4.59131 8.47594 6.43164C7.4244 5.36891 4.53267 5.78364 3.69144 8.01278C3.01846 9.79608 3.81412 11.7453 4.29607 12.497C2.98165 11.7453 1.29919 12.6006 1.29919 15.9962Z" fill="#B14B57"/>
    <path d="M24.8536 15.9962C24.5495 21.3578 17.8574 25.2297 14.7063 26.3383C14.3069 26.4758 13.6686 26.498 14.9471 25.6981C20.7223 21.8726 22.1457 18.5361 22.4057 16.2726C22.6769 13.9123 20.8068 13.8559 19.5971 13.9989C18.6574 14.11 18.9962 13.6382 19.3015 13.4256C19.6566 13.1449 20.1359 12.5162 20.4249 11.0353C21.0359 8.41175 18.2175 7.37206 16.8969 8.56722C15.8405 9.52335 15.7538 9.23768 15.8425 8.97532C16.7097 6.75991 16.5323 4.29186 15.5862 3.60197C14.6402 2.91208 13.6744 3.46593 13.4872 3.60197C13.3374 3.71079 13.2316 3.82919 13.0764 3.82919V0.910645C17.7663 0.910645 18.0975 4.59131 17.6769 6.43164C18.7284 5.36891 21.6201 5.78364 22.4614 8.01278C23.1344 9.79608 22.3387 11.7453 21.8567 12.497C23.1712 11.7453 24.8536 12.6006 24.8536 15.9962Z" fill="#B14B57"/>
    <path d="M23.053 27.032C18.9719 25.8452 15.8358 28.7594 15.1115 29.9153C14.9331 30.1436 14.7263 30.5557 14.6624 30.4671C14.5986 30.3785 15.5089 27.4625 18.618 25.9004C21.7271 24.3383 23.7247 24.5224 25.233 25.7875C26.0784 26.5702 26.6255 28.0709 23.053 27.032Z" fill="#4E6F82"/>
    <path d="M2.94695 27.032C7.0281 25.8452 10.1642 28.7594 10.8885 29.9153C11.0669 30.1436 11.2737 30.5557 11.3376 30.4671C11.4014 30.3785 10.4911 27.4625 7.38199 25.9004C4.27285 24.3383 2.27532 24.5224 0.766992 25.7875C-0.0783535 26.5702 -0.625494 28.0709 2.94695 27.032Z" fill="#4E6F82"/>
    <path d="M14.0366 15.1097C14.0366 15.6443 13.5811 16.109 13.0389 16.109C12.4968 16.109 12.0188 15.6043 12.0188 15.0698C12.0188 14.5352 12.4765 14.1428 13.0186 14.1428C13.5608 14.1428 14.0366 14.5752 14.0366 15.1097Z" fill="#DF980C"/>
    <path d="M13.538 17.2563C14.0012 17.5341 14.1671 18.1593 13.8854 18.616C13.6037 19.0727 12.918 19.2131 12.4548 18.9353C11.9916 18.6575 11.8895 18.068 12.1712 17.6113C12.4529 17.1547 13.0749 16.9785 13.538 17.2563Z" fill="#DF980C"/>
    <path d="M18.465 9.47213C18.9282 9.74991 19.0941 10.3751 18.8124 10.8318C18.5307 11.2885 17.845 11.4289 17.3818 11.1511C16.9186 10.8734 16.8165 10.2839 17.0982 9.82717C17.3799 9.37048 18.0019 9.19434 18.465 9.47213Z" fill="#DF980C"/>
    <path d="M12.6625 5.50666C13.1669 5.31068 13.721 5.44946 13.9197 5.94677C14.1185 6.44407 13.869 7.17632 13.3646 7.3723C12.8603 7.56828 12.3222 7.29228 12.1234 6.79497C11.9246 6.29766 12.1582 5.70264 12.6625 5.50666Z" fill="#DF980C"/>
    <path d="M13.6535 20.6913C14.0617 21.0691 14.1049 21.725 13.7339 22.1148C13.363 22.5046 12.6504 22.4916 12.2421 22.1138C11.8339 21.7361 11.8474 21.1297 12.2184 20.7399C12.5894 20.3501 13.2452 20.3136 13.6535 20.6913Z" fill="#DF980C"/>
    <path d="M20.5446 15.4027C20.9528 15.7805 20.996 16.4364 20.6251 16.8262C20.2541 17.216 19.5415 17.203 19.1333 16.8253C18.725 16.4475 18.7385 15.8411 19.1095 15.4513C19.4805 15.0615 20.1363 15.025 20.5446 15.4027Z" fill="#DF980C"/>
    <path d="M14.2848 24.6231C12.8474 26.0291 12.8836 25.4175 13.3815 24.7243C13.8795 24.0312 15.4239 21.4289 15.7836 19.0441C16.2453 15.9833 15.3909 13.0539 12.7612 12.7408C10.3341 12.5484 9.20931 16.7488 10.0735 20.1549C10.6309 22.1619 11.4942 24.0164 12.1492 24.646C12.3933 24.8961 12.7348 25.2505 12.6479 25.3046C12.5198 25.3452 11.7226 25.2482 10.9094 24.1949C9.3002 22.1108 8.144 19.714 8.04406 15.4472C7.95159 11.4994 10.654 9.52341 12.7612 9.42493C13.6782 9.40469 15.9724 9.87447 17.0564 12.7408C18.1404 15.6071 17.5081 18.7663 17.0564 19.9876C16.7484 20.966 15.7203 23.2191 14.2848 24.6231Z" fill="#D2939B"/>
    <path d="M15.1471 26.8549C15.4677 28.4705 14.0607 29.1673 13.3172 29.3138C12.9627 29.3651 12.6259 29.3394 12.5017 29.3065C10.6488 29.0325 10.4899 27.2551 10.5356 27.0487C10.5722 26.8836 10.6611 26.8979 10.701 26.9257C11.302 27.3837 11.7242 27.5628 12.8526 27.6499C13.9809 27.7369 14.8766 26.9529 15.0257 26.8513C15.1161 26.7898 15.13 26.8149 15.1471 26.8549Z" fill="#4E6F82"/>
</svg>
