<svg width="174" height="97" viewBox="0 0 174 97" fill="none" xmlns="http://www.w3.org/2000/svg">
    <path d="M45.7026 54.32C58.2843 55.3452 65.6039 44.8676 66.9981 41.0261C67.3759 40.246 67.7237 38.9075 67.9634 39.1298C68.2032 39.3521 67.3495 48.4884 59.2783 54.9687C51.2071 61.4489 45.2924 62.1153 40.1351 59.3033C37.1994 57.51 34.6891 53.4226 45.7026 54.32Z" fill="#4E6F82"/>
    <path d="M50.9578 43.8205C51.3978 43.4759 52.0903 43.5618 52.4352 44.0017C52.78 44.4416 52.7087 45.1599 52.2686 45.5045C51.8286 45.8492 51.1335 45.7361 50.7886 45.2962C50.4438 44.8564 50.4809 44.254 50.9578 43.8205Z" fill="#B14B57"/>
    <path d="M54.6021 43.8026C55.1328 43.3869 55.8766 43.5292 56.2924 44.0596C56.6511 44.5823 56.5798 45.3524 56.0845 45.7728C55.5538 46.1885 54.6858 46.0634 54.27 45.5329C53.8541 45.0024 54.0714 44.2183 54.6021 43.8026Z" fill="#B14B57"/>
    <path d="M58.0574 41.6771C58.5836 41.1458 59.4224 41.1525 59.9273 41.8011C60.3833 42.3829 60.3482 43.2621 59.7661 43.718C59.184 44.1738 58.3523 44.1757 57.8962 43.5939C57.4402 43.0121 57.4753 42.133 58.0574 41.6771Z" fill="#B14B57"/>
    <path d="M45.4266 51.5191C38.0476 49.2266 37.057 43.7505 37.4961 41.0959C37.6255 40.2766 37.6864 40.0761 38.2447 38.9588C38.5325 38.3828 38.9013 37.5032 38.4234 36.76C37.8925 35.9346 35.629 35.0721 33.357 37.3481C31.1378 39.5712 30.1387 44.873 33.7728 48.0542C37.1648 51.0234 42.313 52.3781 46.0367 52.5285C49.0157 52.6488 46.8712 51.9057 45.4266 51.5191Z" fill="#75895E"/>
    <path d="M59.2403 48.6646C66.3963 42.9991 66.2826 37.5121 65.3312 35.4769C64.3411 33.7624 62.6996 33.6907 61.7812 33.8824C60.8627 34.0741 58.4673 35.9035 59.5252 38.624C60.4453 40.99 62.8589 40.5055 63.7629 40.1083C63.6636 40.9226 62.327 45.0248 56.1875 46.9334C50.0481 48.842 46.0086 45.3462 45.5226 43.4747C45.0367 41.6032 45.8698 40.4903 46.4616 39.0502C47.0966 37.505 46.4134 36.9071 46.0419 36.6359C45.4686 36.2175 42.7735 35.6014 41.0277 39.0606C39.2819 42.5198 40.2685 44.7937 41.1438 46.5535C42.0191 48.3132 50.2953 55.7466 59.2403 48.6646Z" fill="#4E6F82"/>
    <path d="M129.225 54.3201C116.644 55.3452 109.324 44.8676 107.93 41.0262C107.552 40.246 107.204 38.9076 106.965 39.1299C106.725 39.3522 107.578 48.4885 115.65 54.9688C123.721 61.449 129.636 62.1154 134.793 59.3033C137.729 57.5101 140.239 53.4227 129.225 54.3201Z" fill="#4E6F82"/>
    <path d="M123.97 43.8205C123.53 43.4759 122.838 43.5618 122.493 44.0017C122.148 44.4416 122.219 45.1599 122.659 45.5045C123.099 45.8492 123.795 45.7361 124.139 45.2962C124.484 44.8564 124.447 44.254 123.97 43.8205Z" fill="#B14B57"/>
    <path d="M120.326 43.8027C119.795 43.387 119.051 43.5292 118.636 44.0597C118.277 44.5823 118.348 45.3524 118.844 45.7728C119.374 46.1885 120.242 46.0634 120.658 45.5329C121.074 45.0025 120.857 44.2183 120.326 43.8027Z" fill="#B14B57"/>
    <path d="M116.871 41.6771C116.344 41.1459 115.506 41.1525 115.001 41.8012C114.545 42.383 114.58 43.2621 115.162 43.718C115.744 44.1739 116.576 44.1757 117.032 43.5939C117.488 43.0121 117.453 42.133 116.871 41.6771Z" fill="#B14B57"/>
    <path d="M129.501 51.5191C136.88 49.2267 137.871 43.7505 137.432 41.0959C137.303 40.2767 137.242 40.0761 136.683 38.9589C136.396 38.3829 136.027 37.5033 136.505 36.7601C137.036 35.9346 139.299 35.0722 141.571 37.3482C143.79 39.5713 144.789 44.8731 141.155 48.0542C137.763 51.0234 132.615 52.3782 128.891 52.5286C125.912 52.6489 128.057 51.9057 129.501 51.5191Z" fill="#75895E"/>
    <path d="M115.688 48.6647C108.532 42.9991 108.645 37.5122 109.597 35.4769C110.587 33.7624 112.228 33.6908 113.147 33.8824C114.065 34.0741 116.461 35.9036 115.403 38.6241C114.483 40.9901 112.069 40.5055 111.165 40.1084C111.264 40.9226 112.601 45.0249 118.741 46.9335C124.88 48.8421 128.919 45.3463 129.405 43.4748C129.891 41.6033 129.058 40.4904 128.466 39.0503C127.831 37.505 128.515 36.9071 128.886 36.6359C129.459 36.2175 132.155 35.6014 133.9 39.0606C135.646 42.5198 134.66 44.7938 133.784 46.5536C132.909 48.3133 124.633 55.7467 115.688 48.6647Z" fill="#4E6F82"/>
    <path d="M98.5051 25.5907C94.6418 29.7422 93.2469 36.8392 93.8597 38.6645C93.862 38.9763 94.1662 39.7263 94.7451 38.7135C95.3241 37.7006 95.3424 34.9364 96.5428 33.532C97.7026 32.175 99.4545 31.7671 100.919 31.9206C102.479 32.0842 103.786 31.5231 104.003 31.195C104.345 30.6811 103.714 28.8474 103.534 28.4949C103.424 28.2802 103.527 28.2479 103.629 28.2772C104.703 28.6294 107.605 28.8368 109.15 28.449C110.694 28.0613 110.638 26.6138 110.874 25.8739C111.034 25.3702 112.056 24.9275 112.644 24.7457C113.248 24.6322 114.593 24.242 115.144 23.5893C115.694 22.9366 114.174 22.1192 113.346 21.792C108.868 20.1931 102.558 21.2358 98.5051 25.5907Z" fill="#75895E"/>
    <path d="M75.575 25.5907C79.4383 29.7422 80.8333 36.8392 80.2204 38.6645C80.2182 38.9763 79.914 39.7263 79.335 38.7135C78.756 37.7006 78.7378 34.9364 77.5373 33.532C76.3775 32.175 74.6256 31.7671 73.1614 31.9206C71.6007 32.0842 70.2944 31.5231 70.0766 31.195C69.7354 30.6811 70.3661 28.8474 70.5461 28.4949C70.6557 28.2802 70.5528 28.2479 70.4509 28.2772C69.3773 28.6294 66.4752 28.8368 64.9306 28.449C63.386 28.0613 63.4418 26.6138 63.2063 25.8739C63.046 25.3702 62.0242 24.9275 61.4362 24.7457C60.8323 24.6322 59.4868 24.242 58.9363 23.5893C58.3859 22.9366 59.9057 22.1192 60.7344 21.792C65.212 20.1931 71.5224 21.2358 75.575 25.5907Z" fill="#75895E"/>
    <path d="M85.3587 74.9504C82.6586 75.6808 81.1322 78.4205 82.3113 81.2595C83.363 83.8163 86.2893 85.3245 88.8473 84.2733C91.4053 83.2221 92.9463 80.5211 91.8947 77.9643C90.843 75.4074 87.9167 73.8992 85.3587 74.9504Z" fill="#B14B57"/>
    <path d="M88.3817 88.6286C86.2907 87.3669 83.64 88.0583 82.56 90.5157C81.5811 92.7224 82.3957 95.4781 84.6034 96.4566C86.8111 97.4351 89.4462 96.7763 90.4251 94.5696C91.4041 92.3628 90.5895 89.6071 88.3817 88.6286Z" fill="#B14B57"/>
    <path d="M124.441 76.695C115.537 74.7302 103.114 63.5324 102.93 62.6611C102.747 61.7898 103.268 61.9663 103.519 62.182C103.77 62.3976 109.415 66.4493 112.669 68.3074C116.566 70.5328 124.072 72.6971 131.27 71.7154C137.364 70.8843 138.092 73.0437 137.449 74.3589C136.648 76.0088 133.14 78.6143 124.441 76.695Z" fill="#75895E"/>
    <path d="M116.378 84.7277C108.735 81.6673 99.3181 69.8646 99.2828 69.0613C99.2476 68.2581 99.6859 68.4921 99.8778 68.7211C100.07 68.9502 104.501 73.3899 107.127 75.5238C110.27 78.0796 116.638 81.1118 123.195 81.2964C128.746 81.4527 129.076 83.4834 128.31 84.5604C127.353 85.9122 123.844 87.7171 116.378 84.7277Z" fill="#75895E"/>
    <path d="M103.503 88.6779C97.7733 84.3008 92.6017 72.1307 92.7607 71.4447C92.9197 70.7587 93.2345 71.0591 93.3426 71.2974C93.4507 71.5357 96.1465 76.3225 97.8598 78.7394C99.9118 81.6342 104.572 85.6879 110.061 87.3834C114.707 88.8187 114.509 90.6099 113.61 91.3387C112.484 92.2546 109.1 92.9535 103.503 88.6779Z" fill="#75895E"/>
    <path d="M49.9178 76.695C58.8225 74.7302 71.2452 63.5324 71.4289 62.6611C71.6125 61.7898 71.0912 61.9663 70.8402 62.182C70.5891 62.3976 64.9443 66.4493 61.6903 68.3074C57.7931 70.5328 50.2876 72.6971 43.089 71.7154C36.9953 70.8843 36.2669 73.0437 36.9097 74.3589C37.7111 76.0088 41.2193 78.6143 49.9178 76.695Z" fill="#75895E"/>
    <path d="M57.9806 84.7277C65.6236 81.6673 75.0409 69.8646 75.0762 69.0613C75.1115 68.2581 74.6731 68.4921 74.4812 68.7211C74.2893 68.9502 69.8575 73.3899 67.2325 75.5238C64.0885 78.0796 57.7213 81.1118 51.1642 81.2964C45.6135 81.4527 45.2826 83.4834 46.0489 84.5604C47.0057 85.9122 50.5146 87.7171 57.9806 84.7277Z" fill="#75895E"/>
    <path d="M70.8563 88.6779C76.5859 84.3008 81.7575 72.1308 81.5985 71.4448C81.4395 70.7587 81.1247 71.0591 81.0166 71.2974C80.9085 71.5357 78.2127 76.3225 76.4994 78.7395C74.4474 81.6342 69.7877 85.6879 64.2985 87.3835C59.6518 88.8188 59.85 90.6099 60.7496 91.3387C61.8747 92.2546 65.2595 92.9535 70.8563 88.6779Z" fill="#75895E"/>
    <path d="M73.3224 53.7858C71.3768 63.7246 79.9152 68.0116 84.4276 68.9128C86.5784 69.2284 88.6229 69.0702 89.3764 68.8677C100.621 67.1819 101.585 56.2475 101.308 54.9781C101.086 53.9625 100.546 54.0503 100.304 54.2212C96.6567 57.0388 94.0947 58.1407 87.2471 58.6763C80.3995 59.2119 74.9639 54.3883 74.0592 53.7636C73.5106 53.3849 73.4261 53.5397 73.3224 53.7858Z" fill="#B14B57"/>
    <path d="M76.4387 42.0957C74.8653 50.1329 81.7702 53.5998 85.4193 54.3286C87.1586 54.5838 88.8119 54.4559 89.4213 54.2921C98.5142 52.9289 99.2942 44.0864 99.0699 43.0598C98.8905 42.2385 98.454 42.3096 98.2582 42.4478C95.3087 44.7263 93.2369 45.6174 87.6993 46.0505C82.1618 46.4836 77.7661 42.5829 77.0345 42.0777C76.5909 41.7714 76.5225 41.8967 76.4387 42.0957Z" fill="#B14B57"/>
    <path d="M85.6955 16.1901C86.4755 12.91 87.8947 14.652 88.3997 16.0956C89.7031 20.8805 89.2 37.2074 89.0199 38.7915C88.8399 40.3756 86.3948 41.4018 85.6955 39.1331C84.9961 36.8644 84.7917 19.9908 85.6955 16.1901Z" fill="#75895E"/>
    <path d="M96.662 18.3728C93.1439 22.6578 92.0016 29.3233 91.7622 31.9807C91.7325 32.3111 91.3149 34.1876 91.0736 31.2029C90.6781 26.311 93.8911 17.7405 97.8277 14.6803C101.764 11.62 106.458 12.1473 107.777 13.375C109.357 14.8453 107.643 15.6159 106.33 15.0437C105.4 14.6384 101.015 13.0716 96.662 18.3728Z" fill="#B14B57"/>
    <path d="M78.201 18.3728C81.7192 22.6578 82.8615 29.3233 83.1008 31.9807C83.1306 32.3111 83.5482 34.1876 83.7895 31.2029C84.185 26.311 80.972 17.7405 77.0354 14.6803C73.0988 11.62 68.4053 12.1473 67.0858 13.375C65.5057 14.8453 67.22 15.6159 68.5332 15.0437C69.4634 14.6384 73.8484 13.0716 78.201 18.3728Z" fill="#B14B57"/>
    <path d="M142.461 10.7271C139.586 15.6267 129.742 20.8047 129.11 20.7429C128.478 20.6811 128.689 20.4064 128.88 20.2996C129.072 20.1929 132.83 17.6369 134.667 16.07C136.867 14.1932 139.641 10.1631 140.192 5.69862C140.659 1.91936 142.273 1.9103 143.07 2.54948C144.071 3.34843 145.27 5.94104 142.461 10.7271Z" fill="#75895E"/>
    <path d="M158.516 69.3637C156.826 66.1408 157.335 59.0162 157.581 58.6915C157.828 58.3668 157.906 58.5746 157.899 58.7152C157.893 58.8559 158.013 61.7711 158.244 63.3032C158.521 65.1382 159.773 68.0126 162.01 69.8192C163.904 71.3485 163.365 72.2333 162.749 72.4536C161.978 72.7313 160.167 72.5119 158.516 69.3637Z" fill="#B14B57"/>
    <path d="M159.376 61.9065C157.588 57.9622 158.675 49.5329 158.99 49.1641C159.305 48.7952 159.384 49.0474 159.366 49.214C159.349 49.3807 159.294 52.8522 159.465 54.6881C159.669 56.8869 160.961 60.3873 163.496 62.6865C165.642 64.6328 164.942 65.647 164.195 65.8666C163.26 66.1438 161.124 65.7594 159.376 61.9065Z" fill="#B14B57"/>
    <path d="M151.031 7.62678C148.64 11.4367 140.727 15.3019 140.228 15.238C139.729 15.1742 139.902 14.9617 140.057 14.8817C140.211 14.8018 143.245 12.8678 144.736 11.671C146.522 10.2377 148.812 7.11355 149.354 3.59299C149.812 0.612774 151.09 0.643823 151.706 1.16861C152.479 1.82469 153.366 3.90513 151.031 7.62678Z" fill="#75895E"/>
    <path d="M160.147 28.7582C159.936 29.5512 160.424 30.4578 161.214 30.6703C162.005 30.8828 162.901 30.2871 163.113 29.4941C163.324 28.701 162.749 27.8605 161.958 27.648C161.168 27.4355 160.359 27.9651 160.147 28.7582Z" fill="#DF980C"/>
    <path d="M162.983 32.0815C162.771 32.8746 163.063 33.7 164.072 34.0489C164.863 34.2614 165.741 33.6732 165.953 32.8801C166.165 32.087 165.648 31.3229 164.857 31.1104C164.067 30.8979 163.195 31.2884 162.983 32.0815Z" fill="#DF980C"/>
    <path d="M136.142 21.3901C130.974 23.3784 125.237 27.9706 123.005 29.9952C122.669 30.2965 122.105 30.6718 121.59 30.4368C121.178 30.2488 121.287 29.6472 121.394 29.3699C121.792 28.3583 124.779 24.249 135.368 20.1126C146.742 15.6696 155.183 20.1494 157.527 22.8108C160.295 21.2435 162.359 23.4586 162.517 23.7873C162.643 24.0502 162.509 24.1239 162.426 24.1279C161.137 24.134 160.383 24.3323 158.783 25.3954C157.182 26.4585 156.814 28.4633 156.722 28.7576C156.666 28.936 156.621 28.9163 156.556 28.8798C154.417 27.0171 155.561 24.5956 156.4 23.6177C150.685 18.4653 142.264 19.0346 136.142 21.3901Z" fill="#75895E"/>
    <path d="M171.473 26.8234C167.972 24.7064 163.658 24.5782 161.939 24.7788C161.243 24.8969 161.384 25.1636 161.541 25.2822C164.85 27.7092 167.27 30.7733 168.483 34.0769C169.695 37.3804 167.388 38.3948 163.953 35.642C160.518 32.8891 158.306 29.4725 158.193 28.03C158.164 27.6603 157.894 27.4275 157.673 27.9631C155.786 33.7243 158.227 38.5571 160.264 39.9751C161.845 41.0753 164.055 39.2942 164.928 38.3187C165.363 39.7034 167.365 41.452 168.44 41.9428C169.515 42.4335 172.483 42.828 173.764 39.4266C174.79 36.7055 172.222 34.0556 170.809 33.0708C172.177 32.574 175.849 29.4695 171.473 26.8234Z" fill="#B14B57"/>
    <path d="M144.084 29.6006C135.391 27.0255 128.732 28.4626 126.844 29.4083C126.703 29.4602 124.281 30.8696 128.3 30.0411C134.679 28.7262 148.133 29.9819 152.008 38.2027C155.824 46.298 152.995 50.7429 152 62.6643C151.205 72.2015 156.37 76.143 159.052 76.9216C160.624 77.3585 162.924 77.3078 159.55 73.6099C155.334 68.9874 155.303 65.8336 155.851 60.9432C156.399 56.0528 157.149 52.543 157.108 46.5883C157.067 40.6336 154.413 32.6608 144.084 29.6006Z" fill="#75895E"/>
    <path d="M31.5389 10.7271C34.4141 15.6267 44.2575 20.8047 44.8898 20.7429C45.5221 20.6811 45.3113 20.4064 45.1197 20.2996C44.9282 20.1929 41.1702 17.6369 39.3333 16.07C37.1332 14.1932 34.3594 10.1631 33.8076 5.69862C33.3405 1.91936 31.727 1.9103 30.9296 2.54948C29.9285 3.34843 28.7304 5.94104 31.5389 10.7271Z" fill="#75895E"/>
    <path d="M15.4837 69.3637C17.1736 66.1408 16.6654 59.0162 16.4187 58.6915C16.172 58.3668 16.094 58.5746 16.1006 58.7152C16.1073 58.8559 15.9869 61.7711 15.7558 63.3032C15.4789 65.1382 14.2267 68.0126 11.9897 69.8192C10.096 71.3485 10.635 72.2333 11.2508 72.4536C12.0219 72.7313 13.8329 72.5119 15.4837 69.3637Z" fill="#B14B57"/>
    <path d="M14.6236 61.9065C16.4124 57.9622 15.325 49.5329 15.0099 49.1641C14.6948 48.7952 14.6162 49.0474 14.6336 49.214C14.6511 49.3807 14.706 52.8522 14.5354 54.6881C14.3311 56.8869 13.0386 60.3873 10.5037 62.6865C8.35781 64.6328 9.05829 65.647 9.80471 65.8666C10.7396 66.1438 12.8762 65.7594 14.6236 61.9065Z" fill="#B14B57"/>
    <path d="M22.969 7.62678C25.3599 11.4367 33.2728 15.3019 33.7718 15.238C34.2708 15.1742 34.0975 14.9617 33.9434 14.8817C33.7892 14.8018 30.7547 12.8678 29.2639 11.671C27.4784 10.2377 25.1881 7.11355 24.6464 3.59299C24.1878 0.612774 22.9104 0.643823 22.2943 1.16861C21.5208 1.82469 20.6335 3.90513 22.969 7.62678Z" fill="#75895E"/>
    <path d="M13.8525 28.7582C14.0643 29.5512 13.5759 30.4578 12.7855 30.6703C11.9951 30.8828 11.0991 30.2871 10.8873 29.4941C10.6755 28.701 11.2511 27.8605 12.0415 27.648C12.8319 27.4355 13.6407 27.9651 13.8525 28.7582Z" fill="#DF980C"/>
    <path d="M11.0167 32.0815C11.2285 32.8746 10.9371 33.7 9.92744 34.0489C9.13705 34.2614 8.25847 33.6732 8.04669 32.8801C7.8349 32.087 8.35237 31.3229 9.14276 31.1104C9.93315 30.8979 10.805 31.2884 11.0167 32.0815Z" fill="#DF980C"/>
    <path d="M37.8581 21.3901C43.0259 23.3784 48.763 27.9706 50.9945 29.9952C51.3314 30.2965 51.8952 30.6718 52.41 30.4368C52.8218 30.2488 52.7125 29.6472 52.6063 29.3699C52.2079 28.3583 49.2212 24.249 38.632 20.1126C27.2578 15.6696 18.817 20.1494 16.4726 22.8108C13.7052 21.2435 11.6404 23.4586 11.4832 23.7873C11.3573 24.0502 11.4914 24.1239 11.5741 24.1279C12.8625 24.134 13.6165 24.3323 15.2174 25.3954C16.8183 26.4585 17.1861 28.4633 17.278 28.7576C17.3337 28.936 17.379 28.9163 17.4442 28.8798C19.5827 27.0171 18.4389 24.5956 17.5997 23.6177C23.3145 18.4653 31.7359 19.0346 37.8581 21.3901Z" fill="#75895E"/>
    <path d="M2.52738 26.8234C6.02842 24.7064 10.3419 24.5782 12.061 24.7788C12.7566 24.8969 12.6161 25.1636 12.4589 25.2822C9.15042 27.7092 6.72966 30.7733 5.51717 34.0769C4.30468 37.3804 6.61205 38.3948 10.0469 35.642C13.4817 32.8891 15.6942 29.4725 15.8072 28.03C15.8362 27.6603 16.1062 27.4275 16.3274 27.9631C18.2143 33.7243 15.7725 38.5571 13.7355 39.9751C12.155 41.0753 9.94487 39.2942 9.07176 38.3187C8.63744 39.7034 6.63474 41.452 5.5597 41.9428C4.48466 42.4335 1.5172 42.828 0.235588 39.4266C-0.789703 36.7055 1.77836 34.0556 3.19056 33.0708C1.82307 32.574 -1.84892 29.4695 2.52738 26.8234Z" fill="#B14B57"/>
    <path d="M29.9162 29.6006C38.6087 27.0255 45.2675 28.4626 47.1562 29.4083C47.2973 29.4602 49.7187 30.8696 45.6995 30.0411C39.321 28.7262 25.8673 29.9819 21.992 38.2027C18.1758 46.298 21.0054 50.7429 21.9998 62.6643C22.7953 72.2015 17.6297 76.143 14.9475 76.9216C13.3758 77.3585 11.0759 77.3078 14.4494 73.6099C18.6663 68.9874 18.6972 65.8336 18.1492 60.9432C17.6011 56.0528 16.8511 52.543 16.892 46.5883C16.933 40.6336 19.5865 32.6608 29.9162 29.6006Z" fill="#75895E"/>
</svg>
