<svg width="4056" height="6300" viewBox="0 0 4056 6300" fill="none" xmlns="http://www.w3.org/2000/svg">
<rect width="4056" height="6300" fill="white"/>
<path d="M1593.21 2745.81C1580.11 2746.14 1569.36 2743.79 1560.96 2738.75C1552.23 2733.71 1545.51 2726.32 1540.81 2716.58C1535.77 2707.17 1532.58 2695.58 1531.23 2681.81C1529.89 2668.37 1529.89 2653.59 1531.23 2637.47C1532.91 2625.04 1535.94 2612.1 1540.3 2598.67C1544 2587.24 1549.71 2574.65 1557.44 2560.87C1564.83 2547.1 1574.9 2533.66 1587.67 2520.56C1590.36 2521.23 1592.54 2522.07 1594.22 2523.08C1595.9 2523.75 1597.24 2524.59 1598.25 2525.6C1599.26 2526.94 1599.93 2528.12 1600.27 2529.13C1600.94 2532.82 1599.93 2537.02 1597.24 2541.72C1594.56 2546.43 1591.87 2551.47 1589.18 2556.84C1581.79 2572.29 1576.25 2586.91 1572.55 2600.68C1568.86 2614.45 1566.51 2627.22 1565.5 2638.98C1564.83 2649.06 1564.99 2658.13 1566 2666.19C1566.67 2674.59 1567.85 2681.64 1569.53 2687.35C1571.21 2693.4 1573.06 2697.93 1575.07 2700.96C1577.09 2704.32 1578.94 2706 1580.62 2706C1582.29 2706 1583.97 2704.82 1585.65 2702.47C1587.67 2700.12 1589.52 2697.26 1591.2 2693.9C1593.21 2690.54 1595.56 2685.34 1598.25 2678.28C1600.94 2671.56 1603.79 2663.67 1606.82 2654.6C1609.84 2645.53 1612.7 2635.79 1615.38 2625.37C1618.41 2614.62 1621.1 2603.87 1623.45 2593.12C1628.15 2571.62 1633.19 2547.43 1638.56 2520.56C1643.94 2493.35 1651.83 2464.96 1662.25 2435.4C1665.61 2422.97 1669.81 2409.36 1674.85 2394.58C1678.88 2381.82 1683.92 2367.04 1689.96 2350.24C1696.35 2333.11 1703.57 2314.63 1711.63 2294.81C1711.63 2293.13 1712.97 2291.62 1715.66 2290.27C1718.69 2288.59 1722.04 2286.92 1725.74 2285.24C1729.77 2283.56 1734.31 2281.88 1739.35 2280.2C1746.06 2277.84 1751.27 2276.5 1754.97 2276.17C1759 2275.83 1762.02 2276.33 1764.04 2277.68C1766.05 2279.02 1767.4 2280.87 1768.07 2283.22C1768.74 2285.24 1769.08 2287.59 1769.08 2290.27C1769.75 2301.36 1770.08 2311.77 1770.08 2321.52C1770.42 2331.26 1770.76 2339.83 1771.09 2347.22C1771.43 2355.95 1771.6 2363.84 1771.6 2370.9C1771.93 2380.31 1771.43 2392.9 1770.08 2408.69C1768.74 2424.15 1767.23 2440.44 1765.55 2457.57C1764.21 2474.7 1762.86 2491.5 1761.52 2507.96C1760.51 2524.09 1760.34 2537.52 1761.01 2548.27C1761.01 2553.99 1761.18 2559.36 1761.52 2564.4C1762.19 2569.1 1762.86 2573.81 1763.53 2578.51C1767.9 2566.42 1772.77 2553.82 1778.15 2540.72C1783.52 2527.28 1788.9 2514.51 1794.27 2502.42C1799.65 2489.99 1804.69 2478.57 1809.39 2468.15C1814.09 2457.4 1817.79 2448.5 1820.47 2441.45C1824.51 2432.04 1829.88 2420.11 1836.6 2405.67C1843.32 2391.22 1850.04 2376.78 1856.76 2362.33C1863.81 2347.89 1870.19 2334.62 1875.9 2322.52C1881.95 2310.43 1886.32 2302.03 1889.01 2297.33C1891.02 2293.97 1894.38 2290.95 1899.08 2288.26C1904.12 2285.57 1909.33 2283.22 1914.71 2281.2C1920.42 2279.19 1925.62 2277.84 1930.33 2277.17C1935.37 2276.17 1938.72 2276 1940.4 2276.67C1944.77 2277.68 1947.79 2279.02 1949.47 2280.7C1951.49 2282.38 1952.67 2283.56 1953 2284.23C1953.67 2285.57 1954.18 2287.92 1954.51 2291.28C1954.85 2294.31 1954.68 2299.18 1954.01 2305.9C1953.34 2313.96 1951.32 2326.22 1947.96 2342.68C1944.94 2359.14 1941.08 2377.95 1936.37 2399.12C1932.01 2419.95 1927.13 2442.29 1921.76 2466.14C1916.72 2489.99 1911.85 2513.5 1907.15 2536.68C1902.44 2559.53 1898.24 2581.03 1894.55 2601.18C1891.19 2621.34 1889.01 2638.31 1888 2652.08C1887.33 2667.53 1888.33 2681.14 1891.02 2692.9C1892.03 2697.93 1893.54 2702.81 1895.56 2707.51C1897.57 2712.21 1900.26 2716.24 1903.62 2719.6C1906.98 2723.3 1911.01 2725.99 1915.71 2727.67C1920.42 2729.34 1925.96 2729.85 1932.34 2729.18C1923.94 2734.89 1915.71 2739.09 1907.65 2741.77C1899.59 2744.46 1891.69 2745.81 1883.97 2745.81C1875.57 2746.14 1868.18 2744.8 1861.79 2741.77C1855.41 2739.09 1850.04 2735.06 1845.67 2729.68C1841.3 2724.64 1838.11 2718.43 1836.1 2711.04C1834.08 2703.98 1833.41 2696.09 1834.08 2687.35C1834.75 2679.29 1836.94 2666.02 1840.63 2647.54C1844.33 2629.07 1848.69 2608.24 1853.73 2585.06C1859.11 2561.54 1864.82 2537.19 1870.87 2511.99C1877.25 2486.46 1883.13 2462.61 1888.5 2440.44C1894.21 2417.93 1899.08 2398.61 1903.12 2382.49C1907.15 2366.36 1909.67 2355.78 1910.67 2350.74C1911.35 2346.71 1911.85 2343.02 1912.19 2339.66C1912.86 2335.96 1913.53 2332.77 1914.2 2330.08C1910.84 2336.8 1906.64 2344.86 1901.6 2354.27C1896.9 2363.68 1891.86 2373.75 1886.49 2384.5C1881.11 2395.25 1875.57 2406.51 1869.86 2418.27C1864.48 2429.69 1859.28 2440.77 1854.24 2451.52C1845.84 2468.99 1837.61 2486.97 1829.54 2505.44C1821.48 2523.58 1814.26 2540.88 1807.88 2557.34C1801.49 2573.81 1796.12 2588.59 1791.75 2601.69C1787.72 2614.79 1785.37 2624.87 1784.7 2631.92V2638.98C1784.7 2640.99 1784.7 2643.34 1784.7 2646.03C1785.03 2648.72 1785.54 2651.24 1786.21 2653.59L1766.05 2669.21C1763.03 2670.22 1760.34 2671.06 1757.99 2671.73C1755.97 2672.4 1753.96 2672.74 1751.94 2672.74C1744.22 2672.74 1738.34 2668.71 1734.31 2660.65C1730.28 2653.25 1726.58 2638.81 1723.22 2617.31C1719.86 2595.81 1718.85 2569.44 1720.2 2538.2C1720.87 2522.74 1721.88 2507.12 1723.22 2491.33C1724.9 2475.54 1726.41 2460.43 1727.76 2445.98C1729.44 2431.54 1730.95 2418.1 1732.29 2405.67C1733.63 2392.9 1734.31 2381.99 1734.31 2372.92C1734.64 2366.2 1734.47 2360.15 1733.8 2354.77C1733.13 2349.06 1732.46 2343.86 1731.79 2339.15C1728.76 2346.88 1725.4 2357.46 1721.71 2370.9C1718.01 2384 1714.15 2398.61 1710.12 2414.74C1706.09 2430.86 1701.89 2447.83 1697.52 2465.63C1693.49 2483.44 1689.46 2500.57 1685.43 2517.03C1681.73 2533.49 1678.21 2548.78 1674.85 2562.89C1671.49 2576.66 1668.8 2587.75 1666.78 2596.15C1663.42 2609.58 1660.06 2624.87 1656.71 2642C1653.35 2659.13 1649.15 2675.26 1644.11 2690.38C1639.07 2705.83 1632.52 2718.76 1624.46 2729.18C1616.39 2739.93 1605.98 2745.47 1593.21 2745.81ZM2218.56 2551.3C2213.86 2558.02 2207.81 2566.42 2200.42 2576.49C2193.03 2586.24 2185.3 2596.15 2177.24 2606.22C2169.51 2615.97 2161.79 2625.04 2154.06 2633.43C2146.67 2641.5 2140.46 2647.21 2135.42 2650.57C2132.06 2652.58 2128.19 2654.26 2123.83 2655.61C2119.46 2656.95 2114.92 2657.79 2110.22 2658.13C2105.85 2658.46 2101.65 2658.13 2097.62 2657.12C2093.59 2656.45 2090.06 2655.1 2087.04 2653.09C2084.02 2650.74 2081.5 2647.38 2079.48 2643.01C2077.8 2639.31 2076.12 2634.44 2074.44 2628.4C2073.1 2622.35 2072.6 2614.79 2072.93 2605.72C2064.87 2619.16 2055.97 2629.57 2046.22 2636.96C2036.48 2644.02 2027.24 2649.22 2018.51 2652.58C2008.43 2656.28 1998.35 2658.46 1988.28 2659.13C1983.57 2659.13 1978.53 2657.45 1973.16 2654.09C1967.78 2651.07 1963.25 2646.2 1959.55 2639.48C1955.86 2632.43 1953.51 2623.52 1952.5 2612.77C1951.49 2601.69 1952.83 2588.59 1956.53 2573.47C1961.23 2552.98 1968.62 2534.33 1978.7 2517.54C1989.12 2500.74 2000.37 2486.46 2012.46 2474.7C2024.56 2462.61 2036.48 2453.54 2048.24 2447.49C2060 2441.45 2069.74 2438.76 2077.47 2439.43C2086.54 2441.11 2093.93 2443.8 2099.64 2447.49C2104.34 2450.85 2107.37 2455.89 2108.71 2462.61C2110.39 2468.99 2107.7 2477.56 2100.65 2488.31C2105.35 2487.3 2109.21 2486.63 2112.24 2486.29C2115.6 2485.96 2118.12 2485.79 2119.79 2485.79C2121.81 2485.79 2123.15 2485.96 2123.83 2486.29C2124.16 2486.97 2124.33 2488.48 2124.33 2490.83C2124.33 2492.84 2123.83 2496.71 2122.82 2502.42C2121.81 2508.13 2120.3 2515.86 2118.28 2525.6C2116.27 2535.34 2113.58 2547.94 2110.22 2563.39C2109.55 2566.42 2108.88 2569.27 2108.21 2571.96C2107.87 2574.31 2107.37 2576.83 2106.69 2579.52C2106.36 2581.87 2105.85 2584.72 2105.18 2588.08C2104.51 2591.44 2103.67 2595.64 2102.66 2600.68C2102.33 2603.7 2102.16 2607.06 2102.16 2610.76C2102.49 2614.12 2103.17 2617.31 2104.17 2620.33C2105.18 2623.36 2106.69 2625.88 2108.71 2627.89C2111.06 2629.57 2114.25 2630.41 2118.28 2630.41C2121.64 2630.41 2126.01 2628.4 2131.38 2624.36C2136.76 2620 2142.47 2614.62 2148.52 2608.24C2154.56 2601.52 2160.78 2594.3 2167.16 2586.57C2173.88 2578.51 2180.1 2570.78 2185.81 2563.39C2191.52 2556 2196.56 2549.45 2200.92 2543.74C2205.63 2538.03 2208.99 2533.83 2211 2531.14C2213.69 2528.12 2216.38 2526.44 2219.06 2526.1C2221.75 2525.43 2223.77 2526.1 2225.11 2528.12C2226.46 2530.13 2226.62 2533.16 2225.62 2537.19C2224.94 2541.22 2222.59 2545.92 2218.56 2551.3ZM2070.92 2573.47C2072.6 2566.75 2074.61 2558.86 2076.96 2549.79C2079.31 2540.72 2081.33 2531.98 2083.01 2523.58C2084.69 2515.18 2085.87 2508.3 2086.54 2502.92C2087.54 2497.21 2087.38 2494.52 2086.03 2494.86C2084.35 2495.2 2082.51 2495.7 2080.49 2496.37C2078.81 2497.04 2076.63 2497.55 2073.94 2497.88C2071.25 2498.22 2068.56 2498.72 2065.88 2499.4C2068.56 2494.02 2070.08 2489.65 2070.41 2486.29C2071.08 2482.6 2071.25 2479.74 2070.92 2477.73C2070.58 2475.38 2069.91 2473.53 2068.9 2472.18C2065.21 2469.16 2058.65 2471.68 2049.25 2479.74C2040.18 2487.47 2029.6 2501.92 2017.5 2523.08C2012.46 2531.81 2008.43 2541.22 2005.41 2551.3C2002.38 2561.04 2000.2 2570.28 1998.86 2579.01C1997.85 2587.75 1997.68 2595.47 1998.35 2602.19C1999.03 2608.58 2000.37 2612.77 2002.38 2614.79C2006.08 2618.49 2010.28 2620.33 2014.98 2620.33C2019.69 2620 2024.39 2618.65 2029.09 2616.3C2034.13 2613.61 2039 2610.25 2043.71 2606.22C2048.74 2602.19 2053.11 2597.99 2056.81 2593.63C2060.84 2589.26 2064.03 2585.23 2066.38 2581.53C2069.07 2577.84 2070.58 2575.15 2070.92 2573.47ZM2370.74 2524.09C2372.08 2522.07 2373.76 2520.9 2375.78 2520.56C2378.13 2519.89 2379.98 2520.06 2381.32 2521.06C2382.67 2522.07 2383.34 2523.75 2383.34 2526.1C2383.67 2528.45 2382.83 2531.65 2380.82 2535.68C2374.1 2548.44 2365.2 2562.22 2354.11 2577C2343.36 2591.78 2331.94 2605.72 2319.85 2618.82C2307.75 2631.59 2295.99 2642.17 2284.57 2650.57C2273.15 2658.97 2263.58 2663.17 2255.85 2663.17C2244.76 2663.17 2235.53 2660.98 2228.13 2656.61C2220.74 2652.25 2214.87 2646.87 2210.5 2640.49C2206.47 2634.11 2203.61 2627.22 2201.93 2619.83C2200.25 2612.1 2199.75 2605.05 2200.42 2598.67C2200.76 2593.29 2201.93 2583.72 2203.95 2569.94C2205.96 2555.83 2208.65 2539.71 2212.01 2521.57C2215.37 2503.09 2219.06 2483.44 2223.1 2462.61C2227.46 2441.45 2232 2421.12 2236.7 2401.64C2230.99 2402.31 2225.28 2402.98 2219.57 2403.65C2213.86 2404.33 2208.65 2404.66 2203.95 2404.66C2193.2 2404.66 2183.12 2403.49 2173.71 2401.13C2163.97 2398.45 2156.75 2395.93 2152.04 2393.58C2149.36 2392.23 2148.18 2390.38 2148.52 2388.03C2148.85 2385.34 2149.86 2382.83 2151.54 2380.47C2153.22 2377.79 2155.4 2375.6 2158.09 2373.92C2160.44 2371.91 2162.63 2370.9 2164.64 2370.9C2171.03 2371.57 2177.91 2372.24 2185.3 2372.92C2192.69 2373.25 2200.76 2373.25 2209.49 2372.92C2215.87 2372.58 2221.92 2372.08 2227.63 2371.4C2233.68 2370.73 2239.56 2369.89 2245.27 2368.88C2249.63 2352.76 2253.83 2338.82 2257.87 2327.06C2262.23 2314.97 2266.1 2306.57 2269.46 2301.86C2270.46 2300.18 2272.65 2298.84 2276.01 2297.83C2279.7 2296.49 2283.56 2295.65 2287.6 2295.31C2291.63 2294.64 2295.49 2294.64 2299.19 2295.31C2302.88 2295.65 2305.57 2296.83 2307.25 2298.84C2308.93 2301.53 2309.6 2308.42 2309.26 2319.5C2308.93 2330.59 2307.08 2344.7 2303.72 2361.83C2317.83 2361.83 2330.26 2362.67 2341.01 2364.35C2352.1 2365.69 2361.5 2367.37 2369.23 2369.39C2376.96 2371.07 2383.17 2372.92 2387.87 2374.93C2392.58 2376.61 2396.1 2377.79 2398.46 2378.46C2400.81 2379.13 2401.98 2380.81 2401.98 2383.5C2402.32 2386.18 2401.81 2389.04 2400.47 2392.06C2399.46 2394.75 2397.62 2397.1 2394.93 2399.12C2392.24 2401.13 2389.22 2401.81 2385.86 2401.13C2382.5 2400.8 2378.63 2400.13 2374.27 2399.12C2370.24 2398.11 2365.2 2397.27 2359.15 2396.6C2353.44 2395.93 2346.55 2395.25 2338.49 2394.58C2330.43 2393.91 2321.02 2393.58 2310.27 2393.58C2308.26 2393.58 2305.9 2393.74 2303.22 2394.08C2300.87 2394.08 2298.35 2394.08 2295.66 2394.08C2294.31 2399.45 2292.97 2404.83 2291.63 2410.2C2290.62 2415.24 2289.11 2420.62 2287.09 2426.33C2282.72 2439.77 2277.69 2454.38 2271.97 2470.17C2266.94 2483.94 2260.89 2499.73 2253.83 2517.54C2246.78 2535.34 2238.88 2554.32 2230.15 2574.48C2228.13 2588.92 2228.3 2600.01 2230.65 2607.74C2233.34 2615.13 2236.53 2620.5 2240.23 2623.86C2244.6 2627.56 2249.97 2629.57 2256.35 2629.91C2261.39 2630.58 2267.44 2628.9 2274.49 2624.87C2281.88 2620.5 2289.44 2614.79 2297.17 2607.74C2304.9 2600.68 2312.62 2592.95 2320.35 2584.56C2328.41 2576.16 2335.8 2567.93 2342.52 2559.86C2349.24 2551.8 2355.12 2544.58 2360.16 2538.2C2365.2 2531.48 2368.72 2526.77 2370.74 2524.09ZM2411.56 2634.44C2413.57 2635.79 2416.09 2636.46 2419.12 2636.46C2422.47 2636.46 2425.67 2635.79 2428.69 2634.44C2432.05 2633.1 2435.07 2631.25 2437.76 2628.9C2440.78 2626.55 2442.97 2623.52 2444.31 2619.83C2445.65 2616.13 2445.65 2610.93 2444.31 2604.21C2442.97 2597.15 2440.78 2589.76 2437.76 2582.04C2435.07 2573.97 2432.05 2565.91 2428.69 2557.85C2425.33 2549.79 2422.47 2542.4 2420.12 2535.68C2418.11 2530.64 2416.43 2525.93 2415.08 2521.57C2413.74 2517.87 2412.4 2514.34 2411.05 2510.99C2410.04 2507.29 2409.21 2504.77 2408.53 2503.43C2406.85 2506.11 2403.83 2510.48 2399.46 2516.53C2395.43 2522.58 2390.9 2528.96 2385.86 2535.68C2381.15 2542.06 2376.62 2548.11 2372.25 2553.82C2367.88 2559.19 2364.86 2562.89 2363.18 2564.9C2360.49 2567.93 2357.81 2569.77 2355.12 2570.45C2352.77 2570.78 2350.75 2570.28 2349.07 2568.93C2347.39 2567.25 2346.38 2565.07 2346.05 2562.38C2346.05 2559.36 2347.39 2555.83 2350.08 2551.8C2352.1 2549.11 2355.12 2544.92 2359.15 2539.2C2363.18 2533.16 2367.21 2527.11 2371.24 2521.06C2375.28 2514.68 2378.97 2509.14 2382.33 2504.43C2385.69 2499.4 2387.54 2496.37 2387.87 2495.36C2388.54 2492.68 2387.54 2489.15 2384.85 2484.78C2382.5 2480.42 2382.16 2475.38 2383.84 2469.67C2385.19 2464.96 2388.21 2459.59 2392.91 2453.54C2397.62 2447.16 2403.16 2441.45 2409.54 2436.41C2415.92 2431.37 2422.47 2427.67 2429.19 2425.32C2435.91 2422.63 2441.96 2422.63 2447.33 2425.32C2451.7 2428.01 2455.23 2431.03 2457.92 2434.39C2460.6 2437.42 2461.61 2440.61 2460.94 2443.97C2460.27 2445.65 2459.26 2447.83 2457.92 2450.52C2456.57 2453.2 2454.56 2456.56 2451.87 2460.59C2449.18 2464.29 2445.32 2469.16 2440.28 2475.21C2441.29 2482.93 2442.63 2489.99 2444.31 2496.37C2446.33 2502.75 2448.17 2508.3 2449.85 2513C2451.87 2518.71 2454.05 2523.92 2456.4 2528.62C2459.43 2534.67 2462.62 2540.88 2465.98 2547.27C2469.34 2553.65 2472.36 2560.03 2475.05 2566.42C2477.74 2572.46 2479.92 2578.17 2481.6 2583.55C2483.28 2588.92 2483.78 2593.46 2483.11 2597.15C2482.1 2602.86 2479.08 2609.75 2474.04 2617.81C2469.34 2625.88 2463.29 2633.77 2455.9 2641.5C2448.85 2648.89 2440.62 2655.27 2431.21 2660.65C2422.14 2666.02 2412.56 2668.71 2402.49 2668.71C2395.43 2668.71 2388.54 2666.52 2381.83 2662.16C2375.44 2657.79 2369.9 2652.75 2365.2 2647.04C2360.83 2640.99 2357.47 2635.11 2355.12 2629.4C2353.1 2623.69 2352.94 2619.33 2354.62 2616.3C2356.63 2612.27 2358.48 2609.08 2360.16 2606.73C2361.84 2604.38 2364.36 2601.69 2367.72 2598.67C2369.06 2597.66 2370.74 2596.48 2372.76 2595.14C2374.44 2594.13 2376.79 2593.12 2379.81 2592.11C2382.83 2591.11 2386.36 2589.93 2390.39 2588.59C2393.75 2599 2396.78 2607.23 2399.46 2613.28C2402.15 2618.99 2404.33 2623.52 2406.01 2626.88C2408.03 2630.58 2409.88 2633.1 2411.56 2634.44Z" fill="#571E25"/>
<path d="M1649.18 4219.26C1648.72 4215.8 1645.72 4213.15 1640.19 4211.3C1634.88 4209.46 1629 4208.07 1622.54 4207.15C1614.92 4206.23 1606.5 4205.65 1597.27 4205.42C1590.58 4205.42 1584.35 4205.76 1578.59 4206.46C1573.51 4206.92 1568.55 4207.73 1563.7 4208.88C1559.09 4210.26 1555.86 4211.99 1554.01 4214.07C1551.01 4216.38 1547.09 4216.95 1542.25 4215.8C1537.4 4214.65 1534.17 4210.72 1532.56 4204.03C1532.1 4201.5 1531.4 4199.07 1530.48 4196.77C1529.79 4194.92 1529.1 4192.96 1528.4 4190.88C1527.48 4188.81 1526.44 4187.19 1525.29 4186.04C1528.75 4179.12 1532.44 4172.89 1536.36 4167.35C1540.52 4161.81 1545.02 4156.39 1549.86 4151.08C1554.94 4145.78 1560.47 4140.47 1566.47 4135.17C1572.7 4129.86 1579.62 4123.86 1587.24 4117.17C1594.39 4111.17 1601.89 4104.02 1609.73 4095.71C1617.81 4087.41 1625.19 4078.06 1631.88 4067.68C1638.8 4057.3 1644.57 4045.99 1649.18 4033.77C1654.03 4021.31 1656.8 4007.93 1657.49 3993.62C1657.95 3981.86 1655.87 3973.67 1651.26 3969.05C1646.88 3964.44 1641.34 3962.13 1634.65 3962.13C1631.42 3962.13 1627.73 3963.51 1623.57 3966.28C1619.42 3968.82 1615.38 3972.51 1611.46 3977.36C1607.77 3981.97 1604.43 3987.39 1601.43 3993.62C1598.66 3999.85 1597.16 4006.43 1596.93 4013.35C1596.7 4015.19 1596.81 4016.92 1597.27 4018.54C1597.73 4019.92 1598.2 4021.31 1598.66 4022.69C1599.35 4023.85 1600.39 4024.77 1601.77 4025.46C1598.08 4028.46 1594.39 4030.42 1590.7 4031.34C1588.85 4031.81 1587.12 4032.04 1585.51 4032.04C1583.66 4032.04 1581.47 4031.92 1578.93 4031.69C1576.39 4031.23 1573.97 4030.42 1571.66 4029.27C1569.59 4027.88 1567.74 4025.92 1566.13 4023.38C1564.74 4020.85 1564.17 4017.39 1564.4 4013C1564.63 4008.62 1566.47 4002.74 1569.93 3995.35C1573.62 3987.97 1579.05 3980.82 1586.2 3973.9C1593.58 3966.74 1602.69 3960.63 1613.54 3955.55C1624.38 3950.48 1637.07 3947.94 1651.61 3947.94C1661.3 3947.94 1668.68 3950.02 1673.75 3954.17C1679.06 3958.32 1682.87 3963.28 1685.18 3969.05C1687.48 3974.82 1688.75 3980.7 1688.98 3986.7C1689.21 3992.47 1689.21 3997.2 1688.98 4000.89C1688.52 4010.58 1686.21 4020.5 1682.06 4030.65C1678.14 4040.8 1672.95 4050.84 1666.49 4060.76C1660.26 4070.68 1653.11 4080.37 1645.03 4089.83C1637.19 4099.29 1629.23 4108.17 1621.15 4116.48C1613.08 4124.78 1605.12 4132.4 1597.27 4139.32C1589.66 4146.24 1582.97 4152.12 1577.2 4156.97C1570.97 4162.27 1566.13 4167.58 1562.67 4172.89C1559.44 4178.19 1557.01 4183.15 1555.4 4187.77C1560.94 4185 1568.55 4182.23 1578.24 4179.46C1587.93 4176.69 1599 4175.31 1611.46 4175.31C1618.84 4175.31 1625.65 4175.66 1631.88 4176.35C1637.19 4176.81 1642.26 4177.73 1647.11 4179.12C1651.95 4180.27 1655.3 4182 1657.14 4184.31C1657.6 4186.85 1657.84 4189.15 1657.84 4191.23C1657.84 4193.31 1657.72 4195.27 1657.49 4197.11C1657.26 4199.19 1656.91 4201.03 1656.45 4202.65C1655.99 4204.5 1655.41 4206.34 1654.72 4208.19C1653.57 4211.42 1651.72 4215.11 1649.18 4219.26ZM1808.38 3947.94C1817.14 3947.94 1824.64 3951.29 1830.87 3957.98C1837.33 3964.44 1842.41 3973.09 1846.1 3983.93C1849.79 3994.54 1852.1 4006.89 1853.02 4020.96C1854.17 4034.8 1853.94 4049.11 1852.33 4063.87C1848.87 4093.64 1842.98 4118.44 1834.68 4138.28C1826.37 4157.89 1817.26 4173.58 1807.34 4185.35C1797.65 4196.88 1787.73 4205.07 1777.58 4209.92C1767.66 4214.76 1759.12 4217.18 1751.97 4217.18C1746.43 4217.18 1740.89 4215.45 1735.36 4211.99C1730.05 4208.53 1725.2 4203 1720.82 4195.38C1716.44 4187.77 1712.86 4178.08 1710.09 4166.31C1707.32 4154.31 1705.82 4139.9 1705.59 4123.05C1705.36 4112.44 1706.52 4100.79 1709.05 4088.1C1711.59 4075.18 1715.05 4062.26 1719.44 4049.34C1724.05 4036.19 1729.47 4023.61 1735.7 4011.62C1742.16 3999.39 1749.2 3988.55 1756.81 3979.09C1764.43 3969.63 1772.62 3962.13 1781.38 3956.59C1790.15 3950.82 1799.15 3947.94 1808.38 3947.94ZM1825.68 4054.53C1825.68 4053.38 1825.91 4050.49 1826.37 4045.88C1826.83 4041.03 1827.06 4035.5 1827.06 4029.27C1827.3 4022.81 1827.18 4016.12 1826.72 4009.2C1826.49 4002.27 1825.57 3995.93 1823.95 3990.16C1822.34 3984.16 1819.91 3979.32 1816.68 3975.63C1813.68 3971.7 1809.65 3969.74 1804.57 3969.74C1799.49 3969.74 1793.03 3974.13 1785.19 3982.89C1777.58 3991.66 1770.08 4003.77 1762.7 4019.23C1755.54 4034.69 1749.31 4053.15 1744.01 4074.6C1738.93 4095.83 1736.51 4119.02 1736.74 4144.16C1736.74 4146.7 1736.97 4150.85 1737.43 4156.62C1738.12 4162.16 1739.16 4167.81 1740.55 4173.58C1742.16 4179.35 1744.35 4184.42 1747.12 4188.81C1749.89 4193.19 1753.47 4195.38 1757.85 4195.38C1764.54 4195.38 1771.46 4191.11 1778.61 4182.58C1786 4173.81 1792.8 4162.62 1799.03 4149.01C1805.49 4135.4 1811.03 4120.28 1815.64 4103.67C1820.49 4086.83 1823.83 4070.45 1825.68 4054.53Z" fill="#571E25"/>
<path d="M1977.75 3980.95C1976.53 3985.65 1975.14 3990.77 1973.57 3996.34C1972.18 4001.73 1971.05 4007.29 1970.18 4013.03C1969.31 4018.76 1968.79 4024.5 1968.62 4030.24C1968.62 4035.97 1969.4 4041.45 1970.97 4046.67C1969.4 4047.54 1967.58 4048.14 1965.49 4048.49C1963.4 4049.01 1961.4 4049.36 1959.49 4049.53C1957.41 4049.88 1955.23 4049.97 1952.97 4049.8C1950.02 4049.8 1947.76 4049.19 1946.19 4047.97C1944.63 4046.75 1943.5 4045.19 1942.8 4043.28C1942.28 4041.19 1942.19 4038.84 1942.54 4036.24C1942.89 4033.45 1943.59 4030.59 1944.63 4027.63C1946.37 4021.72 1949.93 4009.46 1955.32 3990.86C1960.88 3972.26 1966.79 3946.79 1973.05 3914.46C1974.1 3908.89 1974.96 3904.03 1975.66 3899.85C1976.53 3895.51 1977.31 3891.86 1978.01 3888.9C1975.57 3887.34 1973.14 3885.51 1970.71 3883.43C1968.27 3881.17 1966.36 3879.08 1964.97 3877.17C1965.14 3876.65 1966.45 3874.99 1968.88 3872.21C1971.49 3869.43 1974.44 3866.48 1977.75 3863.35C1981.05 3860.22 1984.35 3857.44 1987.66 3855C1990.96 3852.57 1993.65 3851.35 1995.74 3851.35C1996.61 3851.35 1997.65 3851.79 1998.87 3852.65C2000.26 3853.52 2001.56 3854.57 2002.78 3855.78C2004.17 3856.83 2005.21 3858.04 2005.91 3859.43C2006.78 3860.65 2007.13 3861.69 2006.95 3862.56L1977.75 3980.95ZM2067.19 4017.46C2068.58 4011.2 2070.41 4003.73 2072.67 3995.03C2074.93 3986.34 2077.27 3977.21 2079.71 3967.65C2071.01 3968 2062.06 3968.7 2052.85 3969.74C2043.63 3970.78 2033.64 3972.78 2022.86 3975.74C2021.47 3974.87 2020.25 3973.74 2019.21 3972.35C2018.17 3970.96 2017.21 3969.65 2016.34 3968.44C2015.47 3967.04 2014.6 3965.57 2013.73 3964C2012.17 3960.53 2011.3 3957.31 2011.12 3954.35C2010.95 3951.22 2012.34 3948.44 2015.3 3946.01C2016.86 3944.79 2018.95 3942.79 2021.56 3940.01C2024.34 3937.23 2027.55 3933.84 2031.2 3929.84C2034.85 3925.84 2038.85 3921.32 2043.2 3916.28C2047.72 3911.24 2052.5 3905.85 2057.54 3900.11C2067.45 3888.64 2074.84 3879.77 2079.71 3873.52C2084.57 3867.08 2087.36 3862.56 2088.05 3859.96C2092.22 3858.22 2095.96 3856.91 2099.26 3856.04C2102.57 3855 2105.44 3854.13 2107.87 3853.44L2114.91 3851.87C2119.95 3851 2123.08 3851.35 2124.3 3852.92C2125.51 3854.48 2125.43 3857.78 2124.04 3862.82C2123.34 3865.26 2122.21 3869.6 2120.65 3875.86C2119.08 3881.95 2117.26 3888.99 2115.17 3896.99C2113.26 3904.98 2111.26 3913.59 2109.17 3922.8C2107.26 3931.84 2105.44 3940.53 2103.7 3948.88C2106.3 3949.23 2108.65 3949.83 2110.74 3950.7C2112.82 3951.4 2114.56 3952.44 2115.95 3953.83C2117.34 3955.05 2118.13 3956.7 2118.3 3958.79C2118.65 3960.7 2118.3 3963.05 2117.26 3965.83C2116.91 3966.87 2116.39 3968.09 2115.69 3969.48C2114.65 3971.91 2113.35 3975.04 2111.78 3978.87C2110.91 3977.48 2109.87 3976.26 2108.65 3975.22C2107.43 3974 2106.13 3972.96 2104.74 3972.09C2103.18 3971.22 2101.61 3970.43 2100.05 3969.74C2097.44 3985.39 2095.35 3999.73 2093.79 4012.77C2092.22 4025.8 2091.62 4036.24 2091.96 4044.06C2089.88 4045.97 2087.7 4047.36 2085.44 4048.23C2083.36 4049.27 2081.45 4049.97 2079.71 4050.32C2077.62 4050.84 2075.62 4051.1 2073.71 4051.1C2069.54 4051.1 2066.76 4049.8 2065.36 4047.19C2063.97 4044.75 2063.37 4041.54 2063.54 4037.54C2063.71 4034.41 2064.15 4031.11 2064.84 4027.63C2065.54 4023.98 2066.32 4020.59 2067.19 4017.46ZM2049.2 3953.31C2057.37 3952.96 2064.15 3952.44 2069.54 3951.75C2075.1 3950.88 2080.05 3950.18 2084.4 3949.66C2085.97 3943.58 2087.44 3937.66 2088.83 3931.93C2090.4 3926.19 2091.88 3920.8 2093.27 3915.76C2096.05 3905.5 2098.31 3896.72 2100.05 3889.42C2101.78 3882.12 2103.18 3876.12 2104.22 3871.43C2102.13 3874.04 2099.61 3877.08 2096.66 3880.56C2093.88 3884.03 2090.83 3887.77 2087.53 3891.77C2084.23 3895.59 2080.84 3899.59 2077.36 3903.77C2074.06 3907.76 2070.84 3911.59 2067.71 3915.24C2061.8 3922.37 2055.8 3929.49 2049.72 3936.62C2043.63 3943.58 2038.51 3949.57 2034.33 3954.61C2036.25 3954.27 2038.42 3954.09 2040.85 3954.09C2043.46 3953.92 2046.24 3953.66 2049.2 3953.31Z" fill="#571E25"/>
<path d="M1999.11 4363.26C1994.94 4363.26 1990.6 4362.04 1986.08 4359.61C1981.73 4357.35 1977.73 4353.61 1974.08 4348.39C1970.6 4343 1967.65 4335.96 1965.21 4327.27C1962.95 4318.58 1961.74 4307.89 1961.56 4295.2C1961.39 4287.2 1962.35 4278.33 1964.43 4268.6C1966.52 4258.86 1969.39 4249.04 1973.04 4239.13C1976.86 4229.05 1981.38 4219.31 1986.6 4209.93C1991.81 4200.54 1997.46 4192.19 2003.55 4184.89C2009.81 4177.59 2016.32 4171.77 2023.1 4167.42C2030.06 4162.9 2037.19 4160.64 2044.49 4160.64C2052.66 4160.64 2058.22 4162.38 2061.18 4165.86C2064.31 4169.33 2066.31 4173.94 2067.17 4179.68C2067.52 4182.11 2067.7 4184.81 2067.7 4187.76C2067.87 4190.54 2067.61 4193.32 2066.91 4196.11C2066.39 4198.89 2065.44 4201.49 2064.05 4203.93C2062.65 4206.19 2060.74 4208.01 2058.31 4209.4C2056.22 4210.45 2054.14 4211.23 2052.05 4211.75C2050.14 4212.27 2047.96 4212.53 2045.53 4212.53C2043.1 4212.53 2040.58 4212.1 2037.97 4211.23C2040.92 4206.36 2043.18 4201.76 2044.75 4197.41C2046.31 4192.89 2047.18 4188.98 2047.36 4185.67C2047.7 4182.2 2047.27 4179.5 2046.05 4177.59C2045.01 4175.5 2043.36 4174.46 2041.1 4174.46C2037.97 4174.46 2034.14 4176.46 2029.62 4180.46C2025.28 4184.46 2020.67 4190.11 2015.8 4197.41C2011.11 4204.54 2006.5 4213.14 2001.98 4223.22C1997.46 4233.31 1993.72 4244.52 1990.77 4256.86C1997.2 4247.48 2003.98 4240.87 2011.11 4237.05C2018.24 4233.05 2024.41 4231.05 2029.62 4231.05C2032.58 4231.05 2035.97 4231.57 2039.79 4232.61C2043.62 4233.66 2047.18 4235.83 2050.49 4239.13C2053.79 4242.26 2056.57 4246.69 2058.83 4252.43C2061.26 4258.17 2062.48 4265.73 2062.48 4275.12C2062.48 4284.51 2060.83 4294.41 2057.53 4304.85C2054.22 4315.1 2049.62 4324.58 2043.71 4333.27C2037.97 4341.96 2031.19 4349.18 2023.37 4354.91C2015.72 4360.48 2007.63 4363.26 1999.11 4363.26ZM1987.64 4273.03C1986.77 4278.59 1986.08 4284.42 1985.55 4290.5C1985.21 4296.41 1985.03 4302.5 1985.03 4308.76C1985.03 4310.67 1985.29 4313.8 1985.81 4318.14C1986.34 4322.49 1987.21 4326.84 1988.42 4331.18C1989.81 4335.53 1991.64 4339.35 1993.9 4342.66C1996.16 4345.96 1999.11 4347.61 2002.76 4347.61C2007.63 4347.61 2012.41 4344.83 2017.11 4339.27C2021.8 4333.53 2025.97 4326.58 2029.62 4318.41C2033.45 4310.06 2036.4 4301.37 2038.49 4292.33C2040.75 4283.11 2041.88 4274.94 2041.88 4267.82C2041.71 4260.69 2040.58 4255.13 2038.49 4251.13C2036.58 4246.95 2033.45 4244.87 2029.1 4244.87C2025.45 4244.87 2022.15 4246.09 2019.19 4248.52C2016.41 4250.95 2013.89 4253.91 2011.63 4257.39C2009.37 4260.69 2007.46 4264.17 2005.89 4267.82C2004.33 4271.47 2003.03 4274.6 2001.98 4277.2C2000.07 4281.72 1998.51 4284.16 1997.29 4284.51C1996.25 4284.68 1994.59 4283.55 1992.33 4281.12C1991.12 4280.25 1990.16 4279.12 1989.47 4277.73C1988.77 4276.16 1988.16 4274.6 1987.64 4273.03Z" fill="#571E25"/>
<path d="M2126.44 4117.06C2113.67 4116.92 2097.48 4116.92 2077.87 4117.06C2058.26 4117.06 2038.88 4117.13 2019.72 4117.27C2006.95 4117.41 1993.95 4117.7 1980.73 4118.12C1969.33 4118.4 1956.79 4118.83 1943.1 4119.39C1929.42 4119.96 1916.42 4120.81 1904.11 4121.94C1903.65 4120.81 1903.65 4119.75 1904.11 4118.76C1904.57 4117.63 1905.25 4116.56 1906.16 4115.57C1907.07 4114.44 1907.99 4113.38 1908.9 4112.39C1910.72 4110.97 1913.23 4109.49 1916.42 4107.93C1920.07 4106.37 1923.26 4105.38 1926 4104.96C1928.28 4104.67 1932.84 4104.39 1939.68 4104.11C1946.98 4103.83 1955.42 4103.61 1964.99 4103.47C1975.03 4103.19 1985.97 4102.98 1997.83 4102.83C2010.14 4102.69 2022.23 4102.62 2034.09 4102.62C2058.26 4102.48 2078.33 4102.55 2094.29 4102.83C2110.25 4102.98 2125.53 4103.26 2140.12 4103.68C2146.51 4103.97 2150.16 4104.6 2151.07 4105.59C2152.44 4106.59 2151.75 4108.35 2149.02 4110.9C2146.28 4113.31 2143.32 4115.01 2140.12 4116C2136.93 4116.85 2132.37 4117.2 2126.44 4117.06Z" fill="#DF980C"/>
<path d="M2314.56 4219.26C2314.09 4215.8 2311.09 4213.15 2305.56 4211.3C2300.25 4209.46 2294.37 4208.07 2287.91 4207.15C2280.29 4206.23 2271.87 4205.65 2262.64 4205.42C2255.95 4205.42 2249.72 4205.76 2243.96 4206.46C2238.88 4206.92 2233.92 4207.73 2229.08 4208.88C2224.46 4210.26 2221.23 4211.99 2219.39 4214.07C2216.39 4216.38 2212.46 4216.95 2207.62 4215.8C2202.77 4214.65 2199.54 4210.72 2197.93 4204.03C2197.47 4201.5 2196.78 4199.07 2195.85 4196.77C2195.16 4194.92 2194.47 4192.96 2193.78 4190.88C2192.85 4188.81 2191.82 4187.19 2190.66 4186.04C2194.12 4179.12 2197.81 4172.89 2201.74 4167.35C2205.89 4161.81 2210.39 4156.39 2215.23 4151.08C2220.31 4145.78 2225.85 4140.47 2231.84 4135.17C2238.07 4129.86 2245 4123.86 2252.61 4117.17C2259.76 4111.17 2267.26 4104.02 2275.1 4095.71C2283.18 4087.41 2290.56 4078.06 2297.25 4067.68C2304.17 4057.3 2309.94 4045.99 2314.56 4033.77C2319.4 4021.31 2322.17 4007.93 2322.86 3993.62C2323.32 3981.86 2321.25 3973.67 2316.63 3969.05C2312.25 3964.44 2306.71 3962.13 2300.02 3962.13C2296.79 3962.13 2293.1 3963.51 2288.95 3966.28C2284.79 3968.82 2280.76 3972.51 2276.83 3977.36C2273.14 3981.97 2269.8 3987.39 2266.8 3993.62C2264.03 3999.85 2262.53 4006.43 2262.3 4013.35C2262.07 4015.19 2262.18 4016.92 2262.64 4018.54C2263.11 4019.92 2263.57 4021.31 2264.03 4022.69C2264.72 4023.85 2265.76 4024.77 2267.14 4025.46C2263.45 4028.46 2259.76 4030.42 2256.07 4031.34C2254.22 4031.81 2252.49 4032.04 2250.88 4032.04C2249.03 4032.04 2246.84 4031.92 2244.3 4031.69C2241.77 4031.23 2239.34 4030.42 2237.04 4029.27C2234.96 4027.88 2233.11 4025.92 2231.5 4023.38C2230.11 4020.85 2229.54 4017.39 2229.77 4013C2230 4008.62 2231.84 4002.74 2235.31 3995.35C2239 3987.97 2244.42 3980.82 2251.57 3973.9C2258.95 3966.74 2268.07 3960.63 2278.91 3955.55C2289.75 3950.48 2302.44 3947.94 2316.98 3947.94C2326.67 3947.94 2334.05 3950.02 2339.13 3954.17C2344.43 3958.32 2348.24 3963.28 2350.55 3969.05C2352.85 3974.82 2354.12 3980.7 2354.35 3986.7C2354.58 3992.47 2354.58 3997.2 2354.35 4000.89C2353.89 4010.58 2351.59 4020.5 2347.43 4030.65C2343.51 4040.8 2338.32 4050.84 2331.86 4060.76C2325.63 4070.68 2318.48 4080.37 2310.4 4089.83C2302.56 4099.29 2294.6 4108.17 2286.52 4116.48C2278.45 4124.78 2270.49 4132.4 2262.64 4139.32C2255.03 4146.24 2248.34 4152.12 2242.57 4156.97C2236.34 4162.27 2231.5 4167.58 2228.04 4172.89C2224.81 4178.19 2222.38 4183.15 2220.77 4187.77C2226.31 4185 2233.92 4182.23 2243.61 4179.46C2253.3 4176.69 2264.38 4175.31 2276.83 4175.31C2284.22 4175.31 2291.02 4175.66 2297.25 4176.35C2302.56 4176.81 2307.63 4177.73 2312.48 4179.12C2317.32 4180.27 2320.67 4182 2322.52 4184.31C2322.98 4186.85 2323.21 4189.15 2323.21 4191.23C2323.21 4193.31 2323.09 4195.27 2322.86 4197.11C2322.63 4199.19 2322.28 4201.03 2321.82 4202.65C2321.36 4204.5 2320.78 4206.34 2320.09 4208.19C2318.94 4211.42 2317.09 4215.11 2314.56 4219.26ZM2414.22 3961.78C2414.46 3961.55 2414.57 3961.55 2414.57 3961.78H2414.22ZM2450.56 3980.47C2444.1 3980.47 2438.33 3981.05 2433.26 3982.2C2431.64 3986.82 2429.68 3992.7 2427.38 3999.85C2425.07 4007 2422.53 4014.85 2419.76 4023.38C2417.22 4031.69 2414.69 4040.34 2412.15 4049.34C2409.84 4058.34 2407.76 4067.1 2405.92 4075.64C2408.23 4072.87 2411.11 4069.99 2414.57 4066.99C2418.03 4063.76 2421.95 4060.88 2426.34 4058.34C2430.72 4055.57 2435.45 4053.26 2440.53 4051.42C2445.6 4049.57 2450.91 4048.65 2456.45 4048.65C2464.06 4048.65 2470.4 4050.03 2475.48 4052.8C2480.79 4055.57 2484.82 4059.38 2487.59 4064.22C2490.59 4068.84 2492.55 4074.26 2493.47 4080.49C2494.63 4086.72 2494.86 4093.18 2494.17 4099.87C2493.01 4113.94 2489.78 4128.01 2484.48 4142.09C2479.17 4156.16 2472.36 4168.85 2464.06 4180.15C2455.75 4191.23 2446.29 4200.34 2435.68 4207.49C2425.07 4214.42 2413.99 4217.88 2402.46 4217.88C2396.46 4217.88 2390.81 4216.49 2385.5 4213.72C2380.42 4211.19 2375.93 4207.84 2372 4203.69C2368.08 4199.53 2364.97 4194.92 2362.66 4189.84C2360.58 4184.54 2359.78 4179.35 2360.24 4174.27C2360.93 4164.81 2366.35 4156.28 2376.5 4148.66C2378.35 4147.05 2380.31 4145.66 2382.39 4144.51C2384 4143.36 2385.73 4142.32 2387.58 4141.39C2389.42 4140.24 2391.15 4139.43 2392.77 4138.97C2391.38 4150.05 2391.84 4158.58 2394.15 4164.58C2396.46 4170.58 2399.34 4174.96 2402.8 4177.73C2406.73 4180.96 2411.46 4182.81 2416.99 4183.27C2424.38 4183.27 2431.18 4181.19 2437.41 4177.04C2443.64 4172.66 2448.95 4167.12 2453.33 4160.43C2457.94 4153.74 2461.64 4146.12 2464.4 4137.59C2467.17 4129.05 2468.9 4120.4 2469.6 4111.63C2470.75 4100.1 2469.25 4091.1 2465.1 4084.64C2460.94 4078.18 2455.64 4074.95 2449.18 4074.95C2442.26 4074.95 2435.8 4077.26 2429.8 4081.87C2424.03 4086.25 2418.38 4091.79 2412.84 4098.48C2410.76 4101.02 2408.46 4102.75 2405.92 4103.67C2403.38 4104.37 2400.84 4104.71 2398.3 4104.71C2396 4104.71 2393.81 4104.37 2391.73 4103.67C2389.65 4102.75 2388.04 4101.94 2386.88 4101.25C2386.19 4100.79 2385.27 4100.1 2384.12 4099.17C2382.96 4098.02 2381.92 4096.41 2381 4094.33C2380.08 4092.25 2379.5 4089.48 2379.27 4086.02C2379.27 4082.56 2380.19 4078.06 2382.04 4072.53C2383.89 4066.76 2386.19 4059.84 2388.96 4051.76C2391.73 4043.46 2394.5 4034.92 2397.27 4026.15C2400.04 4017.39 2402.69 4008.96 2405.23 4000.89C2407.76 3992.81 2409.73 3986.01 2411.11 3980.47C2413.19 3972.63 2414.34 3967.67 2414.57 3965.59C2415.03 3963.28 2415.03 3962.01 2414.57 3961.78C2415.72 3961.55 2418.49 3960.86 2422.88 3959.71C2427.26 3958.55 2432.68 3957.4 2439.14 3956.25C2445.83 3955.09 2453.22 3954.05 2461.29 3953.13C2469.6 3952.21 2477.9 3951.75 2486.21 3951.75C2495.21 3951.75 2502.47 3952.21 2508.01 3953.13C2513.55 3953.82 2517.58 3955.21 2520.12 3957.28C2522.89 3959.36 2524.39 3962.36 2524.62 3966.28C2524.85 3969.97 2524.16 3974.7 2522.54 3980.47C2521.85 3982.55 2520.93 3984.74 2519.78 3987.05C2518.62 3988.89 2517.12 3991.08 2515.28 3993.62C2513.66 3995.93 2511.59 3998.35 2509.05 4000.89C2506.51 3995.81 2502.01 3991.89 2495.55 3989.12C2489.32 3986.12 2482.86 3984.05 2476.17 3982.89C2468.33 3981.51 2459.79 3980.7 2450.56 3980.47Z" fill="#571E25"/>
<path d="M1709.11 3269.4C1691.98 3269.4 1678.04 3267.55 1667.29 3263.86C1656.87 3260.16 1649.82 3255.46 1646.12 3249.75C1644.44 3247.4 1642.93 3243.87 1641.59 3239.17C1640.24 3234.46 1640.75 3229.26 1643.1 3223.55C1647.8 3227.24 1652.84 3230.1 1658.22 3232.11C1663.93 3233.79 1669.13 3234.97 1673.84 3235.64C1679.55 3236.65 1685.09 3237.15 1690.47 3237.15C1700.54 3237.15 1710.29 3236.31 1719.69 3234.63C1729.44 3232.95 1739.01 3230.6 1748.42 3227.58C1752.45 3207.42 1756.31 3189.28 1760.01 3173.16C1764.04 3157.03 1768.57 3143.93 1773.61 3133.85C1778.99 3122.76 1784.53 3112.85 1790.24 3104.12C1796.29 3095.05 1802.84 3087.49 1809.89 3081.44C1817.28 3075.06 1825.35 3070.19 1834.08 3066.83C1842.81 3063.47 1852.89 3061.79 1864.31 3061.79C1872.71 3061.79 1879.26 3063.47 1883.97 3066.83C1889.01 3070.19 1892.7 3074.39 1895.05 3079.43C1897.74 3084.47 1899.25 3090.01 1899.59 3096.06C1900.26 3101.77 1900.6 3107.14 1900.6 3112.18C1900.6 3123.27 1897.91 3135.36 1892.53 3148.46C1887.16 3161.57 1879.6 3174.5 1869.86 3187.26C1860.12 3200.03 1848.36 3212.12 1834.58 3223.55C1821.15 3234.97 1806.03 3244.37 1789.23 3251.76C1783.52 3273.94 1777.81 3295.94 1772.1 3317.78C1766.72 3339.28 1761.35 3357.08 1755.97 3371.19C1751.27 3384.29 1745.22 3398.91 1737.83 3415.03C1730.78 3431.16 1722.04 3446.61 1711.63 3461.39C1718.01 3465.42 1724.4 3469.62 1730.78 3473.99C1737.5 3478.35 1744.22 3482.22 1750.94 3485.58C1757.65 3489.27 1764.37 3492.3 1771.09 3494.65C1778.15 3497 1785.54 3498.17 1793.26 3498.17C1801.33 3497.84 1809.22 3496.66 1816.95 3494.65C1823.67 3492.97 1830.72 3490.11 1838.11 3486.08C1845.5 3482.39 1852.39 3477.01 1858.77 3469.96C1861.12 3473.99 1861.79 3480.03 1860.79 3488.1C1860.12 3496.16 1857.6 3504.22 1853.23 3512.28C1848.86 3520.35 1842.65 3527.4 1834.58 3533.45C1826.52 3539.5 1816.44 3542.52 1804.35 3542.52C1791.58 3542.52 1779.66 3540.67 1768.57 3536.98C1757.49 3533.62 1747.07 3529.42 1737.33 3524.38C1727.59 3519.34 1718.35 3513.8 1709.62 3507.75C1701.22 3502.04 1693.32 3496.66 1685.93 3491.62C1675.85 3501.37 1664.77 3509.26 1652.67 3515.31C1640.58 3521.35 1627.14 3524.38 1612.36 3524.38C1600.6 3524.38 1591.2 3521.02 1584.14 3514.3C1577.09 3507.92 1573.9 3499.18 1574.57 3488.1C1574.9 3484.07 1576.08 3479.19 1578.1 3473.48C1580.11 3468.11 1583.97 3462.9 1589.69 3457.86C1595.06 3452.82 1602.62 3448.46 1612.36 3444.76C1622.1 3441.4 1634.7 3439.72 1650.15 3439.72C1655.87 3439.72 1661.24 3440.23 1666.28 3441.23C1671.65 3442.58 1676.86 3444.09 1681.9 3445.77C1685.6 3439.05 1689.29 3431.32 1692.99 3422.59C1696.68 3413.85 1700.71 3403.94 1705.08 3392.86C1712.81 3371.69 1719.53 3350.53 1725.24 3329.37C1730.95 3307.87 1735.82 3287.04 1739.85 3266.88C1735.15 3267.89 1730.11 3268.56 1724.73 3268.9C1719.69 3269.23 1714.49 3269.4 1709.11 3269.4ZM1625.46 3497.17C1629.83 3495.49 1634.87 3493.81 1640.58 3492.13C1646.29 3490.45 1652.84 3485.75 1660.23 3478.02C1655.19 3476.34 1651.33 3475.5 1648.64 3475.5C1636.55 3475.5 1627.81 3477.18 1622.44 3480.54C1616.73 3484.23 1613.87 3487.76 1613.87 3491.12C1613.87 3493.47 1614.88 3495.15 1616.9 3496.16C1618.91 3497.5 1621.77 3497.84 1625.46 3497.17ZM1815.94 3146.45C1814.26 3151.49 1812.08 3158.88 1809.39 3168.62C1806.7 3178.36 1803.85 3189.62 1800.82 3202.38C1818.96 3190.62 1833.41 3177.19 1844.16 3162.07C1855.24 3146.95 1860.79 3131.83 1860.79 3116.72C1860.79 3107.65 1858.1 3103.11 1852.72 3103.11C1848.02 3103.11 1841.97 3106.81 1834.58 3114.2C1827.19 3121.25 1820.98 3132 1815.94 3146.45ZM1990.79 3143.93C1989.79 3147.62 1987.77 3151.32 1984.75 3155.01C1982.06 3158.37 1978.87 3161.23 1975.17 3163.58C1971.81 3165.6 1968.29 3166.94 1964.59 3167.61C1960.9 3168.28 1957.87 3167.61 1955.52 3165.6C1948.47 3160.22 1944.77 3154.51 1944.44 3148.46C1944.1 3142.08 1945.61 3136.2 1948.97 3130.83C1952.33 3125.12 1956.53 3120.41 1961.57 3116.72C1966.61 3112.69 1970.97 3110.33 1974.67 3109.66C1978.37 3108.99 1981.39 3109.83 1983.74 3112.18C1986.43 3114.2 1988.44 3117.05 1989.79 3120.75C1991.13 3124.11 1991.8 3127.97 1991.8 3132.34C1992.14 3136.71 1991.8 3140.57 1990.79 3143.93ZM1921.26 3251.26C1922.94 3249.25 1926.13 3247.57 1930.83 3246.22C1935.53 3244.88 1940.4 3243.87 1945.44 3243.2C1950.48 3242.19 1955.02 3241.69 1959.05 3241.69C1963.42 3241.35 1965.94 3241.35 1966.61 3241.69C1966.94 3242.02 1966.1 3245.55 1964.09 3252.27C1962.07 3258.99 1959.55 3266.88 1956.53 3275.95C1953.51 3285.02 1950.31 3294.43 1946.96 3304.17C1943.6 3313.58 1941.08 3321.3 1939.4 3327.35C1937.72 3333.4 1935.7 3340.28 1933.35 3348.01C1931 3355.4 1928.81 3362.79 1926.8 3370.18C1925.12 3377.24 1923.94 3383.96 1923.27 3390.34C1922.6 3396.72 1923.1 3401.59 1924.78 3404.95C1926.46 3408.98 1928.31 3411.84 1930.33 3413.52C1932.34 3414.86 1934.53 3415.53 1936.88 3415.53C1943.6 3415.53 1951.99 3411.84 1962.07 3404.45C1972.49 3397.06 1982.9 3388.32 1993.31 3378.25C2004.06 3367.83 2013.97 3357.42 2023.04 3347C2032.12 3336.25 2038.83 3327.69 2043.2 3321.3C2045.89 3317.94 2048.58 3315.76 2051.26 3314.75C2054.29 3313.75 2056.64 3313.91 2058.32 3315.26C2060.33 3316.6 2061.34 3318.78 2061.34 3321.81C2061.68 3324.83 2060.67 3328.36 2058.32 3332.39C2052.94 3341.8 2045.05 3353.05 2034.63 3366.15C2024.22 3378.92 2013.13 3391.35 2001.38 3403.44C1989.62 3415.2 1978.03 3425.28 1966.61 3433.67C1955.52 3442.07 1946.45 3446.44 1939.4 3446.78C1933.69 3447.11 1927.97 3446.1 1922.26 3443.75C1916.89 3441.74 1911.85 3438.88 1907.15 3435.19C1902.78 3431.16 1899.08 3426.62 1896.06 3421.58C1893.04 3416.21 1891.36 3410.66 1891.02 3404.95C1890.01 3396.55 1890.01 3385.13 1891.02 3370.69C1892.03 3355.91 1893.88 3340.96 1896.56 3325.84C1899.25 3310.39 1902.61 3295.77 1906.64 3282C1911.01 3268.23 1915.88 3257.98 1921.26 3251.26ZM2283.56 3359.6C2281.21 3362.96 2277.35 3367.83 2271.97 3374.21C2266.94 3380.6 2260.72 3387.48 2253.33 3394.87C2246.28 3402.26 2238.04 3409.99 2228.64 3418.05C2219.57 3425.78 2209.83 3432.83 2199.41 3439.22C2198.07 3446.94 2195.55 3457.86 2191.85 3471.97C2188.16 3486.42 2183.29 3502.04 2177.24 3518.83C2171.19 3535.63 2164.14 3552.6 2156.08 3569.73C2148.01 3587.2 2138.94 3602.99 2128.87 3617.1C2119.12 3631.54 2108.37 3643.13 2096.62 3651.87C2084.86 3660.94 2072.43 3665.47 2059.33 3665.47C2046.22 3665.47 2035.98 3663.29 2028.59 3658.92C2021.2 3654.55 2015.82 3648.84 2012.46 3641.79C2008.77 3635.07 2006.58 3627.51 2005.91 3619.11C2005.24 3611.05 2005.07 3603.16 2005.41 3595.43C2005.74 3585.35 2008.77 3573.59 2014.48 3560.16C2020.19 3547.05 2028.08 3533.62 2038.16 3519.84C2048.58 3506.41 2061.01 3493.47 2075.45 3481.04C2089.9 3468.95 2106.02 3458.7 2123.83 3450.3C2132.56 3446.61 2140.62 3443.08 2148.01 3439.72C2155.4 3436.03 2162.29 3432.5 2168.67 3429.14C2171.36 3418.05 2171.53 3410.66 2169.18 3406.97C2167.16 3403.27 2164.14 3401.42 2160.11 3401.42C2154.06 3401.42 2146.84 3404.11 2138.44 3409.49C2130.38 3414.86 2120.3 3423.26 2108.21 3434.68C2104.85 3435.02 2101.82 3434.68 2099.13 3433.67C2096.78 3432.33 2094.77 3430.82 2093.09 3429.14C2091.07 3427.46 2089.39 3425.44 2088.05 3423.09C2084.35 3417.38 2082.67 3411.67 2083.01 3405.96C2083.68 3400.25 2086.37 3395.71 2091.07 3392.35C2095.78 3388.66 2102.66 3382.78 2111.73 3374.72C2121.14 3366.32 2130.21 3355.74 2138.94 3342.97C2141.63 3339.28 2144.82 3334.74 2148.52 3329.37C2152.55 3323.66 2156.41 3317.61 2160.11 3311.23C2164.14 3304.51 2167.83 3297.62 2171.19 3290.57C2174.89 3283.51 2177.74 3276.79 2179.76 3270.41C2173.04 3269.4 2163.3 3269.57 2150.53 3270.91C2143.81 3272.26 2136.59 3273.77 2128.87 3275.45C2122.15 3277.13 2114.42 3279.31 2105.69 3282C2097.29 3284.69 2088.38 3288.38 2078.98 3293.08C2077.63 3292.41 2076.63 3291.07 2075.96 3289.05C2075.28 3287.04 2074.78 3284.69 2074.44 3282C2074.11 3278.98 2073.94 3275.62 2073.94 3271.92C2073.94 3267.22 2074.61 3263.35 2075.96 3260.33C2077.63 3256.97 2079.65 3254.28 2082 3252.27C2084.35 3250.25 2086.87 3248.74 2089.56 3247.73C2092.25 3246.39 2094.6 3245.38 2096.62 3244.71C2098.97 3244.04 2103.5 3243.2 2110.22 3242.19C2117.28 3240.85 2125.17 3239.67 2133.9 3238.66C2142.64 3237.66 2151.71 3236.98 2161.12 3236.65C2170.52 3235.98 2179.09 3235.81 2186.81 3236.14C2202.6 3237.15 2212.51 3239.33 2216.54 3242.69C2220.91 3245.72 2222.09 3250.59 2220.07 3257.31C2217.72 3264.03 2213.19 3275.45 2206.47 3291.57C2199.75 3307.36 2189.5 3325.67 2175.73 3346.5C2170.02 3354.23 2164.81 3361.45 2160.11 3368.17C2155.4 3374.89 2150.87 3380.76 2146.5 3385.8C2152.21 3383.12 2157.92 3381.1 2163.63 3379.76C2169.35 3378.08 2175.06 3377.24 2180.77 3377.24C2188.49 3377.24 2193.53 3380.93 2195.88 3388.32C2198.57 3395.71 2200.08 3403.78 2200.42 3412.51C2213.86 3404.11 2225.78 3395.21 2236.2 3385.8C2246.95 3376.4 2258.37 3364.3 2270.46 3349.52C2273.49 3345.83 2276.17 3343.64 2278.53 3342.97C2281.21 3342.3 2283.23 3342.8 2284.57 3344.48C2285.92 3345.83 2286.59 3348.01 2286.59 3351.03C2286.59 3353.72 2285.58 3356.58 2283.56 3359.6ZM2157.59 3469.45C2158.26 3466.76 2158.93 3464.25 2159.6 3461.89C2160.61 3459.88 2161.45 3457.69 2162.12 3455.34C2144.65 3465.08 2128.7 3475.33 2114.25 3486.08C2099.81 3497.17 2087.21 3508.76 2076.46 3520.85C2066.04 3532.94 2057.81 3545.54 2051.77 3558.64C2045.72 3571.75 2042.36 3585.01 2041.69 3598.45C2041.35 3606.51 2042.53 3613.4 2045.22 3619.11C2048.24 3624.82 2053.45 3627.68 2060.84 3627.68C2068.9 3627.68 2077.47 3621.8 2086.54 3610.04C2095.94 3598.62 2105.01 3584.51 2113.75 3567.71C2122.82 3551.25 2131.22 3533.95 2138.94 3515.81C2146.67 3498.01 2152.88 3482.55 2157.59 3469.45ZM2511.33 3340.45C2506.63 3347.17 2500.58 3355.57 2493.19 3365.65C2485.8 3375.39 2478.07 3385.3 2470.01 3395.38C2462.28 3405.12 2454.56 3414.19 2446.83 3422.59C2439.44 3430.65 2433.22 3436.36 2428.19 3439.72C2424.83 3441.74 2420.96 3443.42 2416.6 3444.76C2412.23 3446.1 2407.69 3446.94 2402.99 3447.28C2398.62 3447.62 2394.42 3447.28 2390.39 3446.27C2386.36 3445.6 2382.83 3444.26 2379.81 3442.24C2376.79 3439.89 2374.27 3436.53 2372.25 3432.16C2370.57 3428.47 2368.89 3423.6 2367.21 3417.55C2365.87 3411.5 2365.37 3403.94 2365.7 3394.87C2357.64 3408.31 2348.74 3418.73 2338.99 3426.12C2329.25 3433.17 2320.01 3438.38 2311.28 3441.74C2301.2 3445.43 2291.12 3447.62 2281.04 3448.29C2276.34 3448.29 2271.3 3446.61 2265.93 3443.25C2260.55 3440.23 2256.02 3435.35 2252.32 3428.64C2248.63 3421.58 2246.28 3412.68 2245.27 3401.93C2244.26 3390.84 2245.6 3377.74 2249.3 3362.62C2254 3342.13 2261.39 3323.49 2271.47 3306.69C2281.88 3289.89 2293.14 3275.62 2305.23 3263.86C2317.33 3251.76 2329.25 3242.69 2341.01 3236.65C2352.77 3230.6 2362.51 3227.91 2370.24 3228.58C2379.31 3230.26 2386.7 3232.95 2392.41 3236.65C2397.11 3240.01 2400.13 3245.05 2401.48 3251.76C2403.16 3258.15 2400.47 3266.71 2393.42 3277.46C2398.12 3276.46 2401.98 3275.78 2405.01 3275.45C2408.37 3275.11 2410.88 3274.94 2412.56 3274.94C2414.58 3274.94 2415.92 3275.11 2416.6 3275.45C2416.93 3276.12 2417.1 3277.63 2417.1 3279.98C2417.1 3282 2416.6 3285.86 2415.59 3291.57C2414.58 3297.28 2413.07 3305.01 2411.05 3314.75C2409.04 3324.5 2406.35 3337.09 2402.99 3352.55C2402.32 3355.57 2401.65 3358.42 2400.97 3361.11C2400.64 3363.46 2400.13 3365.98 2399.46 3368.67C2399.13 3371.02 2398.62 3373.88 2397.95 3377.24C2397.28 3380.6 2396.44 3384.8 2395.43 3389.83C2395.1 3392.86 2394.93 3396.22 2394.93 3399.91C2395.26 3403.27 2395.94 3406.46 2396.94 3409.49C2397.95 3412.51 2399.46 3415.03 2401.48 3417.05C2403.83 3418.73 2407.02 3419.57 2411.05 3419.57C2414.41 3419.57 2418.78 3417.55 2424.15 3413.52C2429.53 3409.15 2435.24 3403.78 2441.29 3397.39C2447.33 3390.67 2453.55 3383.45 2459.93 3375.73C2466.65 3367.66 2472.87 3359.94 2478.58 3352.55C2484.29 3345.16 2489.33 3338.6 2493.69 3332.89C2498.4 3327.18 2501.76 3322.98 2503.77 3320.3C2506.46 3317.27 2509.15 3315.59 2511.83 3315.26C2514.52 3314.58 2516.54 3315.26 2517.88 3317.27C2519.22 3319.29 2519.39 3322.31 2518.38 3326.34C2517.71 3330.37 2515.36 3335.08 2511.33 3340.45ZM2363.69 3362.62C2365.37 3355.91 2367.38 3348.01 2369.73 3338.94C2372.08 3329.87 2374.1 3321.14 2375.78 3312.74C2377.46 3304.34 2378.63 3297.45 2379.31 3292.08C2380.31 3286.37 2380.15 3283.68 2378.8 3284.01C2377.12 3284.35 2375.28 3284.85 2373.26 3285.53C2371.58 3286.2 2369.4 3286.7 2366.71 3287.04C2364.02 3287.37 2361.33 3287.88 2358.65 3288.55C2361.33 3283.17 2362.85 3278.81 2363.18 3275.45C2363.85 3271.75 2364.02 3268.9 2363.69 3266.88C2363.35 3264.53 2362.68 3262.68 2361.67 3261.34C2357.97 3258.32 2351.42 3260.83 2342.02 3268.9C2332.95 3276.62 2322.37 3291.07 2310.27 3312.23C2305.23 3320.97 2301.2 3330.37 2298.18 3340.45C2295.15 3350.19 2292.97 3359.43 2291.63 3368.17C2290.62 3376.9 2290.45 3384.63 2291.12 3391.35C2291.79 3397.73 2293.14 3401.93 2295.15 3403.94C2298.85 3407.64 2303.05 3409.49 2307.75 3409.49C2312.46 3409.15 2317.16 3407.81 2321.86 3405.46C2326.9 3402.77 2331.77 3399.41 2336.47 3395.38C2341.51 3391.35 2345.88 3387.15 2349.58 3382.78C2353.61 3378.41 2356.8 3374.38 2359.15 3370.69C2361.84 3366.99 2363.35 3364.3 2363.69 3362.62Z" fill="#571E25"/>
<path d="M2161.17 2972.75C2163.67 2970.52 2166.04 2969.27 2168.27 2968.99C2170.5 2968.71 2172.17 2969.27 2173.28 2970.66C2174.68 2971.78 2175.09 2973.59 2174.54 2976.09C2174.26 2978.32 2172.59 2981.11 2169.52 2984.45C2163.12 2990.85 2156.16 2997.82 2148.64 3005.33C2141.12 3012.58 2132.62 3019.54 2123.15 3026.22C2125.38 3030.4 2127.89 3034.16 2130.67 3037.5C2132.9 3040.56 2135.55 3043.63 2138.61 3046.69C2141.67 3049.48 2145.16 3051.56 2149.05 3052.96C2148.5 3054.07 2147.24 3055.18 2145.29 3056.3C2143.35 3057.41 2141.26 3058.67 2139.03 3060.06C2136.52 3061.45 2133.74 3062.98 2130.67 3064.65C2123.15 3068.27 2116.89 3070.22 2111.88 3070.5C2106.86 3070.78 2102.69 3070.08 2099.34 3068.41C2096 3066.74 2093.36 3064.23 2091.41 3060.89C2089.74 3057.55 2088.34 3054.07 2087.23 3050.45C2086.95 3050.17 2086.81 3049.48 2086.81 3048.36C2086.81 3047.8 2086.67 3047.39 2086.39 3047.11C2077.48 3050.73 2068.15 3053.65 2058.41 3055.88C2048.66 3058.11 2038.49 3059.22 2027.91 3059.22C2014.54 3059.22 2003.68 3056.58 1995.33 3051.29C1987.25 3045.99 1981.26 3039.45 1977.37 3031.65C1973.19 3023.85 1970.68 3015.5 1969.85 3006.59C1969.01 2997.4 1969.29 2989.04 1970.68 2981.52C1973.19 2965.93 1981.13 2949.22 1994.49 2931.4C2008.14 2913.57 2026.24 2893.66 2048.8 2871.66C2050.19 2870.27 2051.72 2868.87 2053.39 2867.48C2055.06 2866.09 2056.6 2864.7 2057.99 2863.3C2057.99 2855.79 2058.13 2848.68 2058.41 2842C2058.96 2835.04 2059.52 2828.35 2060.08 2821.95C2060.36 2819.44 2060.63 2817.08 2060.91 2814.85C2061.19 2812.34 2061.61 2809.83 2062.17 2807.33C2064.95 2793.13 2069.41 2781.29 2075.53 2771.82C2081.66 2762.07 2088.34 2754.28 2095.58 2748.43C2103.1 2742.3 2110.34 2737.98 2117.31 2735.48C2124.55 2732.97 2130.67 2731.72 2135.69 2731.72C2139.03 2731.72 2142.65 2732.28 2146.55 2733.39C2150.73 2734.5 2154.35 2736.45 2157.41 2739.24C2160.75 2742.02 2163.26 2745.78 2164.93 2750.52C2166.6 2755.25 2166.88 2761.24 2165.76 2768.48C2164.65 2774.61 2162.84 2780.59 2160.33 2786.44C2158.11 2792.29 2154.48 2798.83 2149.47 2806.08C2144.74 2813.04 2138.19 2821.11 2129.84 2830.3C2121.76 2839.49 2111.46 2850.49 2098.93 2863.3C2097.81 2864.42 2096.7 2865.39 2095.58 2866.23C2094.75 2867.06 2093.91 2868.04 2093.08 2869.15C2094.47 2894.77 2097.39 2919.42 2101.85 2943.09C2106.58 2966.76 2111.04 2987.09 2115.22 3004.08C2115.77 3006.31 2116.19 3007.84 2116.47 3008.68C2122.32 3005.06 2127.75 3001.44 2132.76 2997.82C2137.78 2993.92 2142.09 2990.3 2145.71 2986.95C2149.61 2983.61 2152.81 2980.69 2155.32 2978.18C2158.11 2975.68 2160.05 2973.87 2161.17 2972.75ZM2045.46 3030.82C2051.58 3030.82 2057.43 3030.4 2063 3029.56C2068.57 3028.45 2074.14 3027.2 2079.71 3025.8C2077.2 3017.45 2074.42 3007.14 2071.36 2994.89C2068.57 2982.64 2066.06 2968.85 2063.84 2953.54C2062.72 2945.46 2061.75 2937.38 2060.91 2929.31C2060.36 2921.23 2059.8 2913.29 2059.24 2905.5C2027.22 2941.42 2009.53 2969.13 2006.19 2988.63C2005.63 2992.52 2005.63 2996.98 2006.19 3001.99C2006.75 3006.73 2008.42 3011.32 2011.2 3015.78C2013.99 3019.96 2018.03 3023.58 2023.32 3026.64C2028.89 3029.42 2036.27 3030.82 2045.46 3030.82ZM2096 2787.7C2094.05 2801.34 2092.8 2815.68 2092.24 2830.72C2105.61 2817.63 2117.03 2805.94 2126.5 2795.63C2135.97 2785.33 2141.4 2776.14 2142.79 2768.06C2143.35 2764.16 2142.79 2760.4 2141.12 2756.78C2139.72 2752.88 2136.94 2750.93 2132.76 2750.93C2128.31 2750.93 2123.99 2752.05 2119.81 2754.28C2115.64 2756.5 2111.88 2759.43 2108.53 2763.05C2105.47 2766.39 2102.83 2770.29 2100.6 2774.75C2098.37 2778.92 2096.84 2783.24 2096 2787.7Z" fill="#DF980C"/>
<path d="M940.005 4562.95C1200 4746.9 1493.64 4613.36 1573.29 4547.83C1591.53 4535.74 1616.29 4511.14 1618.63 4519.05C1620.98 4526.96 1484.99 4714.45 1226.43 4751.5C967.868 4788.54 830.88 4727.01 755.056 4599.65C714.37 4522.97 712.414 4401.92 940.005 4562.95Z" fill="#4E6F82"/>
<path d="M887.999 4217.76C1031.12 4525.97 1373.78 4558.1 1482.28 4539.69C1505.57 4538.17 1541.54 4528.52 1539.52 4537.09C1537.5 4545.65 1312.15 4647.09 1053.14 4544.24C794.133 4441.38 699.955 4311.76 697.316 4153.64C700.324 4061.07 762.719 3947.98 887.999 4217.76Z" fill="#4E6F82"/>
<path d="M1103.35 1266.65C1032.32 1354.67 1003.63 1504.71 998.159 1568.72C997.448 1576.2 997.365 1587.69 1003.62 1590.54C1013.13 1594.86 1022.81 1574.69 1026.15 1561.97C1030.33 1546.85 1046.8 1492.29 1079.22 1395.01C1111.65 1297.73 1183.45 1277.91 1215.3 1280.16C1240.09 1278.82 1315.46 1294.94 1300.23 1361.23C1284.66 1428.96 1415.69 1505.16 1487.45 1419.14C1559.21 1333.11 1426.65 1223.22 1373.57 1200.06C1320.49 1176.9 1192.14 1156.63 1103.35 1266.65Z" fill="#4E6F82"/>
<path d="M1145 2912.54C1092.49 3178.75 887.298 3561 869.946 3582.99C851.451 3604.91 854.509 3614.09 861.39 3618.93C866.679 3621.86 876.08 3622.31 903.183 3582.99C970.861 3484.79 1180.1 3055.75 1220.41 2939.47C1260.72 2823.19 1392.59 2361.37 1180.02 2167.18C967.444 1973 780.759 2166.21 747.319 2216.89C713.878 2267.56 683.19 2371.32 772.532 2401.4C871.448 2434.71 902.816 2385.33 942.149 2339.52C979.918 2295.52 1073.41 2262.35 1127.81 2329.2C1178.18 2391.09 1207.54 2595.54 1145 2912.54Z" fill="#4E6F82"/>
<path d="M1042.1 1309.64C1042.1 1324.68 1034.49 1337.98 1015.41 1339.87C1000.36 1339.87 986.309 1328.15 986.309 1313.1C986.309 1298.05 999.468 1283.96 1014.52 1283.96C1029.57 1283.96 1042.1 1294.59 1042.1 1309.64Z" fill="#B14B57"/>
<path d="M999.05 1399.66C999.05 1417.81 983.799 1433.59 965.649 1433.59C947.499 1433.59 931.496 1416.45 931.496 1398.3C931.496 1380.15 946.82 1366.83 964.97 1366.83C983.12 1366.83 999.05 1381.51 999.05 1399.66Z" fill="#B14B57"/>
<path d="M974.404 1520.98C974.404 1540.88 955.112 1557.28 935.206 1557.28C915.301 1557.28 900.057 1540.24 900.057 1520.34C900.057 1500.43 918.68 1483.32 938.585 1483.32C958.491 1483.32 974.404 1501.07 974.404 1520.98Z" fill="#B14B57"/>
<path d="M1495.09 2943.98C1483.07 2953.03 1464.6 2951.51 1455.55 2939.48C1446.5 2927.46 1450.29 2909.5 1462.31 2900.44C1474.33 2891.39 1490.86 2892.04 1500.56 2904.92C1509.61 2916.94 1508.43 2935.25 1495.09 2943.98Z" fill="#B14B57"/>
<path d="M1397.45 2963.41C1382.95 2974.33 1362.86 2971.41 1351.95 2956.91C1341.03 2942.42 1342.37 2920.36 1356.87 2909.44C1371.37 2898.53 1397.45 2901.47 1405.91 2916.24C1416.83 2930.74 1411.94 2952.5 1397.45 2963.41Z" fill="#B14B57"/>
<path d="M1287.53 3014.53C1271.63 3026.5 1246.27 3026.35 1235.24 3009.41C1223.26 2993.51 1226.88 2968.55 1242.78 2956.57C1258.69 2944.6 1283.33 2949.19 1295.31 2965.09C1307.28 2980.99 1303.43 3002.55 1287.53 3014.53Z" fill="#B14B57"/>
<path d="M1203.75 4201.27C1217.67 4206.99 1224.85 4224.35 1219.13 4238.27C1213.41 4252.19 1195.64 4260.06 1181.72 4254.34C1167.8 4248.62 1161.21 4230.84 1166.94 4216.92C1172.66 4203 1187.26 4195.87 1203.75 4201.27Z" fill="#B14B57"/>
<path d="M1252.58 4286.36C1269.37 4293.26 1275.91 4312.56 1269.01 4329.35C1261.53 4344.69 1242.55 4353.26 1226.12 4347.25C1209.34 4340.34 1200.74 4318.36 1207.64 4301.57C1214.54 4284.79 1235.79 4279.45 1252.58 4286.36Z" fill="#B14B57"/>
<path d="M1348.27 4339.01C1367.7 4344.27 1378.69 4364 1370.2 4384.44C1362.63 4402.85 1341.57 4413.71 1323.16 4406.14C1304.75 4398.57 1293.66 4379.12 1301.23 4360.71C1308.8 4342.3 1329.86 4331.44 1348.27 4339.01Z" fill="#B14B57"/>
<path d="M1040.1 1801.43C1068.57 1957.34 1173.2 2122.55 1210.55 2146.15C1215.83 2152.17 1231.74 2160.85 1220.89 2129.88C1210.04 2098.92 1163.64 2044.78 1152.87 1994.11C1142.46 1945.15 1154.4 1903.14 1172.72 1877.65C1192.24 1850.48 1196.82 1814.16 1193.63 1803.54C1188.63 1786.9 1150.95 1763.49 1143.08 1760.13C1138.28 1758.09 1138.84 1755.46 1140.43 1754.05C1157.9 1740.02 1192.57 1687.61 1202.63 1650.03C1212.68 1612.45 1187.69 1585.37 1177.75 1566.39C1170.98 1553.47 1174.5 1524.99 1177.75 1510.02C1182.32 1496.06 1190.2 1462.3 1185.11 1438.9C1180.02 1415.49 1149.92 1429.15 1135.5 1438.9C1060.45 1494.87 1010.24 1637.88 1040.1 1801.43Z" fill="#75895E"/>
<path d="M1130.46 3341.24C1050.02 3395.63 980.683 3486.18 975.566 3509.02C973.351 3512.96 971.934 3522.32 986.801 3509.22C1001.67 3496.12 1021.8 3461.1 1047.62 3442.75C1072.56 3425.02 1098.43 3419.04 1116.49 3420.3C1135.73 3421.64 1156.87 3413.93 1162.08 3409.67C1170.24 3403 1175.19 3380.07 1175.37 3375.68C1175.48 3373.02 1177.06 3372.56 1178.18 3372.88C1189.7 3376.84 1226.18 3378.12 1249.19 3372.49C1272.19 3366.86 1281.88 3348.55 1290.29 3339.06C1296.01 3332.61 1312.57 3326.52 1321.57 3323.95C1330.29 3322.23 1350.71 3316.66 1362.61 3308.13C1374.51 3299.61 1360.51 3289.96 1352.02 3286.2C1304.93 3268.04 1214.84 3284.18 1130.46 3341.24Z" fill="#75895E"/>
<path d="M992.308 3129.16C1001.64 3252.93 955.103 3398.85 931.481 3424.13C928.675 3429.74 918.341 3439.47 920.425 3413.86C922.51 3388.24 946.932 3338.03 945.054 3297.5C943.239 3258.34 925.864 3228.88 906.933 3213.2C886.756 3196.48 876.09 3169.87 876.403 3161.19C876.892 3147.59 900.802 3122.39 906.103 3118.28C909.332 3115.78 908.384 3113.9 906.901 3113.15C890.886 3105.98 854.229 3073.14 839.16 3046.66C824.091 3020.18 837.663 2994.71 841.434 2978.36C844.002 2967.23 835.692 2946.35 830.261 2935.65C824.029 2925.98 811.37 2901.96 810.586 2883.22C809.802 2864.48 835.318 2868.86 848.174 2873.39C916.13 2900.92 982.523 2999.33 992.308 3129.16Z" fill="#75895E"/>
<path d="M879.159 1709.43C902.351 1793.11 1027.59 1908.54 1037.2 1910.14C1046.8 1911.73 1044.77 1906.84 1042.35 1904.51C1039.94 1902.18 994.415 1849.56 973.417 1819.16C948.268 1782.75 923.138 1712.29 932.618 1644.24C940.643 1586.64 916.794 1580.1 902.464 1586.37C884.488 1594.19 856.504 1627.68 879.159 1709.43Z" fill="#75895E"/>
<path d="M1340.4 3019.77C1209.51 3091.62 1065.12 3312.26 1066.18 3325.58C1067.23 3338.89 1074.61 3333.8 1077.58 3329.5C1080.55 3325.19 1150.84 3239.69 1193.52 3197.2C1244.64 3146.31 1352.67 3078.51 1470.1 3057.02C1569.51 3038.82 1571.18 3004.49 1555.15 2988.93C1535.11 2969.39 1468.27 2949.58 1340.4 3019.77Z" fill="#4E6F82"/>
<path d="M411.515 2915.21C475.374 2952.36 543.324 3080.35 542.565 3088.59C541.805 3096.84 538.221 3094.11 536.821 3091.62C535.421 3089.13 501.954 3040.31 481.468 3016.47C456.933 2987.91 404.379 2952.02 346.333 2945.13C297.195 2939.3 296.968 2918.26 305.218 2907.82C315.531 2894.71 349.136 2878.92 411.515 2915.21Z" fill="#75895E"/>
<path d="M641.426 3670.12C700.215 3714.87 751.862 3850.25 750.091 3858.35C748.321 3866.44 745.1 3863.29 744.018 3860.64C742.936 3858 715.745 3805.42 698.357 3779.23C677.531 3747.87 629.804 3705.77 573.051 3691.77C525.008 3679.93 527.376 3659.02 536.852 3649.68C548.702 3637.95 583.999 3626.41 641.426 3670.12Z" fill="#B14B57"/>
<path d="M449.482 3053.02C522.291 3095.38 599.765 3241.3 598.899 3250.71C598.033 3260.11 593.946 3257 592.35 3254.16C590.754 3251.32 552.596 3195.66 529.24 3168.47C501.266 3135.91 441.346 3094.99 375.164 3087.14C319.14 3080.49 318.88 3056.5 328.287 3044.6C340.045 3029.65 378.361 3011.64 449.482 3053.02Z" fill="#75895E"/>
<path d="M662.108 3811.57C729.137 3862.58 788.023 4016.95 786.004 4026.17C783.985 4035.4 780.313 4031.8 779.079 4028.79C777.845 4025.77 746.844 3965.83 727.018 3935.97C703.274 3900.21 648.858 3852.21 584.15 3836.25C529.373 3822.74 532.074 3798.91 542.877 3788.26C556.388 3774.88 596.633 3761.73 662.108 3811.57Z" fill="#B14B57"/>
<path d="M618.961 3083.1C631.898 3150.72 723.435 3250 730.921 3251.89C738.407 3253.77 737.115 3249.77 735.358 3247.77C733.601 3245.77 701.015 3201.26 686.38 3175.88C668.851 3145.49 653.531 3088.19 665.405 3035.03C675.457 2990.02 657.031 2983.33 645.304 2987.35C630.594 2992.37 606.323 3017.04 618.961 3083.1Z" fill="#75895E"/>
<path d="M409.709 2510.77C447.465 2469.93 468.105 2362.81 465.737 2357.04C463.369 2351.27 461.392 2354.03 460.934 2356.13C460.477 2358.23 447.172 2400.76 437.694 2422.44C426.342 2448.42 396.444 2485.85 356.188 2503.63C322.111 2518.68 326.593 2533.87 334.837 2539.57C345.153 2546.72 372.829 2550.67 409.709 2510.77Z" fill="#B14B57"/>
<path d="M426.457 2397.35C468.528 2346.26 485.751 2217.59 482.545 2210.9C479.338 2204.21 477.178 2207.62 476.777 2210.14C476.377 2212.67 463.468 2264.1 453.685 2290.51C441.968 2322.14 409 2368.65 362.388 2392.51C322.93 2412.71 329.289 2430.46 339.47 2436.66C352.214 2444.45 385.361 2447.26 426.457 2397.35Z" fill="#B14B57"/>
<path d="M726.12 3177.28C742.085 3260.73 855.043 3383.25 864.281 3385.57C873.519 3387.89 871.925 3382.96 869.756 3380.49C867.588 3378.02 827.376 3323.1 809.316 3291.78C787.686 3254.27 768.78 3183.57 783.433 3117.96C795.837 3062.43 773.099 3054.16 758.627 3059.13C740.476 3065.32 710.525 3095.76 726.12 3177.28Z" fill="#75895E"/>
<path d="M764.554 1629.7C784.886 1695.38 886.739 1783.79 894.378 1784.83C902.018 1785.87 900.293 1782.04 898.327 1780.25C896.361 1778.46 859.087 1737.89 841.749 1714.33C820.985 1686.1 799.431 1630.93 805.328 1576.84C810.32 1531.06 791.289 1526.45 780.095 1531.75C766.051 1538.36 744.692 1565.53 764.554 1629.7Z" fill="#75895E"/>
<path d="M546.076 1905.27C546.076 1917.81 535.263 1929.25 522.723 1929.25C510.183 1929.25 499.273 1916.91 499.273 1904.37C499.273 1891.83 511.117 1881.71 523.657 1881.71C536.197 1881.71 546.076 1892.73 546.076 1905.27Z" fill="#DF980C"/>
<path d="M490.961 1943.05C490.961 1955.59 483.385 1966.61 467.06 1967.76C454.52 1967.76 443.84 1955.59 443.84 1943.05C443.84 1930.51 454.52 1921.29 467.06 1921.29C479.6 1921.29 490.961 1930.51 490.961 1943.05Z" fill="#DF980C"/>
<path d="M930.549 1891.79C999.187 1941.62 1065.96 2032.12 1090.99 2070.84C1094.79 2076.62 1101.65 2084.4 1110.2 2082.97C1117.04 2081.83 1117.8 2072.52 1117.32 2068.01C1115.42 2051.51 1087.45 1979.04 947.054 1876.02C796.248 1765.36 653.592 1797.97 608.369 1827.93C573.598 1793.83 534.279 1818.32 530.651 1822.54C527.749 1825.92 529.442 1827.54 530.651 1827.93C549.698 1833.13 560.076 1839.05 579.572 1861.08C599.068 1883.11 596.587 1914.15 596.784 1918.85C596.903 1921.7 597.651 1921.59 598.76 1921.31C637.779 1902.32 630.421 1862.06 621.864 1844.3C726.825 1790.96 849.234 1832.76 930.549 1891.79Z" fill="#75895E"/>
<path d="M386.08 1831.81C446.273 1814.47 510.631 1829.69 535.286 1839.46C545.116 1843.96 541.982 1847.34 539.186 1848.47C480.617 1871.15 432.672 1906.75 401.665 1950.68C370.658 1994.6 400.803 2018.72 462.53 1991.73C524.257 1964.74 570.514 1923.12 577.889 1902.28C579.779 1896.95 584.696 1894.58 585.853 1903.36C591.011 1995.84 535.762 2057.45 500.003 2070.29C472.258 2080.25 446.583 2045.21 437.515 2027.35C425.612 2046.06 389.054 2063.91 371.201 2066.89C353.348 2069.86 307.862 2063.91 302.336 2008.65C297.915 1964.44 346.404 1935.53 371.201 1926.61C352.922 1913.85 310.838 1853.49 386.08 1831.81Z" fill="#B14B57"/>
<path d="M695.886 2791.19C710.91 2791.29 723.539 2778.85 723.638 2763.83C723.737 2748.81 710.91 2735.55 695.886 2735.45C680.862 2735.35 667.482 2745.72 667.383 2760.75C667.284 2775.77 680.862 2791.09 695.886 2791.19Z" fill="#DF980C"/>
<path d="M744.445 2725.17C759.469 2725.27 772.005 2713.69 773.086 2696.4C773.185 2681.38 759.469 2670.81 744.445 2670.71C729.421 2670.62 716.289 2683.56 716.19 2698.58C716.091 2713.61 729.421 2725.07 744.445 2725.17Z" fill="#DF980C"/>
<path d="M677.418 3252.07C736.578 3334.7 844.483 3415.41 890.675 3445.7C897.571 3450.3 906.83 3458.58 905.055 3468.81C903.635 3477 892.476 3477.83 887.074 3477.23C867.315 3474.82 780.711 3440.74 658.386 3271.72C526.994 3090.16 567.187 2919.5 603.443 2865.56C562.864 2823.63 592.514 2776.71 597.604 2772.4C601.676 2768.95 603.602 2770.99 604.056 2772.44C610.136 2795.3 617.144 2807.78 643.387 2831.32C669.631 2854.85 706.834 2852.12 712.47 2852.39C715.887 2852.56 715.749 2853.45 715.404 2854.78C692.337 2901.38 644.16 2892.25 622.954 2881.85C558.216 3007.19 607.332 3154.18 677.418 3252.07Z" fill="#75895E"/>
<path d="M609.847 2599.26C588.593 2671.24 606.318 2748.47 617.838 2778.09C623.154 2789.9 627.226 2786.17 628.597 2782.83C656.233 2712.84 699.264 2655.67 752.137 2618.87C805.011 2582.07 833.667 2618.37 800.846 2692.12C768.026 2765.86 717.787 2820.95 692.77 2829.62C686.358 2831.85 683.487 2837.72 693.996 2839.17C804.751 2846.08 879.004 2780.37 894.669 2737.63C906.823 2704.47 865.041 2673.43 843.722 2662.43C866.225 2648.31 887.904 2604.65 891.61 2583.29C895.316 2561.92 888.544 2507.38 822.378 2500.32C769.445 2494.67 734.43 2552.54 723.539 2582.18C708.404 2560.18 636.415 2509.28 609.847 2599.26Z" fill="#B14B57"/>
<path d="M780.53 1981.42C919.383 1977.91 1012.27 2025.52 1036.49 2046.96C1038.37 2048.29 1068.65 2078.68 1012.43 2050.52C923.204 2005.82 719.089 1970.98 629.228 2076.89C540.738 2181.18 565.054 2257.97 532.649 2437.79C506.725 2581.64 414.68 2619.3 371.898 2620.14C346.906 2620.35 313.061 2610.49 377.616 2569.31C458.31 2517.85 471.234 2471.44 482.453 2397.12C493.672 2322.8 496.442 2268.05 520.587 2180.37C544.731 2092.68 615.527 1985.59 780.53 1981.42Z" fill="#75895E"/>
<path d="M1137.64 2562.41C1158.51 2662.15 1119.99 2848.23 1098.15 2929.44C1092.52 2941.15 1089.93 2915.67 1089.3 2897.64C1086.92 2829.63 1056.24 2793.97 1000.24 2763.42C942.346 2731.84 960.248 2697.56 983.603 2681.68C1026.52 2652.49 1086.6 2734.89 1059.13 2638.19C1031.67 2541.49 1035.13 2508.73 1043.11 2488.85C1064.31 2443.68 1116.78 2462.66 1137.64 2562.41Z" fill="#75895E"/>
<path d="M1331.14 2086.09C1298.81 2182.73 1315.41 2372.02 1327.65 2455.22C1331.89 2467.51 1337.42 2442.51 1340.15 2424.67C1350.42 2357.4 1385.04 2325.55 1444.21 2301.73C1505.39 2277.09 1491.6 2240.96 1470.25 2222.47C1431.02 2188.5 1361.76 2263.34 1400.29 2170.49C1438.82 2077.64 1439.2 2044.7 1433.58 2024.03C1417.78 1976.7 1363.46 1989.45 1331.14 2086.09Z" fill="#75895E"/>
<path d="M768.323 3755.27C788.661 3935.2 826.299 4049.91 833.031 4063.65C835.4 4068.49 838.35 4077.16 843.751 4084.83C853.697 4098.97 865.786 4108.09 854.301 4072.15C836.581 4016.69 839.43 3934.97 838.823 3889.14C838.126 3797.03 833.287 3611.7 799.011 3494.15C759.56 3358.84 607.669 3316.3 527.559 3342.18C457.337 3364.87 395.184 3470.79 448.098 3545.11C485.246 3597.29 535.413 3575.57 551.196 3545.11C556.917 3531.16 580.222 3504.34 627.676 3508.65C686.994 3514.05 747.414 3570.28 768.323 3755.27Z" fill="#4E6F82"/>
<path d="M1098.91 3497.84C974.254 3538.43 893.738 3672.82 869.061 3734.94C854.39 3779.75 893.391 3727.17 906.334 3712.68C934.529 3671.92 1014.86 3590.32 1104.6 3563.59C1207.68 3532.89 1256.76 3596.83 1236.61 3631.92C1216.29 3667.32 1195.73 3740.52 1238.95 3754.09C1292.39 3770.88 1341.97 3744.9 1340.97 3642.14C1340.01 3542.78 1247.13 3449.59 1098.91 3497.84Z" fill="#4E6F82"/>
<path d="M949.943 4174.08C905.621 3970.85 1020.74 3874.88 1088.75 3849.88C1109.66 3842.02 1115.16 3840.78 1148.75 3839C1166.07 3838.09 1191.57 3835.03 1202.63 3813.97C1214.91 3790.57 1205.05 3726.11 1121.55 3703.16C1040 3680.75 902.54 3727.82 876.3 3855.18C851.808 3974.06 888.46 4112.6 934.403 4201.78C971.158 4273.13 960.078 4213.04 949.943 4174.08Z" fill="#75895E"/>
<path d="M1200.3 4459.57C1428.07 4551.82 1555.09 4476.24 1590.12 4426.91C1617.13 4380.94 1597 4341.56 1580.31 4322.61C1563.62 4303.65 1488.95 4271.88 1439.28 4332.8C1396.08 4385.79 1439.49 4435.86 1460.8 4451.75C1440.41 4460.24 1326.56 4483.46 1200.3 4365.09C1074.04 4246.71 1102.27 4105.67 1139.65 4069.42C1177.03 4033.17 1214.17 4037.89 1255.76 4032.61C1300.39 4026.94 1305.32 4003 1306.74 3990.69C1308.93 3971.71 1287.56 3900.42 1183.34 3905.52C1079.12 3910.61 1038.96 3963.94 1009.37 4007.82C979.773 4051.7 915.594 4344.26 1200.3 4459.57Z" fill="#4E6F82"/>
<path d="M2708.99 2086.09C2741.32 2182.73 2724.71 2372.02 2712.47 2455.22C2708.24 2467.51 2702.7 2442.51 2699.98 2424.67C2689.7 2357.39 2655.08 2325.55 2595.91 2301.72C2534.73 2277.09 2548.52 2240.96 2569.87 2222.47C2609.1 2188.49 2678.36 2263.34 2639.83 2170.49C2601.3 2077.64 2600.93 2044.7 2606.54 2024.03C2622.34 1976.7 2676.66 1989.45 2708.99 2086.09Z" fill="#75895E"/>
<path d="M3115.35 4562.95C2855.35 4746.9 2561.72 4613.36 2482.06 4547.83C2463.83 4535.74 2439.07 4511.14 2436.72 4519.05C2434.37 4526.96 2570.37 4714.45 2828.93 4751.49C3087.49 4788.54 3224.48 4727.01 3300.3 4599.65C3340.99 4522.97 3342.94 4401.92 3115.35 4562.95Z" fill="#4E6F82"/>
<path d="M3167.35 4217.76C3024.23 4525.97 2681.58 4558.09 2573.08 4539.68C2549.78 4538.16 2513.81 4528.52 2515.83 4537.09C2517.86 4545.65 2743.2 4647.09 3002.21 4544.23C3261.22 4441.38 3355.4 4311.76 3358.04 4153.64C3355.03 4061.07 3292.63 3947.98 3167.35 4217.76Z" fill="#4E6F82"/>
<path d="M2952 1266.65C3023.03 1354.67 3051.73 1504.7 3057.2 1568.72C3057.91 1576.2 3057.99 1587.69 3051.73 1590.54C3042.23 1594.86 3032.54 1574.69 3029.21 1561.97C3025.03 1546.85 3008.56 1492.29 2976.13 1395.01C2943.7 1297.73 2871.9 1277.91 2840.06 1280.16C2815.26 1278.82 2739.89 1294.94 2755.13 1361.23C2770.7 1428.96 2639.67 1505.16 2567.9 1419.13C2496.14 1333.11 2628.7 1223.22 2681.78 1200.06C2734.86 1176.9 2863.22 1156.63 2952 1266.65Z" fill="#4E6F82"/>
<path d="M2910.36 2912.54C2962.87 3178.75 3168.06 3561 3185.41 3582.99C3203.91 3604.91 3200.85 3614.09 3193.97 3618.93C3188.68 3621.86 3179.28 3622.31 3152.17 3582.99C3084.5 3484.79 2875.25 3055.75 2834.95 2939.47C2794.64 2823.19 2662.77 2361.36 2875.34 2167.18C3087.91 1973 3274.6 2166.21 3308.04 2216.89C3341.48 2267.56 3372.17 2371.32 3282.83 2401.4C3183.91 2434.71 3152.54 2385.33 3113.21 2339.51C3075.44 2295.52 2981.95 2262.34 2927.55 2329.2C2877.18 2391.09 2847.82 2595.54 2910.36 2912.54Z" fill="#4E6F82"/>
<path d="M3013.26 1309.63C3013.26 1324.68 3020.87 1337.98 3039.95 1339.87C3055 1339.87 3069.05 1328.15 3069.05 1313.1C3069.05 1298.05 3055.89 1283.96 3040.84 1283.96C3025.79 1283.96 3013.26 1294.58 3013.26 1309.63Z" fill="#B14B57"/>
<path d="M3056.31 1399.66C3056.31 1417.81 3071.56 1433.59 3089.71 1433.59C3107.86 1433.59 3123.86 1416.45 3123.86 1398.3C3123.86 1380.15 3108.54 1366.83 3090.39 1366.83C3072.24 1366.83 3056.31 1381.51 3056.31 1399.66Z" fill="#B14B57"/>
<path d="M3080.95 1520.97C3080.95 1540.88 3100.25 1557.28 3120.15 1557.28C3140.06 1557.28 3155.3 1540.24 3155.3 1520.34C3155.3 1500.43 3136.68 1483.32 3116.77 1483.32C3096.87 1483.32 3080.95 1501.07 3080.95 1520.97Z" fill="#B14B57"/>
<path d="M2560.26 2943.98C2572.29 2953.03 2590.75 2951.5 2599.81 2939.48C2608.86 2927.46 2605.07 2909.5 2593.05 2900.44C2581.03 2891.39 2564.49 2892.04 2554.8 2904.91C2545.75 2916.94 2546.92 2935.25 2560.26 2943.98Z" fill="#B14B57"/>
<path d="M2657.91 2963.41C2672.41 2974.33 2692.49 2971.41 2703.41 2956.91C2714.33 2942.42 2712.99 2920.36 2698.49 2909.44C2683.99 2898.53 2657.91 2901.47 2649.44 2916.24C2638.52 2930.74 2643.41 2952.5 2657.91 2963.41Z" fill="#B14B57"/>
<path d="M2767.82 3014.53C2783.72 3026.5 2809.09 3026.35 2820.12 3009.41C2832.09 2993.51 2828.47 2968.54 2812.57 2956.57C2796.67 2944.6 2772.02 2949.19 2760.05 2965.09C2748.08 2980.99 2751.92 3002.55 2767.82 3014.53Z" fill="#B14B57"/>
<path d="M2851.6 4201.27C2837.69 4206.99 2830.5 4224.35 2836.22 4238.27C2841.95 4252.19 2859.72 4260.06 2873.64 4254.34C2887.56 4248.62 2894.14 4230.84 2888.42 4216.92C2882.7 4203 2868.09 4195.87 2851.6 4201.27Z" fill="#B14B57"/>
<path d="M2802.78 4286.35C2785.99 4293.26 2779.44 4312.56 2786.34 4329.35C2793.82 4344.69 2812.81 4353.26 2829.23 4347.25C2846.02 4340.34 2854.62 4318.36 2847.72 4301.57C2840.82 4284.79 2819.56 4279.45 2802.78 4286.35Z" fill="#B14B57"/>
<path d="M2707.09 4339.01C2687.65 4344.27 2676.67 4363.99 2685.15 4384.44C2692.72 4402.85 2713.78 4413.71 2732.19 4406.14C2750.6 4398.57 2761.7 4379.12 2754.13 4360.71C2746.56 4342.3 2725.5 4331.44 2707.09 4339.01Z" fill="#B14B57"/>
<path d="M3015.25 1801.43C2986.78 1957.34 2882.15 2122.55 2844.8 2146.15C2839.52 2152.17 2823.61 2160.85 2834.47 2129.88C2845.32 2098.92 2891.71 2044.78 2902.49 1994.1C2912.9 1945.15 2900.95 1903.14 2882.64 1877.65C2863.11 1850.48 2858.54 1814.16 2861.73 1803.54C2866.72 1786.9 2904.41 1763.49 2912.28 1760.13C2917.08 1758.09 2916.51 1755.46 2914.93 1754.05C2897.46 1740.02 2862.79 1687.61 2852.73 1650.03C2842.67 1612.44 2867.67 1585.37 2877.61 1566.39C2884.38 1553.47 2880.86 1524.99 2877.61 1510.02C2873.03 1496.06 2865.15 1462.3 2870.24 1438.9C2875.33 1415.49 2905.44 1429.14 2919.85 1438.9C2994.9 1494.87 3045.12 1637.88 3015.25 1801.43Z" fill="#75895E"/>
<path d="M2924.9 3341.24C3005.34 3395.63 3074.67 3486.18 3079.79 3509.01C3082 3512.96 3083.42 3522.32 3068.55 3509.22C3053.69 3496.12 3033.55 3461.1 3007.74 3442.75C2982.79 3425.02 2956.93 3419.03 2938.87 3420.3C2919.62 3421.64 2898.49 3413.93 2893.28 3409.67C2885.11 3403 2880.17 3380.06 2879.99 3375.68C2879.88 3373.01 2878.3 3372.56 2877.17 3372.88C2865.66 3376.84 2829.17 3378.12 2806.17 3372.49C2783.16 3366.85 2773.48 3348.54 2765.07 3339.06C2759.34 3332.61 2742.79 3326.52 2733.78 3323.95C2725.06 3322.23 2704.65 3316.66 2692.74 3308.13C2680.84 3299.61 2694.85 3289.96 2703.34 3286.2C2750.43 3268.03 2840.52 3284.18 2924.9 3341.24Z" fill="#75895E"/>
<path d="M3063.05 3129.16C3053.72 3252.93 3100.25 3398.85 3123.87 3424.13C3126.68 3429.74 3137.01 3439.47 3134.93 3413.85C3132.85 3388.24 3108.42 3338.03 3110.3 3297.5C3112.12 3258.34 3129.49 3228.88 3148.42 3213.2C3168.6 3196.48 3179.27 3169.87 3178.95 3161.19C3178.46 3147.59 3154.55 3122.39 3149.25 3118.28C3146.02 3115.78 3146.97 3113.9 3148.45 3113.14C3164.47 3105.98 3201.13 3073.14 3216.2 3046.66C3231.26 3020.18 3217.69 2994.71 3213.92 2978.36C3211.35 2967.23 3219.66 2946.34 3225.09 2935.65C3231.33 2925.98 3243.99 2901.96 3244.77 2883.22C3245.55 2864.48 3220.04 2868.86 3207.18 2873.39C3139.23 2900.92 3072.83 2999.33 3063.05 3129.16Z" fill="#75895E"/>
<path d="M3176.2 1709.42C3153.01 1793.11 3027.76 1908.54 3018.16 1910.14C3008.56 1911.73 3010.59 1906.84 3013 1904.51C3015.42 1902.17 3060.94 1849.56 3081.94 1819.16C3107.09 1782.75 3132.22 1712.29 3122.74 1644.24C3114.71 1586.64 3138.56 1580.1 3152.89 1586.37C3170.87 1594.18 3198.85 1627.68 3176.2 1709.42Z" fill="#75895E"/>
<path d="M2714.95 3019.77C2845.85 3091.62 2990.24 3312.26 2989.18 3325.57C2988.13 3338.88 2980.74 3333.8 2977.77 3329.5C2974.81 3325.19 2904.51 3239.69 2861.83 3197.2C2810.72 3146.31 2702.69 3078.51 2585.25 3057.02C2485.85 3038.82 2484.17 3004.49 2500.21 2988.93C2520.24 2969.39 2587.09 2949.58 2714.95 3019.77Z" fill="#4E6F82"/>
<path d="M3643.84 2915.21C3579.98 2952.36 3512.03 3080.34 3512.79 3088.59C3513.55 3096.84 3517.13 3094.11 3518.53 3091.62C3519.93 3089.13 3553.4 3040.31 3573.89 3016.47C3598.42 2987.91 3650.98 2952.02 3709.02 2945.13C3758.16 2939.29 3758.39 2918.26 3750.14 2907.82C3739.82 2894.71 3706.22 2878.92 3643.84 2915.21Z" fill="#75895E"/>
<path d="M3413.93 3670.12C3355.14 3714.87 3303.5 3850.25 3305.27 3858.35C3307.04 3866.44 3310.26 3863.29 3311.34 3860.64C3312.42 3858 3339.61 3805.42 3357 3779.23C3377.83 3747.87 3425.55 3705.77 3482.31 3691.77C3530.35 3679.93 3527.98 3659.02 3518.51 3649.68C3506.66 3637.95 3471.36 3626.41 3413.93 3670.12Z" fill="#B14B57"/>
<path d="M3605.87 3053.02C3533.06 3095.38 3455.59 3241.3 3456.45 3250.71C3457.32 3260.11 3461.41 3257 3463 3254.16C3464.6 3251.32 3502.76 3195.66 3526.11 3168.47C3554.09 3135.91 3614.01 3094.99 3680.19 3087.13C3736.21 3080.48 3736.47 3056.5 3727.07 3044.6C3715.31 3029.65 3676.99 3011.64 3605.87 3053.02Z" fill="#75895E"/>
<path d="M3393.25 3811.56C3326.22 3862.58 3267.33 4016.94 3269.35 4026.17C3271.37 4035.39 3275.04 4031.8 3276.28 4028.79C3277.51 4025.77 3308.51 3965.83 3328.34 3935.97C3352.08 3900.21 3406.5 3852.21 3471.21 3836.25C3525.98 3822.74 3523.28 3798.91 3512.48 3788.26C3498.97 3774.88 3458.72 3761.73 3393.25 3811.56Z" fill="#B14B57"/>
<path d="M3436.39 3083.1C3423.46 3150.72 3331.92 3250 3324.43 3251.88C3316.95 3253.76 3318.24 3249.77 3320 3247.77C3321.75 3245.77 3354.34 3201.26 3368.98 3175.88C3386.5 3145.49 3401.82 3088.19 3389.95 3035.03C3379.9 2990.02 3398.32 2983.32 3410.05 2987.35C3424.76 2992.37 3449.03 3017.04 3436.39 3083.1Z" fill="#75895E"/>
<path d="M3645.65 2510.77C3607.89 2469.93 3587.25 2362.81 3589.62 2357.04C3591.99 2351.27 3593.96 2354.03 3594.42 2356.13C3594.88 2358.23 3608.18 2400.76 3617.66 2422.44C3629.01 2448.42 3658.91 2485.85 3699.17 2503.63C3733.24 2518.68 3728.76 2533.87 3720.52 2539.57C3710.2 2546.72 3682.53 2550.67 3645.65 2510.77Z" fill="#B14B57"/>
<path d="M3628.9 2397.35C3586.83 2346.26 3569.61 2217.59 3572.81 2210.9C3576.02 2204.21 3578.18 2207.62 3578.58 2210.14C3578.98 2212.67 3591.89 2264.1 3601.67 2290.51C3613.39 2322.14 3646.36 2368.65 3692.97 2392.51C3732.43 2412.71 3726.07 2430.46 3715.89 2436.66C3703.14 2444.45 3670 2447.26 3628.9 2397.35Z" fill="#B14B57"/>
<path d="M3329.24 3177.28C3313.27 3260.73 3200.31 3383.25 3191.08 3385.57C3181.84 3387.89 3183.43 3382.96 3185.6 3380.49C3187.77 3378.02 3227.98 3323.1 3246.04 3291.78C3267.67 3254.27 3286.58 3183.57 3271.92 3117.96C3259.52 3062.43 3282.26 3054.16 3296.73 3059.13C3314.88 3065.32 3344.83 3095.76 3329.24 3177.28Z" fill="#75895E"/>
<path d="M3290.8 1629.69C3270.47 1695.38 3168.62 1783.79 3160.98 1784.83C3153.34 1785.86 3155.06 1782.04 3157.03 1780.25C3158.99 1778.46 3196.27 1737.89 3213.61 1714.33C3234.37 1686.1 3255.92 1630.93 3250.03 1576.84C3245.04 1531.06 3264.07 1526.45 3275.26 1531.75C3289.3 1538.36 3310.66 1565.53 3290.8 1629.69Z" fill="#75895E"/>
<path d="M3509.28 1905.27C3509.28 1917.81 3520.09 1929.25 3532.63 1929.25C3545.17 1929.25 3556.08 1916.91 3556.08 1904.37C3556.08 1891.83 3544.24 1881.71 3531.7 1881.71C3519.16 1881.71 3509.28 1892.73 3509.28 1905.27Z" fill="#DF980C"/>
<path d="M3564.39 1943.05C3564.39 1955.59 3571.97 1966.61 3588.3 1967.75C3600.84 1967.75 3611.52 1955.59 3611.52 1943.05C3611.52 1930.51 3600.84 1921.29 3588.3 1921.29C3575.76 1921.29 3564.39 1930.51 3564.39 1943.05Z" fill="#DF980C"/>
<path d="M3124.81 1891.79C3056.17 1941.62 2989.4 2032.12 2964.37 2070.84C2960.57 2076.62 2953.71 2084.4 2945.16 2082.97C2938.32 2081.83 2937.56 2072.52 2938.03 2068.01C2939.93 2051.51 2967.9 1979.04 3108.3 1876.02C3259.11 1765.36 3401.76 1797.96 3446.99 1827.93C3481.76 1793.83 3521.08 1818.32 3524.7 1822.54C3527.61 1825.92 3525.91 1827.54 3524.7 1827.93C3505.66 1833.13 3495.28 1839.05 3475.78 1861.08C3456.29 1883.11 3458.77 1914.14 3458.57 1918.85C3458.45 1921.7 3457.7 1921.59 3456.6 1921.31C3417.58 1902.32 3424.93 1862.06 3433.49 1844.3C3328.53 1790.96 3206.12 1832.76 3124.81 1891.79Z" fill="#75895E"/>
<path d="M3669.28 1831.81C3609.08 1814.47 3544.72 1829.68 3520.07 1839.46C3510.24 1843.96 3513.37 1847.34 3516.17 1848.47C3574.74 1871.15 3622.68 1906.75 3653.69 1950.68C3684.7 1994.6 3654.55 2018.72 3592.83 1991.73C3531.1 1964.74 3484.84 1923.12 3477.47 1902.28C3475.58 1896.94 3470.66 1894.58 3469.5 1903.36C3464.34 1995.84 3519.59 2057.45 3555.35 2070.29C3583.1 2080.25 3608.77 2045.21 3617.84 2027.35C3629.74 2046.06 3666.3 2063.91 3684.15 2066.88C3702.01 2069.86 3747.49 2063.91 3753.02 2008.65C3757.44 1964.44 3708.95 1935.53 3684.15 1926.61C3702.43 1913.85 3744.52 1853.49 3669.28 1831.81Z" fill="#B14B57"/>
<path d="M3359.47 2791.19C3344.45 2791.29 3331.82 2778.85 3331.72 2763.83C3331.62 2748.81 3344.45 2735.55 3359.47 2735.45C3374.5 2735.35 3387.88 2745.72 3387.97 2760.75C3388.07 2775.77 3374.5 2791.09 3359.47 2791.19Z" fill="#DF980C"/>
<path d="M3310.91 2725.17C3295.89 2725.27 3283.35 2713.69 3282.27 2696.4C3282.17 2681.38 3295.89 2670.81 3310.91 2670.71C3325.94 2670.61 3339.07 2683.56 3339.17 2698.58C3339.27 2713.61 3325.94 2725.07 3310.91 2725.17Z" fill="#DF980C"/>
<path d="M3377.94 3252.07C3318.78 3334.69 3210.87 3415.41 3164.68 3445.7C3157.79 3450.3 3148.53 3458.58 3150.3 3468.81C3151.72 3477 3162.88 3477.83 3168.28 3477.23C3188.04 3474.82 3274.65 3440.74 3396.97 3271.72C3528.36 3090.16 3488.17 2919.5 3451.91 2865.56C3492.49 2823.63 3462.84 2776.71 3457.75 2772.4C3453.68 2768.95 3451.76 2770.99 3451.3 2772.44C3445.22 2795.3 3438.21 2807.78 3411.97 2831.31C3385.73 2854.85 3348.52 2852.12 3342.89 2852.39C3339.47 2852.56 3339.61 2853.45 3339.95 2854.78C3363.02 2901.38 3411.2 2892.24 3432.4 2881.85C3497.14 3007.19 3448.03 3154.18 3377.94 3252.07Z" fill="#75895E"/>
<path d="M3445.51 2599.26C3466.76 2671.24 3449.04 2748.47 3437.52 2778.08C3432.2 2789.9 3428.13 2786.17 3426.76 2782.83C3399.12 2712.84 3356.09 2655.67 3303.22 2618.87C3250.34 2582.06 3221.69 2618.37 3254.51 2692.12C3287.33 2765.86 3337.57 2820.95 3362.59 2829.62C3369 2831.84 3371.87 2837.72 3361.36 2839.17C3250.6 2846.08 3176.35 2780.37 3160.69 2737.63C3148.53 2704.47 3190.31 2673.43 3211.63 2662.43C3189.13 2648.31 3167.45 2604.65 3163.75 2583.29C3160.04 2561.92 3166.81 2507.37 3232.98 2500.32C3285.91 2494.67 3320.93 2552.54 3331.82 2582.18C3346.95 2560.18 3418.94 2509.28 3445.51 2599.26Z" fill="#B14B57"/>
<path d="M3274.83 1981.42C3135.97 1977.91 3043.08 2025.52 3018.87 2046.96C3016.98 2048.29 2986.71 2078.68 3042.93 2050.52C3132.15 2005.82 3336.27 1970.98 3426.13 2076.89C3514.62 2181.18 3490.3 2257.97 3522.71 2437.79C3548.63 2581.64 3640.68 2619.29 3683.46 2620.14C3708.45 2620.35 3742.29 2610.48 3677.74 2569.31C3597.05 2517.84 3584.12 2471.44 3572.9 2397.12C3561.68 2322.8 3558.91 2268.05 3534.77 2180.37C3510.62 2092.68 3439.83 1985.59 3274.83 1981.42Z" fill="#75895E"/>
<path d="M2917.71 2562.41C2896.85 2662.15 2935.37 2848.23 2957.21 2929.44C2962.84 2941.15 2965.43 2915.67 2966.06 2897.64C2968.44 2829.62 2999.12 2793.97 3055.12 2763.42C3113.01 2731.84 3095.11 2697.56 3071.75 2681.68C3028.84 2652.49 2968.76 2734.89 2996.22 2638.19C3023.69 2541.49 3020.22 2508.73 3012.24 2488.84C2991.04 2443.68 2938.58 2462.66 2917.71 2562.41Z" fill="#75895E"/>
<path d="M3287.03 3755.27C3266.69 3935.2 3229.06 4049.9 3222.32 4063.65C3219.96 4068.49 3217.01 4077.16 3211.6 4084.83C3201.66 4098.97 3189.57 4108.09 3201.05 4072.15C3218.77 4016.69 3215.93 3934.96 3216.53 3889.14C3217.23 3797.03 3222.07 3611.7 3256.34 3494.14C3295.8 3358.84 3447.69 3316.3 3527.8 3342.18C3598.02 3364.87 3660.17 3470.79 3607.26 3545.11C3570.11 3597.29 3519.94 3575.57 3504.16 3545.11C3498.44 3531.16 3475.13 3504.34 3427.68 3508.65C3368.36 3514.05 3307.94 3570.28 3287.03 3755.27Z" fill="#4E6F82"/>
<path d="M2956.45 3497.84C3081.1 3538.43 3161.62 3672.82 3186.3 3734.94C3200.97 3779.75 3161.97 3727.16 3149.02 3712.68C3120.83 3671.92 3040.49 3590.31 2950.75 3563.59C2847.67 3532.89 2798.59 3596.83 2818.74 3631.92C2839.07 3667.32 2859.62 3740.52 2816.41 3754.09C2762.96 3770.88 2713.39 3744.9 2714.39 3642.14C2715.35 3542.78 2808.22 3449.59 2956.45 3497.84Z" fill="#4E6F82"/>
<path d="M3105.41 4174.08C3149.73 3970.85 3034.62 3874.88 2966.61 3849.88C2945.7 3842.02 2940.19 3840.78 2906.6 3839C2889.29 3838.09 2863.79 3835.03 2852.73 3813.97C2840.44 3790.57 2850.31 3726.11 2933.8 3703.16C3015.35 3680.75 3152.82 3727.82 3179.06 3855.18C3203.55 3974.06 3166.9 4112.6 3120.95 4201.78C3084.2 4273.13 3095.28 4213.04 3105.41 4174.08Z" fill="#75895E"/>
<path d="M2855.05 4459.57C2627.28 4551.82 2500.27 4476.23 2465.23 4426.91C2438.23 4380.94 2458.35 4341.56 2475.04 4322.6C2491.73 4303.65 2566.41 4271.88 2616.08 4332.8C2659.28 4385.79 2615.86 4435.86 2594.55 4451.74C2614.94 4460.24 2728.79 4483.46 2855.05 4365.08C2981.31 4246.71 2953.09 4105.67 2915.71 4069.42C2878.32 4033.17 2841.19 4037.89 2799.59 4032.6C2754.96 4026.94 2750.03 4002.99 2748.62 3990.69C2746.43 3971.71 2767.8 3900.42 2872.02 3905.52C2976.24 3910.61 3016.4 3963.93 3045.99 4007.81C3075.58 4051.69 3139.76 4344.25 2855.05 4459.57Z" fill="#4E6F82"/>
<path d="M1890.14 888.609C1890.14 907.48 1874.28 923.886 1855.41 923.886C1836.54 923.886 1819.9 906.069 1819.9 887.198C1819.9 868.326 1835.84 854.473 1854.71 854.473C1873.58 854.473 1890.14 869.737 1890.14 888.609Z" fill="#DF980C"/>
<path d="M1800.69 1073.27C1816.81 1083.07 1824.57 1101.4 1814.76 1117.52C1804.95 1133.65 1779.11 1142.35 1762.98 1132.54C1746.86 1122.74 1743.31 1101.92 1753.11 1085.8C1762.92 1069.68 1784.57 1063.46 1800.69 1073.27Z" fill="#DF980C"/>
<path d="M1619.12 1088.79C1629.7 1278.07 1862.65 1414.77 1972.34 1453.91C1986.24 1458.76 2008.46 1459.55 1963.96 1431.3C1762.93 1296.25 1713.38 1178.46 1704.33 1098.55C1694.89 1015.22 1759.99 1013.23 1802.09 1018.28C1834.8 1022.2 1823.01 1005.54 1812.38 998.037C1800.02 988.126 1783.34 965.931 1773.28 913.649C1752.01 821.028 1850.12 784.322 1896.09 826.516C1932.86 860.272 1935.88 850.186 1932.79 840.924C1902.6 762.711 1908.78 675.579 1941.71 651.223C1974.64 626.867 2008.26 646.42 2014.78 651.223C2019.99 655.065 2023.6 659.244 2029.08 659.244V556.208C1865.82 556.208 1854.29 686.15 1868.94 751.122C1832.33 713.603 1731.67 728.245 1702.39 806.942C1678.96 869.9 1706.66 938.715 1723.44 965.252C1677.68 938.715 1619.12 968.913 1619.12 1088.79Z" fill="#B14B57"/>
<path d="M2439.04 1088.79C2428.45 1278.07 2195.5 1414.77 2085.81 1453.91C2071.91 1458.76 2049.69 1459.55 2094.2 1431.3C2295.23 1296.25 2344.78 1178.46 2353.83 1098.55C2363.26 1015.22 2298.17 1013.23 2256.06 1018.28C2223.35 1022.2 2235.14 1005.54 2245.77 998.037C2258.13 988.126 2274.81 965.931 2284.88 913.649C2306.14 821.028 2208.03 784.322 2162.07 826.516C2125.29 860.272 2122.27 850.186 2125.36 840.924C2155.55 762.711 2149.37 675.579 2116.44 651.223C2083.51 626.867 2049.89 646.42 2043.37 651.223C2038.16 655.065 2034.48 659.244 2029.08 659.244V556.208C2192.33 556.208 2203.86 686.15 2189.22 751.122C2225.82 713.603 2326.48 728.245 2355.76 806.942C2379.19 869.9 2351.49 938.715 2334.72 965.252C2380.47 938.715 2439.04 968.913 2439.04 1088.79Z" fill="#B14B57"/>
<path d="M2036.12 1623.9C2029.34 1552.54 2017.01 1590.44 2012.63 1621.84C2001.31 1725.94 2005.68 2081.14 2007.24 2115.6C2008.8 2150.06 2030.04 2172.38 2036.12 2123.03C2042.19 2073.67 2043.97 1706.59 2036.12 1623.9Z" fill="#75895E"/>
<path d="M2376.37 1478.4C2234.3 1436.5 2125.14 1539.38 2099.92 1580.19C2093.71 1588.25 2086.51 1602.8 2084.29 1599.67C2082.07 1596.54 2113.76 1493.59 2221.98 1438.44C2330.21 1383.3 2399.74 1389.8 2452.25 1434.46C2481.67 1462.09 2500.72 1515.07 2376.37 1478.4Z" fill="#4E6F82"/>
<path d="M1676.48 1478.4C1818.55 1436.5 1927.71 1539.38 1952.93 1580.19C1959.14 1588.25 1966.34 1602.8 1968.56 1599.67C1970.78 1596.54 1939.09 1493.59 1830.87 1438.44C1722.64 1383.3 1653.11 1389.8 1600.6 1434.46C1571.17 1462.09 1552.13 1515.07 1676.48 1478.4Z" fill="#4E6F82"/>
<path d="M2062.51 1057.5C2062.51 1076.37 2046.66 1092.78 2027.78 1092.78C2008.91 1092.78 1992.27 1074.96 1992.27 1056.09C1992.27 1037.22 2008.21 1023.36 2027.08 1023.36C2045.95 1023.36 2062.51 1038.63 2062.51 1057.5Z" fill="#DF980C"/>
<path d="M2045.16 1133.28C2061.28 1143.08 2067.05 1165.16 2057.25 1181.28C2047.44 1197.4 2023.57 1202.36 2007.45 1192.55C1991.33 1182.75 1987.77 1161.93 1997.58 1145.81C2007.38 1129.69 2029.03 1123.47 2045.16 1133.28Z" fill="#DF980C"/>
<path d="M2216.66 858.464C2232.78 868.27 2238.56 890.344 2228.75 906.467C2218.94 922.59 2195.07 927.547 2178.95 917.74C2162.83 907.933 2159.27 887.121 2169.08 870.998C2178.89 854.875 2200.54 848.657 2216.66 858.464Z" fill="#DF980C"/>
<path d="M2014.67 718.467C2032.23 711.548 2051.52 716.447 2058.43 734.005C2065.35 751.562 2056.67 777.413 2039.11 784.332C2021.55 791.251 2002.82 781.507 1995.91 763.95C1988.99 746.393 1997.12 725.386 2014.67 718.467Z" fill="#DF980C"/>
<path d="M2049.19 1254.55C2063.4 1267.88 2064.9 1291.04 2051.99 1304.8C2039.07 1318.56 2014.27 1318.1 2000.06 1304.77C1985.85 1291.43 1986.32 1270.02 1999.23 1256.26C2012.14 1242.5 2034.97 1241.21 2049.19 1254.55Z" fill="#DF980C"/>
<path d="M2289.06 1067.84C2303.27 1081.18 2304.77 1104.34 2291.86 1118.1C2278.95 1131.86 2254.14 1131.4 2239.93 1118.06C2225.72 1104.73 2226.19 1083.32 2239.1 1069.56C2252.02 1055.8 2274.85 1054.51 2289.06 1067.84Z" fill="#DF980C"/>
<path d="M1904.38 1801.45C1976.7 1919.87 1993.05 2105.64 1977.25 2150.31C1976.66 2158.27 1969.09 2176.46 1958.93 2148.73C1948.77 2121 1953.22 2050.33 1930.95 2010.61C1909.43 1972.23 1874.06 1956.2 1843.64 1955.44C1811.21 1954.63 1785.29 1936.11 1781.38 1927.04C1775.25 1912.81 1791.43 1867.98 1795.75 1859.56C1798.39 1854.42 1796.32 1853.27 1794.17 1853.69C1771.45 1859.25 1711.32 1855.27 1680.19 1840.42C1649.06 1825.57 1652.73 1788.77 1649.17 1769.12C1646.75 1755.73 1626.48 1741.16 1614.69 1734.63C1602.45 1729.8 1575.42 1715.53 1565.22 1697.09C1555.02 1678.65 1587.75 1662.63 1605.38 1656.93C1700.38 1630.4 1828.51 1677.23 1904.38 1801.45Z" fill="#75895E"/>
<path d="M2150.98 1803.92C2078.66 1922.34 2062.31 2108.11 2078.11 2152.78C2078.7 2160.74 2086.27 2178.93 2096.43 2151.2C2106.59 2123.47 2102.14 2052.8 2124.42 2013.08C2145.93 1974.7 2181.3 1958.67 2211.72 1957.91C2244.15 1957.1 2270.07 1938.58 2273.98 1929.51C2280.11 1915.28 2263.93 1870.46 2259.61 1862.03C2256.98 1856.89 2259.04 1855.74 2261.19 1856.16C2283.91 1861.72 2344.04 1857.74 2375.17 1842.89C2406.3 1828.04 2402.63 1791.24 2406.19 1771.59C2408.61 1758.2 2428.88 1743.63 2440.67 1737.1C2452.91 1732.27 2479.94 1718 2490.14 1699.56C2500.34 1681.12 2467.61 1665.1 2449.98 1659.4C2354.98 1632.88 2226.85 1679.7 2150.98 1803.92Z" fill="#75895E"/>
<path d="M1829.61 1587.32C1900.51 1638.13 1945.02 1734.8 1959.48 1774.22C1961.27 1779.12 1975.26 1805.94 1966.77 1759.59C1952.86 1683.62 1869.13 1566.43 1796.85 1535.94C1724.58 1505.44 1655.42 1532.57 1640.37 1556.6C1622.35 1585.38 1651.54 1590.12 1669.16 1576.07C1681.64 1566.13 1741.88 1524.46 1829.61 1587.32Z" fill="#B14B57"/>
<path d="M2202.21 1587.32C2131.3 1638.13 2086.8 1734.8 2072.34 1774.22C2070.54 1779.12 2056.55 1805.94 2065.04 1759.59C2078.96 1683.62 2162.68 1566.43 2234.96 1535.94C2307.24 1505.44 2376.4 1532.57 2391.44 1556.6C2409.46 1585.38 2380.28 1590.12 2362.66 1576.07C2350.18 1566.13 2289.93 1524.46 2202.21 1587.32Z" fill="#B14B57"/>
<path d="M2071.16 1393.36C2021.12 1442.99 2022.38 1421.4 2039.71 1396.93C2057.04 1372.46 2110.81 1280.59 2123.33 1196.39C2139.4 1088.33 2109.66 984.914 2018.12 973.861C1933.63 967.068 1894.48 1115.36 1924.56 1235.61C1943.96 1306.47 1974.01 1371.93 1996.81 1394.16C2005.31 1402.99 2017.2 1415.5 2014.17 1417.41C2009.71 1418.85 1981.97 1415.42 1953.66 1378.24C1897.64 1304.66 1857.4 1220.04 1853.92 1069.41C1850.7 930.034 1944.77 860.274 2018.12 856.797C2050.04 856.082 2129.9 872.668 2167.63 973.861C2205.36 1075.05 2183.35 1186.59 2167.63 1229.7C2156.91 1264.24 2121.12 1343.79 2071.16 1393.36Z" fill="#D2939B"/>
<path d="M2101.17 1472.15C2112.33 1529.18 2063.35 1553.78 2037.47 1558.96C2025.13 1560.77 2013.4 1559.86 2009.08 1558.7C1944.59 1549.02 1939.05 1486.27 1940.64 1478.99C1941.92 1473.16 1945.01 1473.67 1946.4 1474.65C1967.32 1490.82 1982.02 1497.14 2021.3 1500.21C2060.57 1503.29 2091.75 1475.61 2096.94 1472.02C2100.09 1469.85 2100.57 1470.74 2101.17 1472.15Z" fill="#4E6F82"/>
<path d="M1791.13 3692.01C1844.47 3749.36 1863.73 3847.39 1855.27 3872.61C1855.24 3876.91 1851.04 3887.27 1843.05 3873.28C1835.05 3859.29 1834.8 3821.11 1818.23 3801.71C1802.21 3782.96 1778.02 3777.33 1757.81 3779.45C1736.26 3781.71 1718.22 3773.96 1715.21 3769.43C1710.5 3762.33 1719.21 3737 1721.69 3732.13C1723.21 3729.16 1721.79 3728.71 1720.38 3729.12C1705.56 3733.98 1665.49 3736.85 1644.16 3731.49C1622.83 3726.14 1623.6 3706.14 1620.35 3695.92C1618.14 3688.96 1604.03 3682.85 1595.91 3680.34C1587.57 3678.77 1568.99 3673.38 1561.39 3664.36C1553.79 3655.34 1574.78 3644.05 1586.22 3639.53C1648.04 3617.45 1735.18 3631.85 1791.13 3692.01Z" fill="#75895E"/>
<path d="M2333.79 3692.01C2280.44 3749.36 2261.18 3847.39 2269.65 3872.61C2269.68 3876.91 2273.88 3887.27 2281.87 3873.28C2289.86 3859.29 2290.12 3821.11 2306.69 3801.71C2322.71 3782.96 2346.9 3777.33 2367.11 3779.45C2388.66 3781.71 2406.7 3773.96 2409.71 3769.43C2414.42 3762.33 2405.71 3737 2403.22 3732.13C2401.71 3729.16 2403.13 3728.71 2404.54 3729.12C2419.36 3733.98 2459.43 3736.85 2480.76 3731.49C2502.09 3726.14 2501.32 3706.14 2504.57 3695.92C2506.78 3688.96 2520.89 3682.85 2529.01 3680.34C2537.35 3678.77 2555.92 3673.38 2563.52 3664.36C2571.13 3655.34 2550.14 3644.05 2538.7 3639.53C2476.87 3617.45 2389.74 3631.85 2333.79 3692.01Z" fill="#75895E"/>
<path d="M2604.3 5152.63C2430.58 5166.79 2329.51 5022.06 2310.26 4968.99C2305.05 4958.21 2300.24 4939.73 2296.93 4942.8C2293.62 4945.87 2305.41 5072.07 2416.85 5161.59C2528.3 5251.11 2609.96 5260.31 2681.17 5221.47C2721.71 5196.7 2756.37 5140.23 2604.3 5152.63Z" fill="#4E6F82"/>
<path d="M2531.74 5007.59C2525.66 5002.83 2516.1 5004.02 2511.34 5010.1C2506.58 5016.17 2507.56 5026.09 2513.64 5030.86C2519.72 5035.62 2529.31 5034.05 2534.08 5027.98C2538.84 5021.9 2538.32 5013.58 2531.74 5007.59Z" fill="#B14B57"/>
<path d="M2481.42 5007.35C2474.1 5001.6 2463.83 5003.57 2458.08 5010.9C2453.13 5018.12 2454.12 5028.75 2460.96 5034.56C2468.28 5040.3 2480.27 5038.58 2486.01 5031.25C2491.75 5023.92 2488.75 5013.09 2481.42 5007.35Z" fill="#B14B57"/>
<path d="M2433.71 4977.98C2426.45 4970.65 2414.87 4970.74 2407.9 4979.7C2401.6 4987.73 2402.08 4999.88 2410.12 5006.18C2418.16 5012.47 2429.64 5012.5 2435.94 5004.46C2442.24 4996.43 2441.75 4984.28 2433.71 4977.98Z" fill="#B14B57"/>
<path d="M2608.11 5113.94C2710 5082.27 2723.68 5006.62 2717.61 4969.95C2715.83 4958.64 2714.99 4955.87 2707.28 4940.43C2703.3 4932.48 2698.21 4920.33 2704.81 4910.06C2712.14 4898.66 2743.39 4886.74 2774.76 4918.18C2805.41 4948.89 2819.2 5022.13 2769.02 5066.08C2722.19 5107.09 2651.1 5125.81 2599.69 5127.88C2558.56 5129.54 2588.17 5119.28 2608.11 5113.94Z" fill="#75895E"/>
<path d="M2417.38 5074.51C2318.57 4996.24 2320.14 4920.45 2333.28 4892.33C2346.95 4868.65 2369.62 4867.66 2382.3 4870.31C2394.98 4872.96 2428.05 4898.23 2413.45 4935.81C2400.74 4968.49 2367.42 4961.8 2354.93 4956.31C2356.31 4967.56 2374.76 5024.23 2459.53 5050.59C2544.3 5076.96 2600.08 5028.67 2606.79 5002.82C2613.5 4976.96 2601.99 4961.59 2593.82 4941.7C2585.05 4920.35 2594.49 4912.09 2599.62 4908.34C2607.53 4902.57 2644.75 4894.05 2668.85 4941.84C2692.96 4989.62 2679.33 5021.04 2667.25 5045.35C2655.16 5069.65 2540.89 5172.34 2417.38 5074.51Z" fill="#4E6F82"/>
<path d="M1451.06 5152.63C1624.78 5166.79 1725.85 5022.06 1745.1 4968.99C1750.31 4958.22 1755.12 4939.73 1758.43 4942.8C1761.74 4945.87 1749.95 5072.08 1638.51 5161.59C1527.06 5251.11 1445.4 5260.32 1374.19 5221.47C1333.65 5196.7 1298.99 5140.24 1451.06 5152.63Z" fill="#4E6F82"/>
<path d="M1523.62 5007.59C1529.7 5002.83 1539.26 5004.02 1544.02 5010.1C1548.78 5016.17 1547.8 5026.09 1541.72 5030.86C1535.65 5035.62 1526.05 5034.05 1521.29 5027.98C1516.52 5021.9 1517.04 5013.58 1523.62 5007.59Z" fill="#B14B57"/>
<path d="M1573.94 5007.35C1581.27 5001.6 1591.54 5003.57 1597.28 5010.9C1602.23 5018.12 1601.25 5028.75 1594.41 5034.56C1587.08 5040.3 1575.09 5038.58 1569.35 5031.25C1563.61 5023.92 1566.61 5013.09 1573.94 5007.35Z" fill="#B14B57"/>
<path d="M1621.65 4977.98C1628.91 4970.65 1640.49 4970.74 1647.47 4979.7C1653.76 4987.74 1653.28 4999.88 1645.24 5006.18C1637.2 5012.47 1625.72 5012.5 1619.42 5004.46C1613.12 4996.43 1613.61 4984.28 1621.65 4977.98Z" fill="#B14B57"/>
<path d="M1447.25 5113.94C1345.36 5082.27 1331.69 5006.63 1337.75 4969.96C1339.53 4958.64 1340.38 4955.87 1348.08 4940.43C1352.06 4932.48 1357.15 4920.33 1350.55 4910.06C1343.22 4898.66 1311.97 4886.74 1280.6 4918.18C1249.96 4948.89 1236.16 5022.13 1286.34 5066.08C1333.17 5107.09 1404.26 5125.81 1455.67 5127.88C1496.81 5129.55 1467.19 5119.28 1447.25 5113.94Z" fill="#75895E"/>
<path d="M1637.98 5074.51C1736.79 4996.25 1735.22 4920.45 1722.08 4892.34C1708.41 4868.65 1685.75 4867.66 1673.06 4870.31C1660.38 4872.96 1627.31 4898.23 1641.91 4935.81C1654.62 4968.49 1687.94 4961.8 1700.43 4956.31C1699.06 4967.56 1680.6 5024.23 1595.83 5050.59C1511.06 5076.96 1455.28 5028.67 1448.57 5002.82C1441.86 4976.96 1453.37 4961.59 1461.54 4941.7C1470.31 4920.35 1460.87 4912.09 1455.74 4908.35C1447.83 4902.57 1410.61 4894.06 1386.51 4941.84C1362.4 4989.63 1376.03 5021.04 1388.11 5045.35C1400.2 5069.66 1514.47 5172.34 1637.98 5074.51Z" fill="#4E6F82"/>
<path d="M1875.23 4755.77C1928.58 4813.12 1947.84 4911.15 1939.37 4936.37C1939.34 4940.67 1935.14 4951.03 1927.15 4937.04C1919.16 4923.05 1918.9 4884.87 1902.33 4865.47C1886.31 4846.72 1862.12 4841.09 1841.91 4843.21C1820.36 4845.47 1802.32 4837.72 1799.31 4833.19C1794.6 4826.09 1803.31 4800.75 1805.8 4795.89C1807.31 4792.92 1805.89 4792.47 1804.48 4792.88C1789.66 4797.74 1749.59 4800.61 1728.26 4795.25C1706.93 4789.9 1707.7 4769.9 1704.45 4759.68C1702.24 4752.72 1688.13 4746.61 1680.01 4744.1C1671.67 4742.53 1653.09 4737.14 1645.49 4728.12C1637.89 4719.1 1658.88 4707.81 1670.32 4703.29C1732.15 4681.21 1819.28 4695.61 1875.23 4755.77Z" fill="#75895E"/>
<path d="M2191.84 4755.77C2138.5 4813.12 2119.24 4911.15 2127.7 4936.37C2127.73 4940.67 2131.93 4951.03 2139.92 4937.04C2147.92 4923.05 2148.17 4884.87 2164.74 4865.47C2180.76 4846.72 2204.95 4841.09 2225.17 4843.21C2246.71 4845.47 2264.75 4837.72 2267.76 4833.19C2272.47 4826.09 2263.76 4800.75 2261.28 4795.89C2259.76 4792.92 2261.18 4792.47 2262.59 4792.88C2277.41 4797.74 2317.49 4800.61 2338.81 4795.25C2360.14 4789.9 2359.37 4769.9 2362.62 4759.68C2364.83 4752.72 2378.94 4746.61 2387.06 4744.1C2395.4 4742.53 2413.98 4737.14 2421.58 4728.12C2429.18 4719.1 2408.19 4707.81 2396.75 4703.29C2334.93 4681.21 2247.8 4695.61 2191.84 4755.77Z" fill="#75895E"/>
<path d="M2056.75 5437.61C2094.03 5447.7 2115.11 5485.55 2098.83 5524.77C2084.3 5560.09 2043.9 5580.92 2008.58 5566.4C1973.26 5551.88 1951.98 5514.57 1966.5 5479.25C1981.02 5443.93 2021.43 5423.09 2056.75 5437.61Z" fill="#B14B57"/>
<path d="M2015.01 5626.56C2043.88 5609.13 2080.48 5618.69 2095.4 5652.63C2108.91 5683.12 2097.66 5721.18 2067.18 5734.7C2036.7 5748.22 2000.31 5739.11 1986.8 5708.63C1973.28 5678.15 1984.53 5640.08 2015.01 5626.56Z" fill="#B14B57"/>
<path d="M1517.12 5461.72C1640.07 5434.57 1811.6 5279.89 1814.13 5267.85C1816.67 5255.82 1809.47 5258.26 1806 5261.23C1802.54 5264.21 1724.6 5320.18 1679.67 5345.85C1625.86 5376.59 1522.22 5406.49 1422.83 5392.93C1338.69 5381.45 1328.63 5411.28 1337.51 5429.44C1348.57 5452.24 1397.01 5488.23 1517.12 5461.72Z" fill="#75895E"/>
<path d="M1628.45 5572.68C1733.98 5530.4 1864.01 5367.36 1864.49 5356.26C1864.98 5345.17 1858.93 5348.4 1856.28 5351.56C1853.63 5354.73 1792.44 5416.06 1756.19 5445.54C1712.78 5480.84 1624.87 5522.73 1534.33 5525.28C1457.69 5527.44 1453.12 5555.49 1463.7 5570.37C1476.91 5589.04 1525.36 5613.97 1628.45 5572.68Z" fill="#75895E"/>
<path d="M1806.23 5627.24C1885.34 5566.78 1956.74 5398.66 1954.55 5389.19C1952.35 5379.71 1948 5383.86 1946.51 5387.15C1945.02 5390.44 1907.8 5456.57 1884.14 5489.96C1855.81 5529.94 1791.47 5585.94 1715.68 5609.36C1651.52 5629.19 1654.25 5653.93 1666.68 5664C1682.21 5676.65 1728.95 5686.31 1806.23 5627.24Z" fill="#75895E"/>
<path d="M2546.1 5461.71C2423.15 5434.57 2251.62 5279.89 2249.09 5267.85C2246.55 5255.82 2253.75 5258.25 2257.21 5261.23C2260.68 5264.21 2338.62 5320.18 2383.55 5345.85C2437.36 5376.59 2540.99 5406.49 2640.39 5392.93C2724.53 5381.45 2734.58 5411.28 2725.71 5429.44C2714.64 5452.23 2666.2 5488.23 2546.1 5461.71Z" fill="#75895E"/>
<path d="M2434.78 5572.68C2329.24 5530.4 2199.22 5367.36 2198.73 5356.26C2198.24 5345.17 2204.29 5348.4 2206.94 5351.56C2209.59 5354.73 2270.78 5416.06 2307.03 5445.54C2350.44 5480.84 2438.36 5522.73 2528.89 5525.28C2605.53 5527.44 2610.1 5555.49 2599.52 5570.37C2586.31 5589.04 2537.86 5613.97 2434.78 5572.68Z" fill="#75895E"/>
<path d="M2256.99 5627.24C2177.88 5566.78 2106.47 5398.66 2108.67 5389.19C2110.86 5379.71 2115.21 5383.86 2116.7 5387.15C2118.2 5390.44 2155.42 5456.57 2179.08 5489.96C2207.41 5529.94 2271.75 5585.94 2347.54 5609.36C2411.7 5629.19 2408.96 5653.93 2396.54 5664C2381.01 5676.65 2334.27 5686.31 2256.99 5627.24Z" fill="#75895E"/>
<path d="M2222.94 5145.25C2249.81 5282.54 2131.91 5341.76 2069.61 5354.21C2039.91 5358.57 2011.68 5356.39 2001.28 5353.59C1846.02 5330.3 1832.71 5179.26 1836.54 5161.72C1839.6 5147.69 1847.05 5148.91 1850.39 5151.27C1900.76 5190.19 1936.13 5205.41 2030.68 5212.81C2125.23 5220.21 2200.28 5153.57 2212.77 5144.94C2220.34 5139.71 2221.51 5141.85 2222.94 5145.25Z" fill="#B14B57"/>
<path d="M2179.91 4983.76C2201.64 5094.79 2106.3 5142.68 2055.91 5152.75C2031.9 5156.27 2009.07 5154.51 2000.66 5152.24C1875.11 5133.41 1864.34 5011.26 1867.43 4997.08C1869.91 4985.74 1875.94 4986.72 1878.64 4988.63C1919.37 5020.1 1947.97 5032.41 2024.43 5038.4C2100.89 5044.38 2161.58 4990.5 2171.69 4983.52C2177.81 4979.29 2178.76 4981.02 2179.91 4983.76Z" fill="#B14B57"/>
<path d="M2132.23 4451.29C2146.51 4524.3 2083.81 4555.8 2050.68 4562.42C2034.88 4564.74 2019.87 4563.57 2014.34 4562.09C1931.77 4549.7 1924.69 4469.37 1926.72 4460.05C1928.35 4452.59 1932.32 4453.23 1934.1 4454.49C1960.88 4475.19 1979.69 4483.28 2029.97 4487.22C2080.26 4491.15 2120.17 4455.71 2126.82 4451.12C2130.84 4448.34 2131.46 4449.48 2132.23 4451.29Z" fill="#4E6F82"/>
<path d="M2052.1 4625.91C2041.33 4580.6 2021.73 4604.66 2014.76 4624.6C1996.76 4690.7 2003.71 4916.24 2006.2 4938.12C2008.68 4960 2042.44 4974.18 2052.1 4942.84C2061.76 4911.5 2064.58 4678.41 2052.1 4625.91Z" fill="#75895E"/>
<path d="M1900.68 4656.06C1949.26 4715.25 1965.03 4807.33 1968.33 4844.04C1968.74 4848.6 1974.51 4874.53 1977.84 4833.29C1983.3 4765.72 1938.94 4647.33 1884.58 4605.05C1830.23 4562.78 1765.43 4570.06 1747.21 4587.02C1725.39 4607.33 1749.06 4617.98 1767.19 4610.07C1780.03 4604.48 1840.58 4582.83 1900.68 4656.06Z" fill="#B14B57"/>
<path d="M2155.58 4656.06C2107 4715.25 2091.23 4807.33 2087.92 4844.04C2087.51 4848.6 2081.75 4874.53 2078.42 4833.29C2072.96 4765.72 2117.32 4647.33 2171.67 4605.05C2226.03 4562.78 2290.83 4570.06 2309.05 4587.02C2330.87 4607.33 2307.2 4617.98 2289.07 4610.07C2276.22 4604.48 2215.68 4582.83 2155.58 4656.06Z" fill="#B14B57"/>
</svg>
