<svg width="4056" height="6300" viewBox="0 0 4056 6300" fill="none" xmlns="http://www.w3.org/2000/svg">
<rect width="4056" height="6300" fill="white"/>
<path d="M1708.61 2397.67C1691.48 2397.67 1677.54 2395.82 1666.79 2392.13C1656.37 2388.43 1649.32 2383.73 1645.62 2378.02C1643.94 2375.67 1642.43 2372.14 1641.09 2367.44C1639.74 2362.73 1640.25 2357.53 1642.6 2351.82C1647.3 2355.51 1652.34 2358.37 1657.71 2360.38C1663.43 2362.06 1668.63 2363.24 1673.34 2363.91C1679.05 2364.92 1684.59 2365.42 1689.96 2365.42C1700.04 2365.42 1709.79 2364.58 1719.19 2362.9C1728.93 2361.22 1738.51 2358.87 1747.91 2355.85C1751.95 2335.69 1755.81 2317.55 1759.5 2301.43C1763.54 2285.3 1768.07 2272.2 1773.11 2262.12C1778.48 2251.04 1784.03 2241.12 1789.74 2232.39C1795.79 2223.32 1802.34 2215.76 1809.39 2209.71C1816.78 2203.33 1824.84 2198.46 1833.58 2195.1C1842.31 2191.74 1852.39 2190.06 1863.81 2190.06C1872.21 2190.06 1878.76 2191.74 1883.46 2195.1C1888.5 2198.46 1892.2 2202.66 1894.55 2207.7C1897.24 2212.74 1898.75 2218.28 1899.09 2224.33C1899.76 2230.04 1900.09 2235.41 1900.09 2240.45C1900.09 2251.54 1897.41 2263.63 1892.03 2276.73C1886.66 2289.84 1879.1 2302.77 1869.36 2315.54C1859.61 2328.3 1847.86 2340.39 1834.08 2351.82C1820.64 2363.24 1805.53 2372.64 1788.73 2380.04C1783.02 2402.21 1777.31 2424.21 1771.6 2446.05C1766.22 2467.55 1760.85 2485.35 1755.47 2499.46C1750.77 2512.56 1744.72 2527.18 1737.33 2543.3C1730.28 2559.43 1721.54 2574.88 1711.13 2589.66C1717.51 2593.69 1723.89 2597.89 1730.28 2602.26C1737 2606.62 1743.71 2610.49 1750.43 2613.85C1757.15 2617.54 1763.87 2620.57 1770.59 2622.92C1777.64 2625.27 1785.04 2626.45 1792.76 2626.45C1800.82 2626.11 1808.72 2624.93 1816.45 2622.92C1823.16 2621.24 1830.22 2618.38 1837.61 2614.35C1845 2610.66 1851.89 2605.28 1858.27 2598.23C1860.62 2602.26 1861.29 2608.3 1860.29 2616.37C1859.61 2624.43 1857.09 2632.49 1852.73 2640.55C1848.36 2648.62 1842.14 2655.67 1834.08 2661.72C1826.02 2667.77 1815.94 2670.79 1803.85 2670.79C1791.08 2670.79 1779.16 2668.94 1768.07 2665.25C1756.98 2661.89 1746.57 2657.69 1736.83 2652.65C1727.09 2647.61 1717.85 2642.07 1709.11 2636.02C1700.71 2630.31 1692.82 2624.93 1685.43 2619.89C1675.35 2629.64 1664.27 2637.53 1652.17 2643.58C1640.08 2649.62 1626.64 2652.65 1611.86 2652.65C1600.1 2652.65 1590.7 2649.29 1583.64 2642.57C1576.59 2636.19 1573.39 2627.45 1574.07 2616.37C1574.4 2612.34 1575.58 2607.46 1577.59 2601.75C1579.61 2596.38 1583.47 2591.17 1589.18 2586.13C1594.56 2581.09 1602.12 2576.73 1611.86 2573.03C1621.6 2569.67 1634.2 2567.99 1649.65 2567.99C1655.36 2567.99 1660.74 2568.5 1665.78 2569.5C1671.15 2570.85 1676.36 2572.36 1681.4 2574.04C1685.09 2567.32 1688.79 2559.59 1692.48 2550.86C1696.18 2542.12 1700.21 2532.21 1704.58 2521.13C1712.3 2499.96 1719.02 2478.8 1724.73 2457.64C1730.45 2436.14 1735.32 2415.31 1739.35 2395.15C1734.64 2396.16 1729.61 2396.83 1724.23 2397.17C1719.19 2397.5 1713.98 2397.67 1708.61 2397.67ZM1624.96 2625.44C1629.33 2623.76 1634.37 2622.08 1640.08 2620.4C1645.79 2618.72 1652.34 2614.02 1659.73 2606.29C1654.69 2604.61 1650.83 2603.77 1648.14 2603.77C1636.05 2603.77 1627.31 2605.45 1621.94 2608.81C1616.23 2612.5 1613.37 2616.03 1613.37 2619.39C1613.37 2621.74 1614.38 2623.42 1616.39 2624.43C1618.41 2625.77 1621.27 2626.11 1624.96 2625.44ZM1815.44 2274.72C1813.76 2279.76 1811.57 2287.15 1808.89 2296.89C1806.2 2306.63 1803.34 2317.89 1800.32 2330.65C1818.46 2318.89 1832.91 2305.46 1843.66 2290.34C1854.74 2275.22 1860.29 2260.11 1860.29 2244.99C1860.29 2235.92 1857.6 2231.38 1852.22 2231.38C1847.52 2231.38 1841.47 2235.08 1834.08 2242.47C1826.69 2249.52 1820.48 2260.27 1815.44 2274.72ZM1990.29 2272.2C1989.29 2275.89 1987.27 2279.59 1984.25 2283.29C1981.56 2286.64 1978.37 2289.5 1974.67 2291.85C1971.31 2293.87 1967.79 2295.21 1964.09 2295.88C1960.39 2296.55 1957.37 2295.88 1955.02 2293.87C1947.96 2288.49 1944.27 2282.78 1943.93 2276.73C1943.6 2270.35 1945.11 2264.47 1948.47 2259.1C1951.83 2253.39 1956.03 2248.68 1961.07 2244.99C1966.11 2240.96 1970.47 2238.61 1974.17 2237.93C1977.86 2237.26 1980.89 2238.1 1983.24 2240.45C1985.93 2242.47 1987.94 2245.32 1989.29 2249.02C1990.63 2252.38 1991.3 2256.24 1991.3 2260.61C1991.64 2264.98 1991.3 2268.84 1990.29 2272.2ZM1920.75 2379.53C1922.43 2377.52 1925.62 2375.84 1930.33 2374.49C1935.03 2373.15 1939.9 2372.14 1944.94 2371.47C1949.98 2370.46 1954.52 2369.96 1958.55 2369.96C1962.91 2369.62 1965.43 2369.62 1966.11 2369.96C1966.44 2370.29 1965.6 2373.82 1963.59 2380.54C1961.57 2387.26 1959.05 2395.15 1956.03 2404.22C1953 2413.29 1949.81 2422.7 1946.45 2432.44C1943.09 2441.85 1940.57 2449.57 1938.89 2455.62C1937.21 2461.67 1935.2 2468.55 1932.85 2476.28C1930.5 2483.67 1928.31 2491.06 1926.3 2498.45C1924.62 2505.51 1923.44 2512.23 1922.77 2518.61C1922.1 2524.99 1922.6 2529.86 1924.28 2533.22C1925.96 2537.25 1927.81 2540.11 1929.82 2541.79C1931.84 2543.13 1934.02 2543.8 1936.38 2543.8C1943.09 2543.8 1951.49 2540.11 1961.57 2532.72C1971.98 2525.33 1982.4 2516.59 1992.81 2506.52C2003.56 2496.1 2013.47 2485.69 2022.54 2475.27C2031.61 2464.52 2038.33 2455.96 2042.7 2449.57C2045.39 2446.21 2048.07 2444.03 2050.76 2443.02C2053.79 2442.02 2056.14 2442.18 2057.82 2443.53C2059.83 2444.87 2060.84 2447.05 2060.84 2450.08C2061.18 2453.1 2060.17 2456.63 2057.82 2460.66C2052.44 2470.07 2044.55 2481.32 2034.13 2494.42C2023.72 2507.19 2012.63 2519.62 2000.88 2531.71C1989.12 2543.47 1977.53 2553.55 1966.11 2561.95C1955.02 2570.34 1945.95 2574.71 1938.89 2575.05C1933.18 2575.38 1927.47 2574.38 1921.76 2572.02C1916.39 2570.01 1911.35 2567.15 1906.64 2563.46C1902.28 2559.43 1898.58 2554.89 1895.56 2549.85C1892.54 2544.48 1890.86 2538.93 1890.52 2533.22C1889.51 2524.82 1889.51 2513.4 1890.52 2498.96C1891.53 2484.18 1893.38 2469.23 1896.06 2454.11C1898.75 2438.66 1902.11 2424.04 1906.14 2410.27C1910.51 2396.5 1915.38 2386.25 1920.75 2379.53ZM2283.06 2487.87C2280.71 2491.23 2276.85 2496.1 2271.47 2502.48C2266.43 2508.87 2260.22 2515.75 2252.83 2523.14C2245.77 2530.54 2237.54 2538.26 2228.14 2546.32C2219.07 2554.05 2209.32 2561.11 2198.91 2567.49C2197.57 2575.21 2195.05 2586.13 2191.35 2600.24C2187.66 2614.69 2182.79 2630.31 2176.74 2647.11C2170.69 2663.9 2163.64 2680.87 2155.57 2698C2147.51 2715.47 2138.44 2731.26 2128.36 2745.37C2118.62 2759.81 2107.87 2771.4 2096.11 2780.14C2084.36 2789.21 2071.93 2793.74 2058.82 2793.74C2045.72 2793.74 2035.48 2791.56 2028.09 2787.19C2020.7 2782.82 2015.32 2777.11 2011.96 2770.06C2008.27 2763.34 2006.08 2755.78 2005.41 2747.38C2004.74 2739.32 2004.57 2731.43 2004.91 2723.7C2005.24 2713.62 2008.27 2701.86 2013.98 2688.43C2019.69 2675.32 2027.58 2661.89 2037.66 2648.11C2048.07 2634.68 2060.5 2621.74 2074.95 2609.31C2089.39 2597.22 2105.52 2586.97 2123.32 2578.57C2132.06 2574.88 2140.12 2571.35 2147.51 2567.99C2154.9 2564.3 2161.79 2560.77 2168.17 2557.41C2170.86 2546.32 2171.03 2538.93 2168.68 2535.24C2166.66 2531.54 2163.64 2529.7 2159.61 2529.7C2153.56 2529.7 2146.34 2532.38 2137.94 2537.76C2129.88 2543.13 2119.8 2551.53 2107.7 2562.95C2104.34 2563.29 2101.32 2562.95 2098.63 2561.95C2096.28 2560.6 2094.27 2559.09 2092.59 2557.41C2090.57 2555.73 2088.89 2553.71 2087.55 2551.36C2083.85 2545.65 2082.17 2539.94 2082.51 2534.23C2083.18 2528.52 2085.87 2523.98 2090.57 2520.62C2095.27 2516.93 2102.16 2511.05 2111.23 2502.99C2120.64 2494.59 2129.71 2484.01 2138.44 2471.24C2141.13 2467.55 2144.32 2463.01 2148.02 2457.64C2152.05 2451.93 2155.91 2445.88 2159.61 2439.5C2163.64 2432.78 2167.33 2425.89 2170.69 2418.84C2174.39 2411.78 2177.24 2405.06 2179.26 2398.68C2172.54 2397.67 2162.8 2397.84 2150.03 2399.18C2143.31 2400.53 2136.09 2402.04 2128.36 2403.72C2121.64 2405.4 2113.92 2407.58 2105.18 2410.27C2096.79 2412.96 2087.88 2416.65 2078.48 2421.36C2077.13 2420.68 2076.12 2419.34 2075.45 2417.32C2074.78 2415.31 2074.28 2412.96 2073.94 2410.27C2073.61 2407.25 2073.44 2403.89 2073.44 2400.19C2073.44 2395.49 2074.11 2391.62 2075.45 2388.6C2077.13 2385.24 2079.15 2382.55 2081.5 2380.54C2083.85 2378.52 2086.37 2377.01 2089.06 2376C2091.75 2374.66 2094.1 2373.65 2096.11 2372.98C2098.46 2372.31 2103 2371.47 2109.72 2370.46C2116.77 2369.12 2124.67 2367.94 2133.4 2366.93C2142.14 2365.93 2151.21 2365.25 2160.61 2364.92C2170.02 2364.25 2178.59 2364.08 2186.31 2364.41C2202.1 2365.42 2212.01 2367.61 2216.04 2370.96C2220.41 2373.99 2221.59 2378.86 2219.57 2385.58C2217.22 2392.3 2212.68 2403.72 2205.96 2419.84C2199.25 2435.63 2189 2453.94 2175.23 2474.77C2169.52 2482.5 2164.31 2489.72 2159.61 2496.44C2154.9 2503.16 2150.37 2509.04 2146 2514.07C2151.71 2511.39 2157.42 2509.37 2163.13 2508.03C2168.84 2506.35 2174.55 2505.51 2180.27 2505.51C2187.99 2505.51 2193.03 2509.2 2195.38 2516.59C2198.07 2523.98 2199.58 2532.05 2199.92 2540.78C2213.36 2532.38 2225.28 2523.48 2235.7 2514.07C2246.45 2504.67 2257.87 2492.57 2269.96 2477.79C2272.98 2474.1 2275.67 2471.91 2278.02 2471.24C2280.71 2470.57 2282.73 2471.07 2284.07 2472.75C2285.41 2474.1 2286.09 2476.28 2286.09 2479.3C2286.09 2481.99 2285.08 2484.85 2283.06 2487.87ZM2157.09 2597.72C2157.76 2595.04 2158.43 2592.52 2159.1 2590.16C2160.11 2588.15 2160.95 2585.96 2161.62 2583.61C2144.15 2593.36 2128.2 2603.6 2113.75 2614.35C2099.3 2625.44 2086.71 2637.03 2075.96 2649.12C2065.54 2661.21 2057.31 2673.81 2051.27 2686.91C2045.22 2700.02 2041.86 2713.29 2041.19 2726.72C2040.85 2734.79 2042.03 2741.67 2044.71 2747.38C2047.74 2753.09 2052.95 2755.95 2060.34 2755.95C2068.4 2755.95 2076.96 2750.07 2086.04 2738.31C2095.44 2726.89 2104.51 2712.78 2113.25 2695.98C2122.32 2679.52 2130.71 2662.22 2138.44 2644.08C2146.17 2626.28 2152.38 2610.82 2157.09 2597.72ZM2510.83 2468.72C2506.12 2475.44 2500.08 2483.84 2492.69 2493.92C2485.3 2503.66 2477.57 2513.57 2469.51 2523.65C2461.78 2533.39 2454.05 2542.46 2446.33 2550.86C2438.94 2558.92 2432.72 2564.63 2427.68 2567.99C2424.32 2570.01 2420.46 2571.69 2416.09 2573.03C2411.73 2574.38 2407.19 2575.21 2402.49 2575.55C2398.12 2575.89 2393.92 2575.55 2389.89 2574.54C2385.86 2573.87 2382.33 2572.53 2379.31 2570.51C2376.29 2568.16 2373.77 2564.8 2371.75 2560.43C2370.07 2556.74 2368.39 2551.87 2366.71 2545.82C2365.37 2539.77 2364.86 2532.21 2365.2 2523.14C2357.14 2536.58 2348.23 2547 2338.49 2554.39C2328.75 2561.44 2319.51 2566.65 2310.78 2570.01C2300.7 2573.7 2290.62 2575.89 2280.54 2576.56C2275.84 2576.56 2270.8 2574.88 2265.43 2571.52C2260.05 2568.5 2255.52 2563.62 2251.82 2556.91C2248.12 2549.85 2245.77 2540.95 2244.77 2530.2C2243.76 2519.11 2245.1 2506.01 2248.8 2490.89C2253.5 2470.4 2260.89 2451.76 2270.97 2434.96C2281.38 2418.16 2292.64 2403.89 2304.73 2392.13C2316.82 2380.04 2328.75 2370.96 2340.51 2364.92C2352.27 2358.87 2362.01 2356.18 2369.73 2356.86C2378.8 2358.54 2386.2 2361.22 2391.91 2364.92C2396.61 2368.28 2399.63 2373.32 2400.98 2380.04C2402.66 2386.42 2399.97 2394.98 2392.91 2405.73C2397.62 2404.73 2401.48 2404.05 2404.5 2403.72C2407.86 2403.38 2410.38 2403.21 2412.06 2403.21C2414.08 2403.21 2415.42 2403.38 2416.09 2403.72C2416.43 2404.39 2416.6 2405.9 2416.6 2408.25C2416.6 2410.27 2416.09 2414.13 2415.09 2419.84C2414.08 2425.55 2412.57 2433.28 2410.55 2443.02C2408.54 2452.77 2405.85 2465.36 2402.49 2480.82C2401.82 2483.84 2401.14 2486.7 2400.47 2489.38C2400.14 2491.73 2399.63 2494.25 2398.96 2496.94C2398.62 2499.29 2398.12 2502.15 2397.45 2505.51C2396.78 2508.87 2395.94 2513.07 2394.93 2518.11C2394.59 2521.13 2394.43 2524.49 2394.43 2528.18C2394.76 2531.54 2395.43 2534.73 2396.44 2537.76C2397.45 2540.78 2398.96 2543.3 2400.98 2545.32C2403.33 2547 2406.52 2547.84 2410.55 2547.84C2413.91 2547.84 2418.28 2545.82 2423.65 2541.79C2429.03 2537.42 2434.74 2532.05 2440.79 2525.66C2446.83 2518.95 2453.05 2511.72 2459.43 2504C2466.15 2495.93 2472.36 2488.21 2478.07 2480.82C2483.79 2473.43 2488.82 2466.88 2493.19 2461.16C2497.89 2455.45 2501.25 2451.25 2503.27 2448.57C2505.96 2445.54 2508.64 2443.86 2511.33 2443.53C2514.02 2442.86 2516.04 2443.53 2517.38 2445.54C2518.72 2447.56 2518.89 2450.58 2517.88 2454.61C2517.21 2458.64 2514.86 2463.35 2510.83 2468.72ZM2363.18 2490.89C2364.86 2484.18 2366.88 2476.28 2369.23 2467.21C2371.58 2458.14 2373.6 2449.41 2375.28 2441.01C2376.96 2432.61 2378.13 2425.72 2378.8 2420.35C2379.81 2414.64 2379.64 2411.95 2378.3 2412.29C2376.62 2412.62 2374.77 2413.12 2372.76 2413.8C2371.08 2414.47 2368.89 2414.97 2366.21 2415.31C2363.52 2415.64 2360.83 2416.15 2358.14 2416.82C2360.83 2411.45 2362.34 2407.08 2362.68 2403.72C2363.35 2400.02 2363.52 2397.17 2363.18 2395.15C2362.85 2392.8 2362.18 2390.95 2361.17 2389.61C2357.47 2386.59 2350.92 2389.11 2341.52 2397.17C2332.45 2404.89 2321.86 2419.34 2309.77 2440.5C2304.73 2449.24 2300.7 2458.64 2297.68 2468.72C2294.65 2478.46 2292.47 2487.7 2291.12 2496.44C2290.12 2505.17 2289.95 2512.9 2290.62 2519.62C2291.29 2526 2292.64 2530.2 2294.65 2532.21C2298.35 2535.91 2302.55 2537.76 2307.25 2537.76C2311.95 2537.42 2316.66 2536.08 2321.36 2533.73C2326.4 2531.04 2331.27 2527.68 2335.97 2523.65C2341.01 2519.62 2345.38 2515.42 2349.07 2511.05C2353.11 2506.68 2356.3 2502.65 2358.65 2498.96C2361.34 2495.26 2362.85 2492.57 2363.18 2490.89Z" fill="#571E25"/>
<path d="M1649.18 4219.26C1648.72 4215.8 1645.72 4213.15 1640.19 4211.3C1634.88 4209.46 1629 4208.07 1622.54 4207.15C1614.92 4206.23 1606.5 4205.65 1597.27 4205.42C1590.58 4205.42 1584.35 4205.76 1578.59 4206.46C1573.51 4206.92 1568.55 4207.73 1563.7 4208.88C1559.09 4210.26 1555.86 4211.99 1554.01 4214.07C1551.01 4216.38 1547.09 4216.95 1542.25 4215.8C1537.4 4214.65 1534.17 4210.72 1532.56 4204.03C1532.1 4201.5 1531.4 4199.07 1530.48 4196.77C1529.79 4194.92 1529.1 4192.96 1528.4 4190.88C1527.48 4188.81 1526.44 4187.19 1525.29 4186.04C1528.75 4179.12 1532.44 4172.89 1536.36 4167.35C1540.52 4161.81 1545.02 4156.39 1549.86 4151.08C1554.94 4145.78 1560.47 4140.47 1566.47 4135.17C1572.7 4129.86 1579.62 4123.86 1587.24 4117.17C1594.39 4111.17 1601.89 4104.02 1609.73 4095.71C1617.81 4087.41 1625.19 4078.06 1631.88 4067.68C1638.8 4057.3 1644.57 4045.99 1649.18 4033.77C1654.03 4021.31 1656.8 4007.93 1657.49 3993.62C1657.95 3981.86 1655.87 3973.67 1651.26 3969.05C1646.88 3964.44 1641.34 3962.13 1634.65 3962.13C1631.42 3962.13 1627.73 3963.51 1623.57 3966.28C1619.42 3968.82 1615.38 3972.51 1611.46 3977.36C1607.77 3981.97 1604.43 3987.39 1601.43 3993.62C1598.66 3999.85 1597.16 4006.43 1596.93 4013.35C1596.7 4015.19 1596.81 4016.92 1597.27 4018.54C1597.73 4019.92 1598.2 4021.31 1598.66 4022.69C1599.35 4023.85 1600.39 4024.77 1601.77 4025.46C1598.08 4028.46 1594.39 4030.42 1590.7 4031.34C1588.85 4031.81 1587.12 4032.04 1585.51 4032.04C1583.66 4032.04 1581.47 4031.92 1578.93 4031.69C1576.39 4031.23 1573.97 4030.42 1571.66 4029.27C1569.59 4027.88 1567.74 4025.92 1566.13 4023.38C1564.74 4020.85 1564.17 4017.39 1564.4 4013C1564.63 4008.62 1566.47 4002.74 1569.93 3995.35C1573.62 3987.97 1579.05 3980.82 1586.2 3973.9C1593.58 3966.74 1602.69 3960.63 1613.54 3955.55C1624.38 3950.48 1637.07 3947.94 1651.61 3947.94C1661.3 3947.94 1668.68 3950.02 1673.75 3954.17C1679.06 3958.32 1682.87 3963.28 1685.18 3969.05C1687.48 3974.82 1688.75 3980.7 1688.98 3986.7C1689.21 3992.47 1689.21 3997.2 1688.98 4000.89C1688.52 4010.58 1686.21 4020.5 1682.06 4030.65C1678.14 4040.8 1672.95 4050.84 1666.49 4060.76C1660.26 4070.68 1653.11 4080.37 1645.03 4089.83C1637.19 4099.29 1629.23 4108.17 1621.15 4116.48C1613.08 4124.78 1605.12 4132.4 1597.27 4139.32C1589.66 4146.24 1582.97 4152.12 1577.2 4156.97C1570.97 4162.27 1566.13 4167.58 1562.67 4172.89C1559.44 4178.19 1557.01 4183.15 1555.4 4187.77C1560.94 4185 1568.55 4182.23 1578.24 4179.46C1587.93 4176.69 1599 4175.31 1611.46 4175.31C1618.84 4175.31 1625.65 4175.66 1631.88 4176.35C1637.19 4176.81 1642.26 4177.73 1647.11 4179.12C1651.95 4180.27 1655.3 4182 1657.14 4184.31C1657.6 4186.85 1657.84 4189.15 1657.84 4191.23C1657.84 4193.31 1657.72 4195.27 1657.49 4197.11C1657.26 4199.19 1656.91 4201.03 1656.45 4202.65C1655.99 4204.5 1655.41 4206.34 1654.72 4208.19C1653.57 4211.42 1651.72 4215.11 1649.18 4219.26ZM1808.38 3947.94C1817.14 3947.94 1824.64 3951.29 1830.87 3957.98C1837.33 3964.44 1842.41 3973.09 1846.1 3983.93C1849.79 3994.54 1852.1 4006.89 1853.02 4020.96C1854.17 4034.8 1853.94 4049.11 1852.33 4063.87C1848.87 4093.64 1842.98 4118.44 1834.68 4138.28C1826.37 4157.89 1817.26 4173.58 1807.34 4185.35C1797.65 4196.88 1787.73 4205.07 1777.58 4209.92C1767.66 4214.76 1759.12 4217.18 1751.97 4217.18C1746.43 4217.18 1740.89 4215.45 1735.36 4211.99C1730.05 4208.53 1725.2 4203 1720.82 4195.38C1716.44 4187.77 1712.86 4178.08 1710.09 4166.31C1707.32 4154.31 1705.82 4139.9 1705.59 4123.05C1705.36 4112.44 1706.52 4100.79 1709.05 4088.1C1711.59 4075.18 1715.05 4062.26 1719.44 4049.34C1724.05 4036.19 1729.47 4023.61 1735.7 4011.62C1742.16 3999.39 1749.2 3988.55 1756.81 3979.09C1764.43 3969.63 1772.62 3962.13 1781.38 3956.59C1790.15 3950.82 1799.15 3947.94 1808.38 3947.94ZM1825.68 4054.53C1825.68 4053.38 1825.91 4050.49 1826.37 4045.88C1826.83 4041.03 1827.06 4035.5 1827.06 4029.27C1827.3 4022.81 1827.18 4016.12 1826.72 4009.2C1826.49 4002.27 1825.57 3995.93 1823.95 3990.16C1822.34 3984.16 1819.91 3979.32 1816.68 3975.63C1813.68 3971.7 1809.65 3969.74 1804.57 3969.74C1799.49 3969.74 1793.03 3974.13 1785.19 3982.89C1777.58 3991.66 1770.08 4003.77 1762.7 4019.23C1755.54 4034.69 1749.31 4053.15 1744.01 4074.6C1738.93 4095.83 1736.51 4119.02 1736.74 4144.16C1736.74 4146.7 1736.97 4150.85 1737.43 4156.62C1738.12 4162.16 1739.16 4167.81 1740.55 4173.58C1742.16 4179.35 1744.35 4184.42 1747.12 4188.81C1749.89 4193.19 1753.47 4195.38 1757.85 4195.38C1764.54 4195.38 1771.46 4191.11 1778.61 4182.58C1786 4173.81 1792.8 4162.62 1799.03 4149.01C1805.49 4135.4 1811.03 4120.28 1815.64 4103.67C1820.49 4086.83 1823.83 4070.45 1825.68 4054.53Z" fill="#571E25"/>
<path d="M1977.75 3980.95C1976.53 3985.65 1975.14 3990.77 1973.58 3996.34C1972.19 4001.73 1971.06 4007.29 1970.19 4013.03C1969.32 4018.76 1968.8 4024.5 1968.62 4030.24C1968.62 4035.97 1969.4 4041.45 1970.97 4046.67C1969.4 4047.54 1967.58 4048.14 1965.49 4048.49C1963.41 4049.01 1961.41 4049.36 1959.49 4049.53C1957.41 4049.88 1955.24 4049.97 1952.98 4049.8C1950.02 4049.8 1947.76 4049.19 1946.2 4047.97C1944.63 4046.75 1943.5 4045.19 1942.81 4043.28C1942.28 4041.19 1942.2 4038.84 1942.54 4036.24C1942.89 4033.45 1943.59 4030.59 1944.63 4027.63C1946.37 4021.72 1949.93 4009.46 1955.32 3990.86C1960.89 3972.26 1966.8 3946.79 1973.05 3914.46C1974.1 3908.89 1974.97 3904.03 1975.66 3899.85C1976.53 3895.51 1977.31 3891.86 1978.01 3888.9C1975.58 3887.34 1973.14 3885.51 1970.71 3883.43C1968.27 3881.17 1966.36 3879.08 1964.97 3877.17C1965.14 3876.65 1966.45 3874.99 1968.88 3872.21C1971.49 3869.43 1974.45 3866.48 1977.75 3863.35C1981.05 3860.22 1984.35 3857.44 1987.66 3855C1990.96 3852.57 1993.66 3851.35 1995.74 3851.35C1996.61 3851.35 1997.65 3851.79 1998.87 3852.65C2000.26 3853.52 2001.57 3854.57 2002.78 3855.78C2004.17 3856.83 2005.22 3858.04 2005.91 3859.43C2006.78 3860.65 2007.13 3861.69 2006.95 3862.56L1977.75 3980.95ZM2067.19 4017.46C2068.58 4011.2 2070.41 4003.73 2072.67 3995.03C2074.93 3986.34 2077.27 3977.21 2079.71 3967.65C2071.02 3968 2062.06 3968.7 2052.85 3969.74C2043.64 3970.78 2033.64 3972.78 2022.86 3975.74C2021.47 3974.87 2020.25 3973.74 2019.21 3972.35C2018.17 3970.96 2017.21 3969.65 2016.34 3968.44C2015.47 3967.04 2014.6 3965.57 2013.73 3964C2012.17 3960.53 2011.3 3957.31 2011.13 3954.35C2010.95 3951.22 2012.34 3948.44 2015.3 3946.01C2016.86 3944.79 2018.95 3942.79 2021.56 3940.01C2024.34 3937.23 2027.55 3933.84 2031.21 3929.84C2034.86 3925.84 2038.85 3921.32 2043.2 3916.28C2047.72 3911.24 2052.5 3905.85 2057.54 3900.11C2067.45 3888.64 2074.84 3879.77 2079.71 3873.52C2084.58 3867.08 2087.36 3862.56 2088.05 3859.96C2092.23 3858.22 2095.96 3856.91 2099.27 3856.04C2102.57 3855 2105.44 3854.13 2107.87 3853.44L2114.91 3851.87C2119.95 3851 2123.08 3851.35 2124.3 3852.92C2125.52 3854.48 2125.43 3857.78 2124.04 3862.82C2123.34 3865.26 2122.21 3869.6 2120.65 3875.86C2119.08 3881.95 2117.26 3888.99 2115.17 3896.99C2113.26 3904.98 2111.26 3913.59 2109.18 3922.8C2107.26 3931.84 2105.44 3940.53 2103.7 3948.88C2106.31 3949.23 2108.65 3949.83 2110.74 3950.7C2112.83 3951.4 2114.56 3952.44 2115.96 3953.83C2117.35 3955.05 2118.13 3956.7 2118.3 3958.79C2118.65 3960.7 2118.3 3963.05 2117.26 3965.83C2116.91 3966.87 2116.39 3968.09 2115.69 3969.48C2114.65 3971.91 2113.35 3975.04 2111.78 3978.87C2110.91 3977.48 2109.87 3976.26 2108.65 3975.22C2107.44 3974 2106.13 3972.96 2104.74 3972.09C2103.18 3971.22 2101.61 3970.43 2100.05 3969.74C2097.44 3985.39 2095.35 3999.73 2093.79 4012.77C2092.23 4025.8 2091.62 4036.24 2091.96 4044.06C2089.88 4045.97 2087.71 4047.36 2085.45 4048.23C2083.36 4049.27 2081.45 4049.97 2079.71 4050.32C2077.62 4050.84 2075.62 4051.1 2073.71 4051.1C2069.54 4051.1 2066.76 4049.8 2065.37 4047.19C2063.98 4044.75 2063.37 4041.54 2063.54 4037.54C2063.71 4034.41 2064.15 4031.11 2064.84 4027.63C2065.54 4023.98 2066.32 4020.59 2067.19 4017.46ZM2049.2 3953.31C2057.37 3952.96 2064.15 3952.44 2069.54 3951.75C2075.1 3950.88 2080.06 3950.18 2084.4 3949.66C2085.97 3943.58 2087.44 3937.66 2088.84 3931.93C2090.4 3926.19 2091.88 3920.8 2093.27 3915.76C2096.05 3905.5 2098.31 3896.72 2100.05 3889.42C2101.79 3882.12 2103.18 3876.12 2104.22 3871.43C2102.13 3874.04 2099.61 3877.08 2096.66 3880.56C2093.88 3884.03 2090.83 3887.77 2087.53 3891.77C2084.23 3895.59 2080.84 3899.59 2077.36 3903.77C2074.06 3907.76 2070.84 3911.59 2067.71 3915.24C2061.8 3922.37 2055.8 3929.49 2049.72 3936.62C2043.64 3943.58 2038.51 3949.57 2034.33 3954.61C2036.25 3954.27 2038.42 3954.09 2040.85 3954.09C2043.46 3953.92 2046.24 3953.66 2049.2 3953.31Z" fill="#571E25"/>
<path d="M1999.11 4363.26C1994.94 4363.26 1990.6 4362.04 1986.08 4359.61C1981.73 4357.35 1977.73 4353.61 1974.08 4348.39C1970.6 4343 1967.65 4335.96 1965.21 4327.27C1962.95 4318.58 1961.74 4307.89 1961.56 4295.2C1961.39 4287.2 1962.35 4278.33 1964.43 4268.6C1966.52 4258.86 1969.39 4249.04 1973.04 4239.13C1976.86 4229.05 1981.38 4219.31 1986.6 4209.93C1991.81 4200.54 1997.46 4192.19 2003.55 4184.89C2009.81 4177.59 2016.32 4171.77 2023.1 4167.42C2030.06 4162.9 2037.19 4160.64 2044.49 4160.64C2052.66 4160.64 2058.22 4162.38 2061.18 4165.86C2064.31 4169.33 2066.31 4173.94 2067.17 4179.68C2067.52 4182.11 2067.7 4184.81 2067.7 4187.76C2067.87 4190.54 2067.61 4193.32 2066.91 4196.11C2066.39 4198.89 2065.44 4201.49 2064.05 4203.93C2062.65 4206.19 2060.74 4208.01 2058.31 4209.4C2056.22 4210.45 2054.14 4211.23 2052.05 4211.75C2050.14 4212.27 2047.96 4212.53 2045.53 4212.53C2043.1 4212.53 2040.58 4212.1 2037.97 4211.23C2040.92 4206.36 2043.18 4201.76 2044.75 4197.41C2046.31 4192.89 2047.18 4188.98 2047.36 4185.67C2047.7 4182.2 2047.27 4179.5 2046.05 4177.59C2045.01 4175.5 2043.36 4174.46 2041.1 4174.46C2037.97 4174.46 2034.14 4176.46 2029.62 4180.46C2025.28 4184.46 2020.67 4190.11 2015.8 4197.41C2011.11 4204.54 2006.5 4213.14 2001.98 4223.22C1997.46 4233.31 1993.72 4244.52 1990.77 4256.86C1997.2 4247.48 2003.98 4240.87 2011.11 4237.05C2018.24 4233.05 2024.41 4231.05 2029.62 4231.05C2032.58 4231.05 2035.97 4231.57 2039.79 4232.61C2043.62 4233.66 2047.18 4235.83 2050.49 4239.13C2053.79 4242.26 2056.57 4246.69 2058.83 4252.43C2061.26 4258.17 2062.48 4265.73 2062.48 4275.12C2062.48 4284.51 2060.83 4294.41 2057.53 4304.85C2054.22 4315.1 2049.62 4324.58 2043.71 4333.27C2037.97 4341.96 2031.19 4349.18 2023.37 4354.91C2015.72 4360.48 2007.63 4363.26 1999.11 4363.26ZM1987.64 4273.03C1986.77 4278.59 1986.08 4284.42 1985.55 4290.5C1985.21 4296.41 1985.03 4302.5 1985.03 4308.76C1985.03 4310.67 1985.29 4313.8 1985.81 4318.14C1986.34 4322.49 1987.21 4326.84 1988.42 4331.18C1989.81 4335.53 1991.64 4339.35 1993.9 4342.66C1996.16 4345.96 1999.11 4347.61 2002.76 4347.61C2007.63 4347.61 2012.41 4344.83 2017.11 4339.27C2021.8 4333.53 2025.97 4326.58 2029.62 4318.41C2033.45 4310.06 2036.4 4301.37 2038.49 4292.33C2040.75 4283.11 2041.88 4274.94 2041.88 4267.82C2041.71 4260.69 2040.58 4255.13 2038.49 4251.13C2036.58 4246.95 2033.45 4244.87 2029.1 4244.87C2025.45 4244.87 2022.15 4246.09 2019.19 4248.52C2016.41 4250.95 2013.89 4253.91 2011.63 4257.39C2009.37 4260.69 2007.46 4264.17 2005.89 4267.82C2004.33 4271.47 2003.03 4274.6 2001.98 4277.2C2000.07 4281.72 1998.51 4284.16 1997.29 4284.51C1996.25 4284.68 1994.59 4283.55 1992.33 4281.12C1991.12 4280.25 1990.16 4279.12 1989.47 4277.73C1988.77 4276.16 1988.16 4274.6 1987.64 4273.03Z" fill="#571E25"/>
<path d="M2126.44 4117.06C2113.67 4116.92 2097.48 4116.92 2077.87 4117.06C2058.26 4117.06 2038.88 4117.13 2019.72 4117.27C2006.95 4117.41 1993.96 4117.7 1980.73 4118.12C1969.33 4118.4 1956.79 4118.83 1943.11 4119.39C1929.42 4119.96 1916.43 4120.81 1904.11 4121.94C1903.66 4120.81 1903.66 4119.75 1904.11 4118.76C1904.57 4117.63 1905.25 4116.56 1906.16 4115.57C1907.08 4114.44 1907.99 4113.38 1908.9 4112.39C1910.72 4110.97 1913.23 4109.49 1916.43 4107.93C1920.07 4106.37 1923.27 4105.38 1926 4104.96C1928.28 4104.67 1932.84 4104.39 1939.68 4104.11C1946.98 4103.83 1955.42 4103.61 1965 4103.47C1975.03 4103.19 1985.98 4102.98 1997.83 4102.83C2010.15 4102.69 2022.23 4102.62 2034.09 4102.62C2058.26 4102.48 2078.33 4102.55 2094.29 4102.83C2110.25 4102.98 2125.53 4103.26 2140.13 4103.68C2146.51 4103.97 2150.16 4104.6 2151.07 4105.59C2152.44 4106.59 2151.75 4108.35 2149.02 4110.9C2146.28 4113.31 2143.32 4115.01 2140.13 4116C2136.93 4116.85 2132.37 4117.2 2126.44 4117.06Z" fill="#DF980C"/>
<path d="M2314.56 4219.26C2314.1 4215.8 2311.1 4213.15 2305.56 4211.3C2300.25 4209.46 2294.37 4208.07 2287.91 4207.15C2280.3 4206.23 2271.88 4205.65 2262.65 4205.42C2255.96 4205.42 2249.73 4205.76 2243.96 4206.46C2238.88 4206.92 2233.92 4207.73 2229.08 4208.88C2224.46 4210.26 2221.23 4211.99 2219.39 4214.07C2216.39 4216.38 2212.47 4216.95 2207.62 4215.8C2202.78 4214.65 2199.55 4210.72 2197.93 4204.03C2197.47 4201.5 2196.78 4199.07 2195.85 4196.77C2195.16 4194.92 2194.47 4192.96 2193.78 4190.88C2192.86 4188.81 2191.82 4187.19 2190.66 4186.04C2194.12 4179.12 2197.82 4172.89 2201.74 4167.35C2205.89 4161.81 2210.39 4156.39 2215.23 4151.08C2220.31 4145.78 2225.85 4140.47 2231.85 4135.17C2238.08 4129.86 2245 4123.86 2252.61 4117.17C2259.76 4111.17 2267.26 4104.02 2275.11 4095.71C2283.18 4087.41 2290.56 4078.06 2297.25 4067.68C2304.18 4057.3 2309.94 4045.99 2314.56 4033.77C2319.4 4021.31 2322.17 4007.93 2322.86 3993.62C2323.32 3981.86 2321.25 3973.67 2316.63 3969.05C2312.25 3964.44 2306.71 3962.13 2300.02 3962.13C2296.79 3962.13 2293.1 3963.51 2288.95 3966.28C2284.8 3968.82 2280.76 3972.51 2276.84 3977.36C2273.14 3981.97 2269.8 3987.39 2266.8 3993.62C2264.03 3999.85 2262.53 4006.43 2262.3 4013.35C2262.07 4015.19 2262.19 4016.92 2262.65 4018.54C2263.11 4019.92 2263.57 4021.31 2264.03 4022.69C2264.72 4023.85 2265.76 4024.77 2267.15 4025.46C2263.45 4028.46 2259.76 4030.42 2256.07 4031.34C2254.23 4031.81 2252.5 4032.04 2250.88 4032.04C2249.03 4032.04 2246.84 4031.92 2244.3 4031.69C2241.77 4031.23 2239.34 4030.42 2237.04 4029.27C2234.96 4027.88 2233.12 4025.92 2231.5 4023.38C2230.12 4020.85 2229.54 4017.39 2229.77 4013C2230 4008.62 2231.85 4002.74 2235.31 3995.35C2239 3987.97 2244.42 3980.82 2251.57 3973.9C2258.96 3966.74 2268.07 3960.63 2278.91 3955.55C2289.76 3950.48 2302.44 3947.94 2316.98 3947.94C2326.67 3947.94 2334.05 3950.02 2339.13 3954.17C2344.44 3958.32 2348.24 3963.28 2350.55 3969.05C2352.86 3974.82 2354.13 3980.7 2354.36 3986.7C2354.59 3992.47 2354.59 3997.2 2354.36 4000.89C2353.89 4010.58 2351.59 4020.5 2347.43 4030.65C2343.51 4040.8 2338.32 4050.84 2331.86 4060.76C2325.63 4070.68 2318.48 4080.37 2310.4 4089.83C2302.56 4099.29 2294.6 4108.17 2286.53 4116.48C2278.45 4124.78 2270.49 4132.4 2262.65 4139.32C2255.03 4146.24 2248.34 4152.12 2242.57 4156.97C2236.35 4162.27 2231.5 4167.58 2228.04 4172.89C2224.81 4178.19 2222.39 4183.15 2220.77 4187.77C2226.31 4185 2233.92 4182.23 2243.61 4179.46C2253.3 4176.69 2264.38 4175.31 2276.84 4175.31C2284.22 4175.31 2291.02 4175.66 2297.25 4176.35C2302.56 4176.81 2307.64 4177.73 2312.48 4179.12C2317.33 4180.27 2320.67 4182 2322.52 4184.31C2322.98 4186.85 2323.21 4189.15 2323.21 4191.23C2323.21 4193.31 2323.09 4195.27 2322.86 4197.11C2322.63 4199.19 2322.29 4201.03 2321.83 4202.65C2321.36 4204.5 2320.79 4206.34 2320.09 4208.19C2318.94 4211.42 2317.1 4215.11 2314.56 4219.26ZM2414.23 3961.78C2414.46 3961.55 2414.57 3961.55 2414.57 3961.78H2414.23ZM2450.56 3980.47C2444.1 3980.47 2438.34 3981.05 2433.26 3982.2C2431.65 3986.82 2429.68 3992.7 2427.38 3999.85C2425.07 4007 2422.53 4014.85 2419.76 4023.38C2417.23 4031.69 2414.69 4040.34 2412.15 4049.34C2409.84 4058.34 2407.77 4067.1 2405.92 4075.64C2408.23 4072.87 2411.11 4069.99 2414.57 4066.99C2418.03 4063.76 2421.96 4060.88 2426.34 4058.34C2430.72 4055.57 2435.45 4053.26 2440.53 4051.42C2445.6 4049.57 2450.91 4048.65 2456.45 4048.65C2464.06 4048.65 2470.41 4050.03 2475.48 4052.8C2480.79 4055.57 2484.82 4059.38 2487.59 4064.22C2490.59 4068.84 2492.55 4074.26 2493.48 4080.49C2494.63 4086.72 2494.86 4093.18 2494.17 4099.87C2493.02 4113.94 2489.79 4128.01 2484.48 4142.09C2479.17 4156.16 2472.37 4168.85 2464.06 4180.15C2455.75 4191.23 2446.3 4200.34 2435.68 4207.49C2425.07 4214.42 2414 4217.88 2402.46 4217.88C2396.46 4217.88 2390.81 4216.49 2385.5 4213.72C2380.43 4211.19 2375.93 4207.84 2372.01 4203.69C2368.08 4199.53 2364.97 4194.92 2362.66 4189.84C2360.59 4184.54 2359.78 4179.35 2360.24 4174.27C2360.93 4164.81 2366.35 4156.28 2376.5 4148.66C2378.35 4147.05 2380.31 4145.66 2382.39 4144.51C2384 4143.36 2385.73 4142.32 2387.58 4141.39C2389.42 4140.24 2391.15 4139.43 2392.77 4138.97C2391.39 4150.05 2391.85 4158.58 2394.15 4164.58C2396.46 4170.58 2399.35 4174.96 2402.81 4177.73C2406.73 4180.96 2411.46 4182.81 2416.99 4183.27C2424.38 4183.27 2431.18 4181.19 2437.41 4177.04C2443.64 4172.66 2448.95 4167.12 2453.33 4160.43C2457.95 4153.74 2461.64 4146.12 2464.41 4137.59C2467.18 4129.05 2468.91 4120.4 2469.6 4111.63C2470.75 4100.1 2469.25 4091.1 2465.1 4084.64C2460.95 4078.18 2455.64 4074.95 2449.18 4074.95C2442.26 4074.95 2435.8 4077.26 2429.8 4081.87C2424.03 4086.25 2418.38 4091.79 2412.84 4098.48C2410.77 4101.02 2408.46 4102.75 2405.92 4103.67C2403.38 4104.37 2400.84 4104.71 2398.31 4104.71C2396 4104.71 2393.81 4104.37 2391.73 4103.67C2389.66 4102.75 2388.04 4101.94 2386.89 4101.25C2386.19 4100.79 2385.27 4100.1 2384.12 4099.17C2382.96 4098.02 2381.93 4096.41 2381 4094.33C2380.08 4092.25 2379.5 4089.48 2379.27 4086.02C2379.27 4082.56 2380.2 4078.06 2382.04 4072.53C2383.89 4066.76 2386.19 4059.84 2388.96 4051.76C2391.73 4043.46 2394.5 4034.92 2397.27 4026.15C2400.04 4017.39 2402.69 4008.96 2405.23 4000.89C2407.77 3992.81 2409.73 3986.01 2411.11 3980.47C2413.19 3972.63 2414.34 3967.67 2414.57 3965.59C2415.03 3963.28 2415.03 3962.01 2414.57 3961.78C2415.73 3961.55 2418.49 3960.86 2422.88 3959.71C2427.26 3958.55 2432.68 3957.4 2439.14 3956.25C2445.83 3955.09 2453.22 3954.05 2461.29 3953.13C2469.6 3952.21 2477.9 3951.75 2486.21 3951.75C2495.21 3951.75 2502.47 3952.21 2508.01 3953.13C2513.55 3953.82 2517.59 3955.21 2520.12 3957.28C2522.89 3959.36 2524.39 3962.36 2524.62 3966.28C2524.85 3969.97 2524.16 3974.7 2522.55 3980.47C2521.85 3982.55 2520.93 3984.74 2519.78 3987.05C2518.62 3988.89 2517.13 3991.08 2515.28 3993.62C2513.66 3995.93 2511.59 3998.35 2509.05 4000.89C2506.51 3995.81 2502.01 3991.89 2495.55 3989.12C2489.32 3986.12 2482.86 3984.05 2476.17 3982.89C2468.33 3981.51 2459.79 3980.7 2450.56 3980.47Z" fill="#571E25"/>
<path d="M1593.71 3572.23C1580.61 3572.57 1569.86 3570.21 1561.46 3565.18C1552.73 3560.14 1546.01 3552.75 1541.3 3543C1536.27 3533.6 1533.07 3522.01 1531.73 3508.23C1530.39 3494.8 1530.39 3480.02 1531.73 3463.89C1533.41 3451.46 1536.43 3438.53 1540.8 3425.09C1544.5 3413.67 1550.21 3401.07 1557.93 3387.3C1565.32 3373.52 1575.4 3360.09 1588.17 3346.98C1590.86 3347.66 1593.04 3348.5 1594.72 3349.5C1596.4 3350.18 1597.74 3351.02 1598.75 3352.02C1599.76 3353.37 1600.43 3354.54 1600.77 3355.55C1601.44 3359.25 1600.43 3363.45 1597.74 3368.15C1595.05 3372.85 1592.37 3377.89 1589.68 3383.27C1582.29 3398.72 1576.75 3413.33 1573.05 3427.11C1569.36 3440.88 1567 3453.64 1566 3465.4C1565.32 3475.48 1565.49 3484.55 1566.5 3492.61C1567.17 3501.01 1568.35 3508.07 1570.03 3513.78C1571.71 3519.82 1573.55 3524.36 1575.57 3527.38C1577.59 3530.74 1579.43 3532.42 1581.11 3532.42C1582.79 3532.42 1584.47 3531.25 1586.15 3528.89C1588.17 3526.54 1590.02 3523.69 1591.7 3520.33C1593.71 3516.97 1596.06 3511.76 1598.75 3504.71C1601.44 3497.99 1604.29 3490.09 1607.32 3481.02C1610.34 3471.95 1613.2 3462.21 1615.88 3451.8C1618.91 3441.05 1621.59 3430.3 1623.95 3419.55C1628.65 3398.05 1633.69 3373.86 1639.06 3346.98C1644.44 3319.77 1652.33 3291.39 1662.75 3261.82C1666.11 3249.39 1670.3 3235.79 1675.34 3221.01C1679.38 3208.24 1684.41 3193.46 1690.46 3176.66C1696.84 3159.53 1704.07 3141.05 1712.13 3121.23C1712.13 3119.55 1713.47 3118.04 1716.16 3116.7C1719.18 3115.02 1722.54 3113.34 1726.24 3111.66C1730.27 3109.98 1734.8 3108.3 1739.84 3106.62C1746.56 3104.27 1751.77 3102.93 1755.46 3102.59C1759.5 3102.25 1762.52 3102.76 1764.54 3104.1C1766.55 3105.45 1767.89 3107.29 1768.57 3109.64C1769.24 3111.66 1769.57 3114.01 1769.57 3116.7C1770.25 3127.79 1770.58 3138.2 1770.58 3147.94C1770.92 3157.68 1771.25 3166.25 1771.59 3173.64C1771.93 3182.38 1772.09 3190.27 1772.09 3197.32C1772.43 3206.73 1771.93 3219.33 1770.58 3235.12C1769.24 3250.57 1767.73 3266.86 1766.05 3284C1764.7 3301.13 1763.36 3317.93 1762.02 3334.39C1761.01 3350.51 1760.84 3363.95 1761.51 3374.7C1761.51 3380.41 1761.68 3385.79 1762.02 3390.82C1762.69 3395.53 1763.36 3400.23 1764.03 3404.93C1768.4 3392.84 1773.27 3380.24 1778.64 3367.14C1784.02 3353.7 1789.39 3340.94 1794.77 3328.84C1800.14 3316.41 1805.18 3304.99 1809.89 3294.58C1814.59 3283.83 1818.29 3274.93 1820.97 3267.87C1825 3258.46 1830.38 3246.54 1837.1 3232.09C1843.82 3217.65 1850.54 3203.2 1857.25 3188.76C1864.31 3174.31 1870.69 3161.04 1876.4 3148.95C1882.45 3136.86 1886.82 3128.46 1889.5 3123.75C1891.52 3120.39 1894.88 3117.37 1899.58 3114.68C1904.62 3112 1909.83 3109.64 1915.2 3107.63C1920.91 3105.61 1926.12 3104.27 1930.82 3103.6C1935.86 3102.59 1939.22 3102.42 1940.9 3103.09C1945.27 3104.1 1948.29 3105.45 1949.97 3107.12C1951.99 3108.8 1953.16 3109.98 1953.5 3110.65C1954.17 3112 1954.68 3114.35 1955.01 3117.71C1955.35 3120.73 1955.18 3125.6 1954.51 3132.32C1953.84 3140.38 1951.82 3152.64 1948.46 3169.11C1945.44 3185.57 1941.57 3204.38 1936.87 3225.54C1932.5 3246.37 1927.63 3268.71 1922.26 3292.56C1917.22 3316.41 1912.35 3339.93 1907.64 3363.11C1902.94 3385.95 1898.74 3407.45 1895.05 3427.61C1891.69 3447.77 1889.5 3464.73 1888.5 3478.5C1887.82 3493.96 1888.83 3507.56 1891.52 3519.32C1892.53 3524.36 1894.04 3529.23 1896.05 3533.93C1898.07 3538.64 1900.76 3542.67 1904.12 3546.03C1907.48 3549.72 1911.51 3552.41 1916.21 3554.09C1920.91 3555.77 1926.46 3556.27 1932.84 3555.6C1924.44 3561.31 1916.21 3565.51 1908.15 3568.2C1900.09 3570.89 1892.19 3572.23 1884.46 3572.23C1876.07 3572.57 1868.68 3571.22 1862.29 3568.2C1855.91 3565.51 1850.54 3561.48 1846.17 3556.11C1841.8 3551.07 1838.61 3544.85 1836.59 3537.46C1834.58 3530.41 1833.91 3522.51 1834.58 3513.78C1835.25 3505.71 1837.43 3492.45 1841.13 3473.97C1844.82 3455.49 1849.19 3434.66 1854.23 3411.48C1859.61 3387.97 1865.32 3363.61 1871.36 3338.42C1877.75 3312.89 1883.62 3289.04 1889 3266.86C1894.71 3244.36 1899.58 3225.04 1903.61 3208.91C1907.64 3192.79 1910.16 3182.21 1911.17 3177.17C1911.84 3173.14 1912.35 3169.44 1912.68 3166.08C1913.36 3162.39 1914.03 3159.2 1914.7 3156.51C1911.34 3163.23 1907.14 3171.29 1902.1 3180.7C1897.4 3190.1 1892.36 3200.18 1886.98 3210.93C1881.61 3221.68 1876.07 3232.93 1870.36 3244.69C1864.98 3256.11 1859.77 3267.2 1854.73 3277.95C1846.34 3295.42 1838.11 3313.39 1830.04 3331.87C1821.98 3350.01 1814.76 3367.31 1808.38 3383.77C1801.99 3400.23 1796.62 3415.01 1792.25 3428.11C1788.22 3441.21 1785.87 3451.29 1785.2 3458.35V3465.4C1785.2 3467.42 1785.2 3469.77 1785.2 3472.46C1785.53 3475.14 1786.04 3477.66 1786.71 3480.02L1766.55 3495.64C1763.53 3496.64 1760.84 3497.48 1758.49 3498.16C1756.47 3498.83 1754.46 3499.16 1752.44 3499.16C1744.71 3499.16 1738.84 3495.13 1734.8 3487.07C1730.77 3479.68 1727.08 3465.23 1723.72 3443.73C1720.36 3422.23 1719.35 3395.86 1720.7 3364.62C1721.37 3349.17 1722.38 3333.55 1723.72 3317.76C1725.4 3301.97 1726.91 3286.85 1728.25 3272.41C1729.93 3257.96 1731.45 3244.52 1732.79 3232.09C1734.13 3219.33 1734.8 3208.41 1734.8 3199.34C1735.14 3192.62 1734.97 3186.57 1734.3 3181.2C1733.63 3175.49 1732.96 3170.28 1732.29 3165.58C1729.26 3173.3 1725.9 3183.89 1722.21 3197.32C1718.51 3210.43 1714.65 3225.04 1710.62 3241.16C1706.59 3257.29 1702.39 3274.25 1698.02 3292.06C1693.99 3309.86 1689.96 3327 1685.93 3343.46C1682.23 3359.92 1678.7 3375.2 1675.34 3389.31C1671.98 3403.09 1669.3 3414.17 1667.28 3422.57C1663.92 3436.01 1660.56 3451.29 1657.2 3468.43C1653.84 3485.56 1649.64 3501.68 1644.61 3516.8C1639.57 3532.25 1633.02 3545.19 1624.95 3555.6C1616.89 3566.35 1606.48 3571.89 1593.71 3572.23ZM2219.06 3377.72C2214.36 3384.44 2208.31 3392.84 2200.92 3402.92C2193.53 3412.66 2185.8 3422.57 2177.74 3432.65C2170.01 3442.39 2162.29 3451.46 2154.56 3459.86C2147.17 3467.92 2140.95 3473.63 2135.91 3476.99C2132.55 3479.01 2128.69 3480.69 2124.32 3482.03C2119.96 3483.38 2115.42 3484.21 2110.72 3484.55C2106.35 3484.89 2102.15 3484.55 2098.12 3483.54C2094.09 3482.87 2090.56 3481.53 2087.54 3479.51C2084.52 3477.16 2082 3473.8 2079.98 3469.43C2078.3 3465.74 2076.62 3460.87 2074.94 3454.82C2073.6 3448.77 2073.09 3441.21 2073.43 3432.14C2065.37 3445.58 2056.46 3456 2046.72 3463.39C2036.98 3470.44 2027.74 3475.65 2019.01 3479.01C2008.93 3482.7 1998.85 3484.89 1988.77 3485.56C1984.07 3485.56 1979.03 3483.88 1973.66 3480.52C1968.28 3477.5 1963.75 3472.62 1960.05 3465.91C1956.36 3458.85 1954 3449.95 1953 3439.2C1951.99 3428.11 1953.33 3415.01 1957.03 3399.89C1961.73 3379.4 1969.12 3360.76 1979.2 3343.96C1989.61 3327.16 2000.87 3312.89 2012.96 3301.13C2025.05 3289.04 2036.98 3279.96 2048.74 3273.92C2060.5 3267.87 2070.24 3265.18 2077.96 3265.86C2087.04 3267.54 2094.43 3270.22 2100.14 3273.92C2104.84 3277.28 2107.86 3282.32 2109.21 3289.04C2110.89 3295.42 2108.2 3303.98 2101.14 3314.73C2105.85 3313.73 2109.71 3313.05 2112.73 3312.72C2116.09 3312.38 2118.61 3312.21 2120.29 3312.21C2122.31 3312.21 2123.65 3312.38 2124.32 3312.72C2124.66 3313.39 2124.83 3314.9 2124.83 3317.25C2124.83 3319.27 2124.32 3323.13 2123.32 3328.84C2122.31 3334.55 2120.8 3342.28 2118.78 3352.02C2116.77 3361.77 2114.08 3374.36 2110.72 3389.82C2110.05 3392.84 2109.38 3395.7 2108.7 3398.38C2108.37 3400.73 2107.86 3403.25 2107.19 3405.94C2106.86 3408.29 2106.35 3411.15 2105.68 3414.51C2105.01 3417.87 2104.17 3422.07 2103.16 3427.11C2102.82 3430.13 2102.66 3433.49 2102.66 3437.18C2102.99 3440.54 2103.66 3443.73 2104.67 3446.76C2105.68 3449.78 2107.19 3452.3 2109.21 3454.32C2111.56 3456 2114.75 3456.84 2118.78 3456.84C2122.14 3456.84 2126.51 3454.82 2131.88 3450.79C2137.26 3446.42 2142.97 3441.05 2149.02 3434.66C2155.06 3427.95 2161.28 3420.72 2167.66 3413C2174.38 3404.93 2180.59 3397.21 2186.3 3389.82C2192.02 3382.43 2197.05 3375.88 2201.42 3370.16C2206.12 3364.45 2209.48 3360.25 2211.5 3357.57C2214.19 3354.54 2216.88 3352.86 2219.56 3352.53C2222.25 3351.86 2224.27 3352.53 2225.61 3354.54C2226.95 3356.56 2227.12 3359.58 2226.11 3363.61C2225.44 3367.64 2223.09 3372.35 2219.06 3377.72ZM2071.41 3399.89C2073.09 3393.18 2075.11 3385.28 2077.46 3376.21C2079.81 3367.14 2081.83 3358.41 2083.51 3350.01C2085.19 3341.61 2086.36 3334.72 2087.04 3329.35C2088.04 3323.64 2087.88 3320.95 2086.53 3321.29C2084.85 3321.62 2083 3322.12 2080.99 3322.8C2079.31 3323.47 2077.12 3323.97 2074.44 3324.31C2071.75 3324.64 2069.06 3325.15 2066.38 3325.82C2069.06 3320.45 2070.57 3316.08 2070.91 3312.72C2071.58 3309.02 2071.75 3306.17 2071.41 3304.15C2071.08 3301.8 2070.41 3299.95 2069.4 3298.61C2065.7 3295.59 2059.15 3298.11 2049.75 3306.17C2040.68 3313.89 2030.09 3328.34 2018 3349.5C2012.96 3358.24 2008.93 3367.64 2005.91 3377.72C2002.88 3387.46 2000.7 3396.7 1999.36 3405.44C1998.35 3414.17 1998.18 3421.9 1998.85 3428.62C1999.52 3435 2000.87 3439.2 2002.88 3441.21C2006.58 3444.91 2010.78 3446.76 2015.48 3446.76C2020.18 3446.42 2024.89 3445.08 2029.59 3442.73C2034.63 3440.04 2039.5 3436.68 2044.2 3432.65C2049.24 3428.62 2053.61 3424.42 2057.3 3420.05C2061.34 3415.68 2064.53 3411.65 2066.88 3407.96C2069.57 3404.26 2071.08 3401.57 2071.41 3399.89ZM2371.24 3350.51C2372.58 3348.5 2374.26 3347.32 2376.28 3346.98C2378.63 3346.31 2380.48 3346.48 2381.82 3347.49C2383.16 3348.5 2383.84 3350.18 2383.84 3352.53C2384.17 3354.88 2383.33 3358.07 2381.32 3362.1C2374.6 3374.87 2365.7 3388.64 2354.61 3403.42C2343.86 3418.2 2332.44 3432.14 2320.34 3445.25C2308.25 3458.01 2296.49 3468.59 2285.07 3476.99C2273.65 3485.39 2264.07 3489.59 2256.35 3489.59C2245.26 3489.59 2236.02 3487.41 2228.63 3483.04C2221.24 3478.67 2215.36 3473.3 2211 3466.91C2206.96 3460.53 2204.11 3453.64 2202.43 3446.25C2200.75 3438.53 2200.25 3431.47 2200.92 3425.09C2201.25 3419.71 2202.43 3410.14 2204.45 3396.37C2206.46 3382.26 2209.15 3366.13 2212.51 3347.99C2215.87 3329.52 2219.56 3309.86 2223.59 3289.04C2227.96 3267.87 2232.5 3247.55 2237.2 3228.06C2231.49 3228.73 2225.78 3229.41 2220.07 3230.08C2214.36 3230.75 2209.15 3231.09 2204.45 3231.09C2193.7 3231.09 2183.62 3229.91 2174.21 3227.56C2164.47 3224.87 2157.25 3222.35 2152.54 3220C2149.86 3218.66 2148.68 3216.81 2149.02 3214.46C2149.35 3211.77 2150.36 3209.25 2152.04 3206.9C2153.72 3204.21 2155.9 3202.03 2158.59 3200.35C2160.94 3198.33 2163.12 3197.32 2165.14 3197.32C2171.52 3198 2178.41 3198.67 2185.8 3199.34C2193.19 3199.68 2201.25 3199.68 2209.99 3199.34C2216.37 3199 2222.42 3198.5 2228.13 3197.83C2234.18 3197.16 2240.05 3196.32 2245.77 3195.31C2250.13 3179.18 2254.33 3165.24 2258.36 3153.48C2262.73 3141.39 2266.59 3132.99 2269.95 3128.29C2270.96 3126.61 2273.14 3125.27 2276.5 3124.26C2280.2 3122.91 2284.06 3122.07 2288.09 3121.74C2292.12 3121.07 2295.99 3121.07 2299.68 3121.74C2303.38 3122.07 2306.07 3123.25 2307.75 3125.27C2309.43 3127.95 2310.1 3134.84 2309.76 3145.93C2309.43 3157.01 2307.58 3171.12 2304.22 3188.25C2318.33 3188.25 2330.76 3189.09 2341.51 3190.77C2352.59 3192.12 2362 3193.8 2369.73 3195.81C2377.45 3197.49 2383.67 3199.34 2388.37 3201.36C2393.07 3203.04 2396.6 3204.21 2398.95 3204.88C2401.3 3205.55 2402.48 3207.23 2402.48 3209.92C2402.82 3212.61 2402.31 3215.46 2400.97 3218.49C2399.96 3221.18 2398.11 3223.53 2395.43 3225.54C2392.74 3227.56 2389.71 3228.23 2386.36 3227.56C2383 3227.22 2379.13 3226.55 2374.77 3225.54C2370.73 3224.54 2365.7 3223.7 2359.65 3223.02C2353.94 3222.35 2347.05 3221.68 2338.99 3221.01C2330.93 3220.34 2321.52 3220 2310.77 3220C2308.75 3220 2306.4 3220.17 2303.71 3220.5C2301.36 3220.5 2298.84 3220.5 2296.16 3220.5C2294.81 3225.88 2293.47 3231.25 2292.12 3236.63C2291.12 3241.67 2289.61 3247.04 2287.59 3252.75C2283.22 3266.19 2278.18 3280.8 2272.47 3296.59C2267.43 3310.37 2261.39 3326.16 2254.33 3343.96C2247.28 3361.77 2239.38 3380.75 2230.65 3400.9C2228.63 3415.35 2228.8 3426.43 2231.15 3434.16C2233.84 3441.55 2237.03 3446.93 2240.73 3450.29C2245.09 3453.98 2250.47 3456 2256.85 3456.33C2261.89 3457 2267.94 3455.32 2274.99 3451.29C2282.38 3446.93 2289.94 3441.21 2297.67 3434.16C2305.39 3427.11 2313.12 3419.38 2320.85 3410.98C2328.91 3402.58 2336.3 3394.35 2343.02 3386.29C2349.74 3378.23 2355.62 3371 2360.66 3364.62C2365.7 3357.9 2369.22 3353.2 2371.24 3350.51ZM2412.05 3460.87C2414.07 3462.21 2416.59 3462.88 2419.61 3462.88C2422.97 3462.88 2426.16 3462.21 2429.19 3460.87C2432.55 3459.52 2435.57 3457.68 2438.26 3455.32C2441.28 3452.97 2443.46 3449.95 2444.81 3446.25C2446.15 3442.56 2446.15 3437.35 2444.81 3430.63C2443.46 3423.58 2441.28 3416.19 2438.26 3408.46C2435.57 3400.4 2432.55 3392.34 2429.19 3384.27C2425.83 3376.21 2422.97 3368.82 2420.62 3362.1C2418.61 3357.06 2416.93 3352.36 2415.58 3347.99C2414.24 3344.3 2412.89 3340.77 2411.55 3337.41C2410.54 3333.71 2409.7 3331.2 2409.03 3329.85C2407.35 3332.54 2404.33 3336.91 2399.96 3342.95C2395.93 3349 2391.39 3355.38 2386.36 3362.1C2381.65 3368.48 2377.12 3374.53 2372.75 3380.24C2368.38 3385.62 2365.36 3389.31 2363.68 3391.33C2360.99 3394.35 2358.3 3396.2 2355.62 3396.87C2353.27 3397.21 2351.25 3396.7 2349.57 3395.36C2347.89 3393.68 2346.88 3391.5 2346.55 3388.81C2346.55 3385.79 2347.89 3382.26 2350.58 3378.23C2352.59 3375.54 2355.62 3371.34 2359.65 3365.63C2363.68 3359.58 2367.71 3353.54 2371.74 3347.49C2375.77 3341.11 2379.47 3335.56 2382.83 3330.86C2386.19 3325.82 2388.04 3322.8 2388.37 3321.79C2389.04 3319.1 2388.04 3315.57 2385.35 3311.21C2383 3306.84 2382.66 3301.8 2384.34 3296.09C2385.68 3291.39 2388.71 3286.01 2393.41 3279.96C2398.11 3273.58 2403.66 3267.87 2410.04 3262.83C2416.42 3257.79 2422.97 3254.1 2429.69 3251.75C2436.41 3249.06 2442.46 3249.06 2447.83 3251.75C2452.2 3254.43 2455.73 3257.46 2458.41 3260.82C2461.1 3263.84 2462.11 3267.03 2461.44 3270.39C2460.77 3272.07 2459.76 3274.25 2458.41 3276.94C2457.07 3279.63 2455.05 3282.99 2452.37 3287.02C2449.68 3290.71 2445.82 3295.59 2440.78 3301.63C2441.79 3309.36 2443.13 3316.41 2444.81 3322.8C2446.82 3329.18 2448.67 3334.72 2450.35 3339.43C2452.37 3345.14 2454.55 3350.34 2456.9 3355.05C2459.93 3361.09 2463.12 3367.31 2466.48 3373.69C2469.84 3380.07 2472.86 3386.46 2475.55 3392.84C2478.23 3398.89 2480.42 3404.6 2482.1 3409.97C2483.78 3415.35 2484.28 3419.88 2483.61 3423.58C2482.6 3429.29 2479.58 3436.18 2474.54 3444.24C2469.84 3452.3 2463.79 3460.2 2456.4 3467.92C2449.34 3475.31 2441.11 3481.7 2431.71 3487.07C2422.64 3492.45 2413.06 3495.13 2402.98 3495.13C2395.93 3495.13 2389.04 3492.95 2382.32 3488.58C2375.94 3484.21 2370.4 3479.18 2365.7 3473.46C2361.33 3467.42 2357.97 3461.54 2355.62 3455.83C2353.6 3450.12 2353.43 3445.75 2355.11 3442.73C2357.13 3438.7 2358.98 3435.5 2360.66 3433.15C2362.34 3430.8 2364.86 3428.11 2368.21 3425.09C2369.56 3424.08 2371.24 3422.91 2373.25 3421.56C2374.93 3420.55 2377.29 3419.55 2380.31 3418.54C2383.33 3417.53 2386.86 3416.36 2390.89 3415.01C2394.25 3425.43 2397.27 3433.66 2399.96 3439.7C2402.65 3445.41 2404.83 3449.95 2406.51 3453.31C2408.53 3457 2410.38 3459.52 2412.05 3460.87Z" fill="#571E25"/>
<path d="M2161.17 3056.14C2163.68 3053.91 2166.04 3052.66 2168.27 3052.38C2170.5 3052.1 2172.17 3052.66 2173.28 3054.05C2174.68 3055.16 2175.1 3056.97 2174.54 3059.48C2174.26 3061.71 2172.59 3064.49 2169.53 3067.83C2163.12 3074.24 2156.16 3081.2 2148.64 3088.72C2141.12 3095.96 2132.63 3102.92 2123.16 3109.61C2125.38 3113.78 2127.89 3117.54 2130.68 3120.89C2132.9 3123.95 2135.55 3127.01 2138.61 3130.08C2141.68 3132.86 2145.16 3134.95 2149.06 3136.34C2148.5 3137.46 2147.25 3138.57 2145.3 3139.68C2143.35 3140.8 2141.26 3142.05 2139.03 3143.44C2136.52 3144.84 2133.74 3146.37 2130.68 3148.04C2123.16 3151.66 2116.89 3153.61 2111.88 3153.89C2106.87 3154.17 2102.69 3153.47 2099.35 3151.8C2096 3150.13 2093.36 3147.62 2091.41 3144.28C2089.74 3140.94 2088.35 3137.46 2087.23 3133.84C2086.95 3133.56 2086.81 3132.86 2086.81 3131.75C2086.81 3131.19 2086.67 3130.77 2086.4 3130.49C2077.48 3134.11 2068.16 3137.04 2058.41 3139.27C2048.66 3141.49 2038.5 3142.61 2027.91 3142.61C2014.55 3142.61 2003.68 3139.96 1995.33 3134.67C1987.25 3129.38 1981.27 3122.84 1977.37 3115.04C1973.19 3107.24 1970.68 3098.89 1969.85 3089.97C1969.01 3080.78 1969.29 3072.43 1970.68 3064.91C1973.19 3049.31 1981.13 3032.6 1994.49 3014.78C2008.14 2996.96 2026.24 2977.05 2048.8 2955.05C2050.19 2953.65 2051.72 2952.26 2053.4 2950.87C2055.07 2949.48 2056.6 2948.08 2057.99 2946.69C2057.99 2939.17 2058.13 2932.07 2058.41 2925.39C2058.96 2918.42 2059.52 2911.74 2060.08 2905.34C2060.36 2902.83 2060.64 2900.46 2060.91 2898.23C2061.19 2895.73 2061.61 2893.22 2062.17 2890.71C2064.95 2876.51 2069.41 2864.68 2075.54 2855.21C2081.66 2845.46 2088.35 2837.66 2095.59 2831.81C2103.11 2825.69 2110.35 2821.37 2117.31 2818.86C2124.55 2816.36 2130.68 2815.1 2135.69 2815.1C2139.03 2815.1 2142.65 2815.66 2146.55 2816.78C2150.73 2817.89 2154.35 2819.84 2157.41 2822.62C2160.75 2825.41 2163.26 2829.17 2164.93 2833.9C2166.6 2838.64 2166.88 2844.62 2165.77 2851.87C2164.65 2857.99 2162.84 2863.98 2160.34 2869.83C2158.11 2875.68 2154.49 2882.22 2149.47 2889.46C2144.74 2896.42 2138.2 2904.5 2129.84 2913.69C2121.76 2922.88 2111.46 2933.88 2098.93 2946.69C2097.81 2947.8 2096.7 2948.78 2095.59 2949.61C2094.75 2950.45 2093.92 2951.42 2093.08 2952.54C2094.47 2978.16 2097.4 3002.81 2101.85 3026.48C2106.59 3050.15 2111.04 3070.48 2115.22 3087.47C2115.78 3089.69 2116.19 3091.23 2116.47 3092.06C2122.32 3088.44 2127.75 3084.82 2132.76 3081.2C2137.78 3077.3 2142.09 3073.68 2145.71 3070.34C2149.61 3067 2152.82 3064.07 2155.32 3061.57C2158.11 3059.06 2160.06 3057.25 2161.17 3056.14ZM2045.46 3114.2C2051.59 3114.2 2057.43 3113.78 2063 3112.95C2068.57 3111.83 2074.14 3110.58 2079.71 3109.19C2077.21 3100.83 2074.42 3090.53 2071.36 3078.28C2068.57 3066.02 2066.07 3052.24 2063.84 3036.92C2062.72 3028.85 2061.75 3020.77 2060.91 3012.69C2060.36 3004.62 2059.8 2996.68 2059.24 2988.88C2027.22 3024.81 2009.53 3052.52 2006.19 3072.01C2005.63 3075.91 2005.63 3080.37 2006.19 3085.38C2006.75 3090.11 2008.42 3094.71 2011.2 3099.16C2013.99 3103.34 2018.03 3106.96 2023.32 3110.02C2028.89 3112.81 2036.27 3114.2 2045.46 3114.2ZM2096 2871.08C2094.05 2884.73 2092.8 2899.07 2092.24 2914.11C2105.61 2901.02 2117.03 2889.32 2126.5 2879.02C2135.97 2868.71 2141.4 2859.52 2142.79 2851.45C2143.35 2847.55 2142.79 2843.79 2141.12 2840.17C2139.73 2836.27 2136.94 2834.32 2132.76 2834.32C2128.31 2834.32 2123.99 2835.43 2119.81 2837.66C2115.64 2839.89 2111.88 2842.81 2108.54 2846.43C2105.47 2849.78 2102.83 2853.68 2100.6 2858.13C2098.37 2862.31 2096.84 2866.62 2096 2871.08Z" fill="#DF980C"/>
<path d="M940.005 4562.95C1200 4746.9 1493.64 4613.36 1573.29 4547.83C1591.53 4535.74 1616.29 4511.14 1618.63 4519.05C1620.98 4526.96 1484.99 4714.45 1226.43 4751.5C967.868 4788.54 830.88 4727.01 755.056 4599.65C714.37 4522.97 712.414 4401.92 940.005 4562.95Z" fill="#4E6F82"/>
<path d="M888.001 4217.76C1031.12 4525.97 1373.78 4558.1 1482.28 4539.69C1505.57 4538.17 1541.54 4528.52 1539.52 4537.09C1537.5 4545.65 1312.15 4647.09 1053.14 4544.24C794.134 4441.38 699.957 4311.76 697.318 4153.64C700.326 4061.07 762.721 3947.98 888.001 4217.76Z" fill="#4E6F82"/>
<path d="M1103.35 1266.65C1032.32 1354.67 1003.63 1504.71 998.159 1568.72C997.448 1576.2 997.365 1587.69 1003.62 1590.54C1013.13 1594.86 1022.81 1574.69 1026.15 1561.97C1030.33 1546.85 1046.8 1492.29 1079.22 1395.01C1111.65 1297.73 1183.45 1277.91 1215.3 1280.16C1240.09 1278.82 1315.46 1294.94 1300.23 1361.23C1284.66 1428.96 1415.69 1505.16 1487.45 1419.14C1559.21 1333.11 1426.65 1223.22 1373.57 1200.06C1320.49 1176.9 1192.14 1156.63 1103.35 1266.65Z" fill="#4E6F82"/>
<path d="M1145 2912.54C1092.49 3178.75 887.298 3561 869.946 3582.99C851.451 3604.91 854.509 3614.09 861.39 3618.93C866.679 3621.86 876.08 3622.31 903.183 3582.99C970.861 3484.79 1180.1 3055.75 1220.41 2939.47C1260.72 2823.19 1392.59 2361.37 1180.02 2167.18C967.444 1973 780.759 2166.21 747.319 2216.89C713.878 2267.56 683.19 2371.32 772.532 2401.4C871.448 2434.71 902.816 2385.33 942.149 2339.52C979.918 2295.52 1073.41 2262.35 1127.81 2329.2C1178.18 2391.09 1207.54 2595.54 1145 2912.54Z" fill="#4E6F82"/>
<path d="M1042.1 1309.64C1042.1 1324.68 1034.48 1337.98 1015.41 1339.87C1000.36 1339.87 986.305 1328.15 986.305 1313.1C986.305 1298.05 999.464 1283.96 1014.51 1283.96C1029.56 1283.96 1042.1 1294.59 1042.1 1309.64Z" fill="#B14B57"/>
<path d="M999.046 1399.66C999.046 1417.81 983.795 1433.59 965.645 1433.59C947.495 1433.59 931.492 1416.45 931.492 1398.3C931.492 1380.15 946.816 1366.83 964.966 1366.83C983.116 1366.83 999.046 1381.51 999.046 1399.66Z" fill="#B14B57"/>
<path d="M974.402 1520.98C974.402 1540.88 955.11 1557.28 935.204 1557.28C915.299 1557.28 900.055 1540.24 900.055 1520.34C900.055 1500.43 918.678 1483.32 938.583 1483.32C958.489 1483.32 974.402 1501.07 974.402 1520.98Z" fill="#B14B57"/>
<path d="M1495.09 2943.98C1483.07 2953.03 1464.6 2951.51 1455.55 2939.48C1446.49 2927.46 1450.28 2909.5 1462.31 2900.44C1474.33 2891.39 1490.86 2892.04 1500.56 2904.92C1509.61 2916.94 1508.43 2935.25 1495.09 2943.98Z" fill="#B14B57"/>
<path d="M1397.45 2963.41C1382.95 2974.33 1362.86 2971.41 1351.95 2956.91C1341.03 2942.42 1342.37 2920.36 1356.87 2909.44C1371.37 2898.53 1397.45 2901.47 1405.91 2916.24C1416.83 2930.74 1411.94 2952.5 1397.45 2963.41Z" fill="#B14B57"/>
<path d="M1287.53 3014.53C1271.63 3026.5 1246.27 3026.35 1235.23 3009.41C1223.26 2993.51 1226.88 2968.55 1242.78 2956.57C1258.68 2944.6 1283.33 2949.19 1295.3 2965.09C1307.28 2980.99 1303.43 3002.55 1287.53 3014.53Z" fill="#B14B57"/>
<path d="M1203.75 4201.27C1217.67 4206.99 1224.86 4224.35 1219.14 4238.27C1213.41 4252.19 1195.64 4260.06 1181.72 4254.34C1167.8 4248.62 1161.22 4230.84 1166.94 4216.92C1172.66 4203 1187.27 4195.87 1203.75 4201.27Z" fill="#B14B57"/>
<path d="M1252.58 4286.36C1269.37 4293.26 1275.92 4312.56 1269.02 4329.35C1261.54 4344.69 1242.55 4353.26 1226.12 4347.25C1209.34 4340.34 1200.74 4318.36 1207.64 4301.57C1214.54 4284.79 1235.79 4279.45 1252.58 4286.36Z" fill="#B14B57"/>
<path d="M1348.27 4339.01C1367.7 4344.27 1378.69 4364 1370.2 4384.44C1362.63 4402.85 1341.57 4413.71 1323.16 4406.14C1304.75 4398.57 1293.66 4379.12 1301.23 4360.71C1308.8 4342.3 1329.86 4331.44 1348.27 4339.01Z" fill="#B14B57"/>
<path d="M1040.1 1801.43C1068.57 1957.34 1173.2 2122.55 1210.55 2146.15C1215.83 2152.17 1231.74 2160.85 1220.89 2129.88C1210.04 2098.92 1163.64 2044.78 1152.87 1994.11C1142.46 1945.15 1154.4 1903.14 1172.72 1877.65C1192.24 1850.48 1196.82 1814.16 1193.63 1803.54C1188.63 1786.9 1150.95 1763.49 1143.07 1760.13C1138.28 1758.09 1138.84 1755.46 1140.43 1754.05C1157.9 1740.02 1192.57 1687.61 1202.62 1650.03C1212.68 1612.45 1187.69 1585.37 1177.75 1566.39C1170.98 1553.47 1174.49 1524.99 1177.75 1510.02C1182.32 1496.06 1190.2 1462.3 1185.11 1438.9C1180.02 1415.49 1149.92 1429.15 1135.5 1438.9C1060.45 1494.87 1010.23 1637.88 1040.1 1801.43Z" fill="#75895E"/>
<path d="M1130.46 3341.24C1050.02 3395.63 980.683 3486.18 975.566 3509.02C973.351 3512.96 971.934 3522.32 986.801 3509.22C1001.67 3496.12 1021.8 3461.1 1047.62 3442.75C1072.56 3425.02 1098.43 3419.04 1116.49 3420.3C1135.73 3421.64 1156.87 3413.93 1162.08 3409.67C1170.24 3403 1175.19 3380.07 1175.37 3375.68C1175.48 3373.02 1177.06 3372.56 1178.18 3372.88C1189.7 3376.84 1226.18 3378.12 1249.19 3372.49C1272.19 3366.86 1281.88 3348.55 1290.29 3339.06C1296.01 3332.61 1312.57 3326.52 1321.57 3323.95C1330.29 3322.23 1350.71 3316.66 1362.61 3308.13C1374.51 3299.61 1360.51 3289.96 1352.02 3286.2C1304.93 3268.04 1214.84 3284.18 1130.46 3341.24Z" fill="#75895E"/>
<path d="M992.308 3129.16C1001.64 3252.93 955.103 3398.85 931.481 3424.13C928.675 3429.74 918.341 3439.47 920.425 3413.86C922.51 3388.24 946.932 3338.03 945.054 3297.5C943.239 3258.34 925.864 3228.88 906.933 3213.2C886.756 3196.48 876.09 3169.87 876.403 3161.19C876.892 3147.59 900.802 3122.39 906.103 3118.28C909.332 3115.78 908.384 3113.9 906.901 3113.15C890.886 3105.98 854.229 3073.14 839.16 3046.66C824.091 3020.18 837.663 2994.71 841.434 2978.36C844.002 2967.23 835.692 2946.35 830.261 2935.65C824.029 2925.98 811.37 2901.96 810.586 2883.22C809.802 2864.48 835.318 2868.86 848.174 2873.39C916.13 2900.92 982.523 2999.33 992.308 3129.16Z" fill="#75895E"/>
<path d="M879.159 1709.43C902.351 1793.11 1027.59 1908.54 1037.2 1910.14C1046.8 1911.73 1044.77 1906.84 1042.35 1904.51C1039.94 1902.18 994.415 1849.56 973.417 1819.16C948.268 1782.75 923.138 1712.29 932.618 1644.24C940.643 1586.64 916.794 1580.1 902.464 1586.37C884.488 1594.19 856.504 1627.68 879.159 1709.43Z" fill="#75895E"/>
<path d="M1340.4 3019.77C1209.51 3091.62 1065.12 3312.26 1066.17 3325.58C1067.23 3338.89 1074.61 3333.8 1077.58 3329.5C1080.55 3325.19 1150.84 3239.69 1193.52 3197.2C1244.63 3146.31 1352.67 3078.51 1470.1 3057.02C1569.51 3038.82 1571.18 3004.49 1555.15 2988.93C1535.11 2969.39 1468.27 2949.58 1340.4 3019.77Z" fill="#4E6F82"/>
<path d="M411.515 2915.21C475.374 2952.36 543.324 3080.35 542.565 3088.59C541.805 3096.84 538.221 3094.11 536.821 3091.62C535.421 3089.13 501.954 3040.31 481.468 3016.47C456.933 2987.91 404.379 2952.02 346.333 2945.13C297.195 2939.3 296.968 2918.26 305.218 2907.82C315.531 2894.71 349.136 2878.92 411.515 2915.21Z" fill="#75895E"/>
<path d="M641.424 3670.12C700.213 3714.87 751.86 3850.25 750.089 3858.35C748.319 3866.44 745.098 3863.29 744.016 3860.64C742.934 3858 715.743 3805.42 698.355 3779.23C677.529 3747.87 629.802 3705.77 573.049 3691.77C525.006 3679.93 527.374 3659.02 536.85 3649.68C548.7 3637.95 583.997 3626.41 641.424 3670.12Z" fill="#B14B57"/>
<path d="M449.482 3053.02C522.291 3095.38 599.765 3241.3 598.899 3250.71C598.033 3260.11 593.946 3257 592.35 3254.16C590.754 3251.32 552.596 3195.66 529.24 3168.47C501.266 3135.91 441.346 3094.99 375.164 3087.14C319.14 3080.49 318.88 3056.5 328.287 3044.6C340.045 3029.65 378.361 3011.64 449.482 3053.02Z" fill="#75895E"/>
<path d="M662.106 3811.57C729.135 3862.58 788.021 4016.95 786.002 4026.17C783.983 4035.4 780.311 4031.8 779.077 4028.79C777.843 4025.77 746.842 3965.83 727.017 3935.97C703.272 3900.21 648.856 3852.21 584.148 3836.25C529.372 3822.74 532.072 3798.91 542.875 3788.26C556.386 3774.88 596.631 3761.73 662.106 3811.57Z" fill="#B14B57"/>
<path d="M618.961 3083.1C631.898 3150.72 723.435 3250 730.921 3251.89C738.407 3253.77 737.115 3249.77 735.358 3247.77C733.601 3245.77 701.015 3201.26 686.38 3175.88C668.851 3145.49 653.531 3088.19 665.405 3035.03C675.457 2990.02 657.031 2983.33 645.304 2987.35C630.594 2992.37 606.323 3017.04 618.961 3083.1Z" fill="#75895E"/>
<path d="M409.707 2510.77C447.463 2469.93 468.103 2362.81 465.735 2357.04C463.367 2351.27 461.39 2354.03 460.932 2356.13C460.475 2358.23 447.17 2400.76 437.692 2422.44C426.34 2448.42 396.442 2485.85 356.186 2503.63C322.109 2518.68 326.591 2533.87 334.835 2539.57C345.151 2546.72 372.827 2550.67 409.707 2510.77Z" fill="#B14B57"/>
<path d="M426.457 2397.35C468.528 2346.26 485.751 2217.59 482.545 2210.9C479.338 2204.21 477.178 2207.62 476.777 2210.14C476.377 2212.67 463.468 2264.1 453.685 2290.51C441.968 2322.14 409 2368.65 362.388 2392.51C322.93 2412.71 329.289 2430.46 339.47 2436.66C352.214 2444.45 385.361 2447.26 426.457 2397.35Z" fill="#B14B57"/>
<path d="M726.12 3177.28C742.085 3260.73 855.043 3383.25 864.281 3385.57C873.519 3387.89 871.925 3382.96 869.756 3380.49C867.588 3378.02 827.376 3323.1 809.316 3291.78C787.686 3254.27 768.78 3183.57 783.433 3117.96C795.837 3062.43 773.099 3054.16 758.627 3059.13C740.476 3065.32 710.525 3095.76 726.12 3177.28Z" fill="#75895E"/>
<path d="M764.554 1629.7C784.886 1695.38 886.739 1783.79 894.378 1784.83C902.018 1785.87 900.293 1782.04 898.327 1780.25C896.361 1778.46 859.087 1737.89 841.749 1714.33C820.985 1686.1 799.431 1630.93 805.328 1576.84C810.32 1531.06 791.289 1526.45 780.095 1531.75C766.051 1538.36 744.692 1565.53 764.554 1629.7Z" fill="#75895E"/>
<path d="M546.076 1905.27C546.076 1917.81 535.263 1929.25 522.723 1929.25C510.183 1929.25 499.273 1916.91 499.273 1904.37C499.273 1891.83 511.117 1881.71 523.657 1881.71C536.197 1881.71 546.076 1892.73 546.076 1905.27Z" fill="#DF980C"/>
<path d="M490.961 1943.05C490.961 1955.59 483.385 1966.61 467.06 1967.76C454.52 1967.76 443.84 1955.59 443.84 1943.05C443.84 1930.51 454.52 1921.29 467.06 1921.29C479.6 1921.29 490.961 1930.51 490.961 1943.05Z" fill="#DF980C"/>
<path d="M930.551 1891.79C999.189 1941.62 1065.96 2032.12 1090.99 2070.84C1094.79 2076.62 1101.65 2084.4 1110.2 2082.97C1117.04 2081.83 1117.8 2072.52 1117.32 2068.01C1115.42 2051.51 1087.46 1979.04 947.056 1876.02C796.25 1765.36 653.594 1797.97 608.371 1827.93C573.6 1793.83 534.281 1818.32 530.653 1822.54C527.751 1825.92 529.444 1827.54 530.653 1827.93C549.7 1833.13 560.078 1839.05 579.574 1861.08C599.07 1883.11 596.589 1914.15 596.786 1918.85C596.905 1921.7 597.653 1921.59 598.762 1921.31C637.781 1902.32 630.422 1862.06 621.866 1844.3C726.827 1790.96 849.236 1832.76 930.551 1891.79Z" fill="#75895E"/>
<path d="M386.082 1831.81C446.275 1814.47 510.633 1829.69 535.288 1839.46C545.118 1843.96 541.984 1847.34 539.188 1848.47C480.619 1871.15 432.673 1906.75 401.667 1950.68C370.66 1994.6 400.805 2018.72 462.532 1991.73C524.259 1964.74 570.516 1923.12 577.891 1902.28C579.781 1896.95 584.698 1894.58 585.855 1903.36C591.013 1995.84 535.764 2057.45 500.005 2070.29C472.26 2080.25 446.585 2045.21 437.517 2027.35C425.614 2046.06 389.056 2063.91 371.203 2066.89C353.35 2069.86 307.864 2063.91 302.338 2008.65C297.917 1964.44 346.406 1935.53 371.203 1926.61C352.924 1913.85 310.84 1853.49 386.082 1831.81Z" fill="#B14B57"/>
<path d="M695.886 2791.19C710.91 2791.29 723.539 2778.85 723.638 2763.83C723.737 2748.81 710.91 2735.55 695.886 2735.45C680.862 2735.35 667.482 2745.72 667.383 2760.75C667.284 2775.77 680.862 2791.09 695.886 2791.19Z" fill="#DF980C"/>
<path d="M744.445 2725.17C759.469 2725.27 772.005 2713.69 773.086 2696.4C773.185 2681.38 759.469 2670.81 744.445 2670.71C729.421 2670.62 716.289 2683.56 716.19 2698.58C716.091 2713.61 729.421 2725.07 744.445 2725.17Z" fill="#DF980C"/>
<path d="M677.418 3252.07C736.578 3334.7 844.483 3415.41 890.675 3445.7C897.571 3450.3 906.83 3458.58 905.055 3468.81C903.635 3477 892.476 3477.83 887.074 3477.23C867.315 3474.82 780.711 3440.74 658.386 3271.72C526.994 3090.16 567.187 2919.5 603.443 2865.56C562.864 2823.63 592.514 2776.71 597.604 2772.4C601.676 2768.95 603.602 2770.99 604.056 2772.44C610.136 2795.3 617.144 2807.78 643.387 2831.32C669.631 2854.85 706.834 2852.12 712.47 2852.39C715.887 2852.56 715.749 2853.45 715.404 2854.78C692.337 2901.38 644.16 2892.25 622.954 2881.85C558.216 3007.19 607.332 3154.18 677.418 3252.07Z" fill="#75895E"/>
<path d="M609.847 2599.26C588.593 2671.24 606.318 2748.47 617.838 2778.09C623.154 2789.9 627.226 2786.17 628.597 2782.83C656.233 2712.84 699.264 2655.67 752.137 2618.87C805.011 2582.07 833.667 2618.37 800.846 2692.12C768.026 2765.86 717.787 2820.95 692.77 2829.62C686.358 2831.85 683.487 2837.72 693.996 2839.17C804.751 2846.08 879.004 2780.37 894.669 2737.63C906.823 2704.47 865.041 2673.43 843.722 2662.43C866.225 2648.31 887.904 2604.65 891.61 2583.29C895.316 2561.92 888.544 2507.38 822.378 2500.32C769.445 2494.67 734.43 2552.54 723.539 2582.18C708.404 2560.18 636.415 2509.28 609.847 2599.26Z" fill="#B14B57"/>
<path d="M780.53 1981.42C919.383 1977.91 1012.27 2025.52 1036.49 2046.96C1038.37 2048.29 1068.65 2078.68 1012.43 2050.52C923.204 2005.82 719.089 1970.98 629.228 2076.89C540.738 2181.18 565.054 2257.97 532.649 2437.79C506.725 2581.64 414.68 2619.3 371.898 2620.14C346.906 2620.35 313.061 2610.49 377.616 2569.31C458.31 2517.85 471.234 2471.44 482.453 2397.12C493.672 2322.8 496.442 2268.05 520.587 2180.37C544.731 2092.68 615.527 1985.59 780.53 1981.42Z" fill="#75895E"/>
<path d="M1137.64 2562.41C1158.51 2662.15 1119.99 2848.23 1098.15 2929.44C1092.52 2941.15 1089.93 2915.67 1089.3 2897.64C1086.92 2829.63 1056.24 2793.97 1000.24 2763.42C942.348 2731.84 960.25 2697.56 983.605 2681.68C1026.52 2652.49 1086.6 2734.89 1059.14 2638.19C1031.67 2541.49 1035.13 2508.73 1043.11 2488.85C1064.31 2443.68 1116.78 2462.66 1137.64 2562.41Z" fill="#75895E"/>
<path d="M1331.14 2086.09C1298.81 2182.73 1315.41 2372.02 1327.66 2455.22C1331.89 2467.51 1337.42 2442.51 1340.15 2424.67C1350.42 2357.4 1385.04 2325.55 1444.22 2301.73C1505.39 2277.09 1491.6 2240.96 1470.25 2222.47C1431.03 2188.5 1361.76 2263.34 1400.29 2170.49C1438.83 2077.64 1439.2 2044.7 1433.58 2024.03C1417.78 1976.7 1363.47 1989.45 1331.14 2086.09Z" fill="#75895E"/>
<path d="M768.321 3755.27C788.659 3935.2 826.297 4049.91 833.029 4063.65C835.398 4068.49 838.348 4077.16 843.749 4084.83C853.695 4098.97 865.784 4108.09 854.299 4072.15C836.579 4016.69 839.428 3934.97 838.821 3889.14C838.124 3797.03 833.285 3611.7 799.009 3494.15C759.558 3358.84 607.667 3316.3 527.557 3342.18C457.335 3364.87 395.182 3470.79 448.096 3545.11C485.244 3597.29 535.411 3575.57 551.194 3545.11C556.915 3531.16 580.22 3504.34 627.674 3508.65C686.992 3514.05 747.412 3570.28 768.321 3755.27Z" fill="#4E6F82"/>
<path d="M1098.91 3497.84C974.252 3538.43 893.736 3672.82 869.059 3734.94C854.388 3779.75 893.389 3727.17 906.332 3712.68C934.527 3671.92 1014.86 3590.32 1104.6 3563.59C1207.68 3532.89 1256.76 3596.83 1236.61 3631.92C1216.28 3667.32 1195.73 3740.52 1238.94 3754.09C1292.39 3770.88 1341.97 3744.9 1340.97 3642.14C1340.01 3542.78 1247.13 3449.59 1098.91 3497.84Z" fill="#4E6F82"/>
<path d="M949.943 4174.08C905.621 3970.85 1020.74 3874.88 1088.75 3849.88C1109.66 3842.02 1115.16 3840.78 1148.75 3839C1166.07 3838.09 1191.57 3835.03 1202.63 3813.97C1214.91 3790.57 1205.05 3726.11 1121.55 3703.16C1040 3680.75 902.54 3727.82 876.3 3855.18C851.808 3974.06 888.46 4112.6 934.403 4201.78C971.158 4273.13 960.078 4213.04 949.943 4174.08Z" fill="#75895E"/>
<path d="M1200.3 4459.57C1428.07 4551.82 1555.09 4476.24 1590.12 4426.91C1617.13 4380.94 1597 4341.56 1580.31 4322.61C1563.62 4303.65 1488.95 4271.88 1439.28 4332.8C1396.08 4385.79 1439.49 4435.86 1460.8 4451.75C1440.41 4460.24 1326.56 4483.46 1200.3 4365.09C1074.04 4246.71 1102.27 4105.67 1139.65 4069.42C1177.03 4033.17 1214.17 4037.89 1255.76 4032.61C1300.39 4026.94 1305.32 4003 1306.74 3990.69C1308.93 3971.71 1287.56 3900.42 1183.34 3905.52C1079.12 3910.61 1038.96 3963.94 1009.37 4007.82C979.773 4051.7 915.594 4344.26 1200.3 4459.57Z" fill="#4E6F82"/>
<path d="M2708.99 2086.09C2741.32 2182.73 2724.71 2372.02 2712.47 2455.22C2708.24 2467.51 2702.7 2442.51 2699.98 2424.67C2689.7 2357.39 2655.08 2325.55 2595.91 2301.72C2534.73 2277.09 2548.52 2240.96 2569.87 2222.47C2609.1 2188.49 2678.36 2263.34 2639.83 2170.49C2601.3 2077.64 2600.93 2044.7 2606.54 2024.03C2622.34 1976.7 2676.66 1989.45 2708.99 2086.09Z" fill="#75895E"/>
<path d="M3115.35 4562.95C2855.35 4746.9 2561.72 4613.36 2482.06 4547.83C2463.82 4535.74 2439.06 4511.14 2436.72 4519.05C2434.37 4526.96 2570.37 4714.45 2828.92 4751.49C3087.48 4788.54 3224.47 4727.01 3300.3 4599.65C3340.98 4522.97 3342.94 4401.92 3115.35 4562.95Z" fill="#4E6F82"/>
<path d="M3167.35 4217.76C3024.23 4525.97 2681.57 4558.09 2573.07 4539.68C2549.78 4538.16 2513.81 4528.52 2515.83 4537.09C2517.85 4545.65 2743.2 4647.09 3002.21 4544.23C3261.22 4441.38 3355.39 4311.76 3358.03 4153.64C3355.03 4061.07 3292.63 3947.98 3167.35 4217.76Z" fill="#4E6F82"/>
<path d="M2952 1266.65C3023.03 1354.67 3051.72 1504.7 3057.19 1568.72C3057.9 1576.2 3057.99 1587.69 3051.73 1590.54C3042.23 1594.86 3032.54 1574.69 3029.21 1561.97C3025.02 1546.85 3008.55 1492.29 2976.13 1395.01C2943.7 1297.73 2871.9 1277.91 2840.05 1280.16C2815.26 1278.82 2739.89 1294.94 2755.12 1361.23C2770.69 1428.96 2639.66 1505.16 2567.9 1419.13C2496.14 1333.11 2628.7 1223.22 2681.78 1200.06C2734.86 1176.9 2863.21 1156.63 2952 1266.65Z" fill="#4E6F82"/>
<path d="M2910.35 2912.54C2962.87 3178.75 3168.05 3561 3185.41 3582.99C3203.9 3604.91 3200.84 3614.09 3193.96 3618.93C3188.67 3621.86 3179.27 3622.31 3152.17 3582.99C3084.49 3484.79 2875.25 3055.75 2834.94 2939.47C2794.64 2823.19 2662.76 2361.36 2875.34 2167.18C3087.91 1973 3274.59 2166.21 3308.03 2216.89C3341.47 2267.56 3372.16 2371.32 3282.82 2401.4C3183.9 2434.71 3152.54 2385.33 3113.2 2339.51C3075.43 2295.52 2981.94 2262.34 2927.54 2329.2C2877.18 2391.09 2847.81 2595.54 2910.35 2912.54Z" fill="#4E6F82"/>
<path d="M3013.25 1309.63C3013.25 1324.68 3020.87 1337.98 3039.94 1339.87C3054.99 1339.87 3069.05 1328.15 3069.05 1313.1C3069.05 1298.05 3055.89 1283.96 3040.84 1283.96C3025.79 1283.96 3013.25 1294.58 3013.25 1309.63Z" fill="#B14B57"/>
<path d="M3056.31 1399.66C3056.31 1417.81 3071.56 1433.59 3089.71 1433.59C3107.86 1433.59 3123.86 1416.45 3123.86 1398.3C3123.86 1380.15 3108.54 1366.83 3090.39 1366.83C3072.24 1366.83 3056.31 1381.51 3056.31 1399.66Z" fill="#B14B57"/>
<path d="M3080.95 1520.97C3080.95 1540.88 3100.24 1557.28 3120.15 1557.28C3140.05 1557.28 3155.3 1540.24 3155.3 1520.34C3155.3 1500.43 3136.67 1483.32 3116.77 1483.32C3096.86 1483.32 3080.95 1501.07 3080.95 1520.97Z" fill="#B14B57"/>
<path d="M2560.26 2943.98C2572.28 2953.03 2590.75 2951.5 2599.8 2939.48C2608.85 2927.46 2605.06 2909.5 2593.04 2900.44C2581.02 2891.39 2564.48 2892.04 2554.79 2904.91C2545.74 2916.94 2546.91 2935.25 2560.26 2943.98Z" fill="#B14B57"/>
<path d="M2657.91 2963.41C2672.4 2974.33 2692.49 2971.41 2703.41 2956.91C2714.32 2942.42 2712.98 2920.36 2698.48 2909.44C2683.98 2898.53 2657.9 2901.47 2649.44 2916.24C2638.52 2930.74 2643.41 2952.5 2657.91 2963.41Z" fill="#B14B57"/>
<path d="M2767.82 3014.53C2783.72 3026.5 2809.08 3026.35 2820.11 3009.41C2832.09 2993.51 2828.47 2968.54 2812.56 2956.57C2796.66 2944.6 2772.02 2949.19 2760.04 2965.09C2748.07 2980.99 2751.92 3002.55 2767.82 3014.53Z" fill="#B14B57"/>
<path d="M2851.6 4201.27C2837.68 4206.99 2830.5 4224.35 2836.22 4238.27C2841.94 4252.19 2859.71 4260.06 2873.63 4254.34C2887.55 4248.62 2894.14 4230.84 2888.41 4216.92C2882.69 4203 2868.09 4195.87 2851.6 4201.27Z" fill="#B14B57"/>
<path d="M2802.77 4286.35C2785.99 4293.26 2779.44 4312.56 2786.34 4329.35C2793.82 4344.69 2812.8 4353.26 2829.23 4347.25C2846.02 4340.34 2854.62 4318.36 2847.72 4301.57C2840.81 4284.79 2819.56 4279.45 2802.77 4286.35Z" fill="#B14B57"/>
<path d="M2707.08 4339.01C2687.65 4344.27 2676.67 4363.99 2685.15 4384.44C2692.72 4402.85 2713.78 4413.71 2732.19 4406.14C2750.6 4398.57 2761.69 4379.12 2754.12 4360.71C2746.56 4342.3 2725.49 4331.44 2707.08 4339.01Z" fill="#B14B57"/>
<path d="M3015.25 1801.43C2986.78 1957.34 2882.15 2122.55 2844.8 2146.15C2839.52 2152.17 2823.61 2160.85 2834.46 2129.88C2845.32 2098.92 2891.71 2044.78 2902.49 1994.1C2912.9 1945.15 2900.95 1903.14 2882.63 1877.65C2863.11 1850.48 2858.54 1814.16 2861.73 1803.54C2866.72 1786.9 2904.4 1763.49 2912.28 1760.13C2917.08 1758.09 2916.51 1755.46 2914.92 1754.05C2897.46 1740.02 2862.78 1687.61 2852.73 1650.03C2842.67 1612.44 2867.67 1585.37 2877.61 1566.39C2884.37 1553.47 2880.86 1524.99 2877.61 1510.02C2873.03 1496.06 2865.15 1462.3 2870.24 1438.9C2875.33 1415.49 2905.43 1429.14 2919.85 1438.9C2994.9 1494.87 3045.12 1637.88 3015.25 1801.43Z" fill="#75895E"/>
<path d="M2924.89 3341.24C3005.33 3395.63 3074.67 3486.18 3079.79 3509.01C3082 3512.96 3083.42 3522.32 3068.55 3509.22C3053.68 3496.12 3033.55 3461.1 3007.73 3442.75C2982.79 3425.02 2956.92 3419.03 2938.87 3420.3C2919.62 3421.64 2898.49 3413.93 2893.27 3409.67C2885.11 3403 2880.16 3380.06 2879.98 3375.68C2879.87 3373.01 2878.29 3372.56 2877.17 3372.88C2865.66 3376.84 2829.17 3378.12 2806.16 3372.49C2783.16 3366.85 2773.47 3348.54 2765.06 3339.06C2759.34 3332.61 2742.78 3326.52 2733.78 3323.95C2725.06 3322.23 2704.64 3316.66 2692.74 3308.13C2680.84 3299.61 2694.85 3289.96 2703.34 3286.2C2750.43 3268.03 2840.51 3284.18 2924.89 3341.24Z" fill="#75895E"/>
<path d="M3063.04 3129.16C3053.72 3252.93 3100.25 3398.85 3123.87 3424.13C3126.68 3429.74 3137.01 3439.47 3134.93 3413.85C3132.84 3388.24 3108.42 3338.03 3110.3 3297.5C3112.11 3258.34 3129.49 3228.88 3148.42 3213.2C3168.6 3196.48 3179.26 3169.87 3178.95 3161.19C3178.46 3147.59 3154.55 3122.39 3149.25 3118.28C3146.02 3115.78 3146.97 3113.9 3148.45 3113.14C3164.47 3105.98 3201.12 3073.14 3216.19 3046.66C3231.26 3020.18 3217.69 2994.71 3213.92 2978.36C3211.35 2967.23 3219.66 2946.34 3225.09 2935.65C3231.32 2925.98 3243.98 2901.96 3244.77 2883.22C3245.55 2864.48 3220.03 2868.86 3207.18 2873.39C3139.22 2900.92 3072.83 2999.33 3063.04 3129.16Z" fill="#75895E"/>
<path d="M3176.19 1709.42C3153 1793.11 3027.76 1908.54 3018.15 1910.14C3008.55 1911.73 3010.58 1906.84 3013 1904.51C3015.41 1902.17 3060.94 1849.56 3081.93 1819.16C3107.08 1782.75 3132.21 1712.29 3122.73 1644.24C3114.71 1586.64 3138.56 1580.1 3152.89 1586.37C3170.86 1594.18 3198.85 1627.68 3176.19 1709.42Z" fill="#75895E"/>
<path d="M2714.95 3019.77C2845.85 3091.62 2990.23 3312.26 2989.18 3325.57C2988.12 3338.88 2980.74 3333.8 2977.77 3329.5C2974.81 3325.19 2904.51 3239.69 2861.83 3197.2C2810.72 3146.31 2702.68 3078.51 2585.25 3057.02C2485.84 3038.82 2484.17 3004.49 2500.2 2988.93C2520.24 2969.39 2587.09 2949.58 2714.95 3019.77Z" fill="#4E6F82"/>
<path d="M3643.84 2915.21C3579.98 2952.36 3512.03 3080.34 3512.79 3088.59C3513.55 3096.84 3517.13 3094.11 3518.53 3091.62C3519.93 3089.13 3553.4 3040.31 3573.88 3016.47C3598.42 2987.91 3650.97 2952.02 3709.02 2945.13C3758.16 2939.29 3758.38 2918.26 3750.13 2907.82C3739.82 2894.71 3706.22 2878.92 3643.84 2915.21Z" fill="#75895E"/>
<path d="M3413.93 3670.12C3355.14 3714.87 3303.49 3850.25 3305.26 3858.35C3307.03 3866.44 3310.25 3863.29 3311.34 3860.64C3312.42 3858 3339.61 3805.42 3357 3779.23C3377.82 3747.87 3425.55 3705.77 3482.3 3691.77C3530.35 3679.93 3527.98 3659.02 3518.5 3649.68C3506.65 3637.95 3471.35 3626.41 3413.93 3670.12Z" fill="#B14B57"/>
<path d="M3605.87 3053.02C3533.06 3095.38 3455.59 3241.3 3456.45 3250.71C3457.32 3260.11 3461.41 3257 3463 3254.16C3464.6 3251.32 3502.76 3195.66 3526.11 3168.47C3554.09 3135.91 3614.01 3094.99 3680.19 3087.13C3736.21 3080.48 3736.47 3056.5 3727.06 3044.6C3715.31 3029.65 3676.99 3011.64 3605.87 3053.02Z" fill="#75895E"/>
<path d="M3393.25 3811.56C3326.22 3862.58 3267.33 4016.94 3269.35 4026.17C3271.37 4035.39 3275.04 4031.8 3276.27 4028.79C3277.51 4025.77 3308.51 3965.83 3328.34 3935.97C3352.08 3900.21 3406.5 3852.21 3471.2 3836.25C3525.98 3822.74 3523.28 3798.91 3512.48 3788.26C3498.97 3774.88 3458.72 3761.73 3393.25 3811.56Z" fill="#B14B57"/>
<path d="M3436.39 3083.1C3423.45 3150.72 3331.92 3250 3324.43 3251.88C3316.94 3253.76 3318.24 3249.77 3319.99 3247.77C3321.75 3245.77 3354.34 3201.26 3368.97 3175.88C3386.5 3145.49 3401.82 3088.19 3389.95 3035.03C3379.89 2990.02 3398.32 2983.32 3410.05 2987.35C3424.76 2992.37 3449.03 3017.04 3436.39 3083.1Z" fill="#75895E"/>
<path d="M3645.64 2510.77C3607.88 2469.93 3587.24 2362.81 3589.61 2357.04C3591.98 2351.27 3593.96 2354.03 3594.42 2356.13C3594.87 2358.23 3608.18 2400.76 3617.66 2422.44C3629.01 2448.42 3658.91 2485.85 3699.16 2503.63C3733.24 2518.68 3728.76 2533.87 3720.51 2539.57C3710.2 2546.72 3682.52 2550.67 3645.64 2510.77Z" fill="#B14B57"/>
<path d="M3628.89 2397.35C3586.82 2346.26 3569.6 2217.59 3572.81 2210.9C3576.01 2204.21 3578.17 2207.62 3578.57 2210.14C3578.97 2212.67 3591.88 2264.1 3601.67 2290.51C3613.38 2322.14 3646.35 2368.65 3692.96 2392.51C3732.42 2412.71 3726.06 2430.46 3715.88 2436.66C3703.14 2444.45 3669.99 2447.26 3628.89 2397.35Z" fill="#B14B57"/>
<path d="M3329.23 3177.28C3313.27 3260.73 3200.31 3383.25 3191.07 3385.57C3181.83 3387.89 3183.43 3382.96 3185.6 3380.49C3187.76 3378.02 3227.98 3323.1 3246.04 3291.78C3267.67 3254.27 3286.57 3183.57 3271.92 3117.96C3259.51 3062.43 3282.25 3054.16 3296.72 3059.13C3314.88 3065.32 3344.83 3095.76 3329.23 3177.28Z" fill="#75895E"/>
<path d="M3290.8 1629.69C3270.47 1695.38 3168.61 1783.79 3160.97 1784.83C3153.33 1785.86 3155.06 1782.04 3157.02 1780.25C3158.99 1778.46 3196.26 1737.89 3213.6 1714.33C3234.37 1686.1 3255.92 1630.93 3250.02 1576.84C3245.03 1531.06 3264.06 1526.45 3275.26 1531.75C3289.3 1538.36 3310.66 1565.53 3290.8 1629.69Z" fill="#75895E"/>
<path d="M3509.28 1905.27C3509.28 1917.81 3520.09 1929.25 3532.63 1929.25C3545.17 1929.25 3556.08 1916.91 3556.08 1904.37C3556.08 1891.83 3544.24 1881.71 3531.7 1881.71C3519.16 1881.71 3509.28 1892.73 3509.28 1905.27Z" fill="#DF980C"/>
<path d="M3564.39 1943.05C3564.39 1955.59 3571.97 1966.61 3588.3 1967.75C3600.84 1967.75 3611.52 1955.59 3611.52 1943.05C3611.52 1930.51 3600.84 1921.29 3588.3 1921.29C3575.76 1921.29 3564.39 1930.51 3564.39 1943.05Z" fill="#DF980C"/>
<path d="M3124.8 1891.79C3056.17 1941.62 2989.39 2032.12 2964.37 2070.84C2960.57 2076.62 2953.71 2084.4 2945.16 2082.97C2938.32 2081.83 2937.56 2072.52 2938.03 2068.01C2939.93 2051.51 2967.9 1979.04 3108.3 1876.02C3259.11 1765.36 3401.76 1797.96 3446.98 1827.93C3481.76 1793.83 3521.07 1818.32 3524.7 1822.54C3527.6 1825.92 3525.91 1827.54 3524.7 1827.93C3505.66 1833.13 3495.28 1839.05 3475.78 1861.08C3456.29 1883.11 3458.77 1914.14 3458.57 1918.85C3458.45 1921.7 3457.7 1921.59 3456.59 1921.31C3417.57 1902.32 3424.93 1862.06 3433.49 1844.3C3328.53 1790.96 3206.12 1832.76 3124.8 1891.79Z" fill="#75895E"/>
<path d="M3669.27 1831.81C3609.08 1814.47 3544.72 1829.68 3520.07 1839.46C3510.24 1843.96 3513.37 1847.34 3516.17 1848.47C3574.74 1871.15 3622.68 1906.75 3653.69 1950.68C3684.7 1994.6 3654.55 2018.72 3592.82 1991.73C3531.1 1964.74 3484.84 1923.12 3477.46 1902.28C3475.57 1896.94 3470.66 1894.58 3469.5 1903.36C3464.34 1995.84 3519.59 2057.45 3555.35 2070.29C3583.1 2080.25 3608.77 2045.21 3617.84 2027.35C3629.74 2046.06 3666.3 2063.91 3684.15 2066.88C3702.01 2069.86 3747.49 2063.91 3753.02 2008.65C3757.44 1964.44 3708.95 1935.53 3684.15 1926.61C3702.43 1913.85 3744.52 1853.49 3669.27 1831.81Z" fill="#B14B57"/>
<path d="M3359.47 2791.19C3344.44 2791.29 3331.81 2778.85 3331.71 2763.83C3331.61 2748.81 3344.44 2735.55 3359.47 2735.45C3374.49 2735.35 3387.87 2745.72 3387.97 2760.75C3388.07 2775.77 3374.49 2791.09 3359.47 2791.19Z" fill="#DF980C"/>
<path d="M3310.91 2725.17C3295.88 2725.27 3283.35 2713.69 3282.27 2696.4C3282.17 2681.38 3295.88 2670.81 3310.91 2670.71C3325.93 2670.61 3339.06 2683.56 3339.16 2698.58C3339.26 2713.61 3325.93 2725.07 3310.91 2725.17Z" fill="#DF980C"/>
<path d="M3377.93 3252.07C3318.77 3334.69 3210.87 3415.41 3164.68 3445.7C3157.78 3450.3 3148.52 3458.58 3150.3 3468.81C3151.72 3477 3162.88 3477.83 3168.28 3477.23C3188.04 3474.82 3274.64 3440.74 3396.97 3271.72C3528.36 3090.16 3488.16 2919.5 3451.91 2865.56C3492.49 2823.63 3462.84 2776.71 3457.75 2772.4C3453.68 2768.95 3451.75 2770.99 3451.3 2772.44C3445.22 2795.3 3438.21 2807.78 3411.96 2831.31C3385.72 2854.85 3348.52 2852.12 3342.88 2852.39C3339.46 2852.56 3339.6 2853.45 3339.95 2854.78C3363.01 2901.38 3411.19 2892.24 3432.4 2881.85C3497.14 3007.19 3448.02 3154.18 3377.93 3252.07Z" fill="#75895E"/>
<path d="M3445.5 2599.26C3466.76 2671.24 3449.03 2748.47 3437.51 2778.08C3432.2 2789.9 3428.13 2786.17 3426.75 2782.83C3399.12 2712.84 3356.09 2655.67 3303.21 2618.87C3250.34 2582.06 3221.68 2618.37 3254.51 2692.12C3287.33 2765.86 3337.56 2820.95 3362.58 2829.62C3368.99 2831.84 3371.86 2837.72 3361.36 2839.17C3250.6 2846.08 3176.35 2780.37 3160.68 2737.63C3148.53 2704.47 3190.31 2673.43 3211.63 2662.43C3189.13 2648.31 3167.45 2604.65 3163.74 2583.29C3160.04 2561.92 3166.81 2507.37 3232.97 2500.32C3285.91 2494.67 3320.92 2552.54 3331.81 2582.18C3346.95 2560.18 3418.94 2509.28 3445.5 2599.26Z" fill="#B14B57"/>
<path d="M3274.82 1981.42C3135.97 1977.91 3043.08 2025.52 3018.86 2046.96C3016.98 2048.29 2986.71 2078.68 3042.92 2050.52C3132.15 2005.82 3336.26 1970.98 3426.12 2076.89C3514.61 2181.18 3490.3 2257.97 3522.7 2437.79C3548.63 2581.64 3640.67 2619.29 3683.45 2620.14C3708.45 2620.35 3742.29 2610.48 3677.74 2569.31C3597.04 2517.84 3584.12 2471.44 3572.9 2397.12C3561.68 2322.8 3558.91 2268.05 3534.76 2180.37C3510.62 2092.68 3439.82 1985.59 3274.82 1981.42Z" fill="#75895E"/>
<path d="M2917.71 2562.41C2896.85 2662.15 2935.36 2848.23 2957.2 2929.44C2962.84 2941.15 2965.43 2915.67 2966.06 2897.64C2968.44 2829.62 2999.11 2793.97 3055.11 2763.42C3113.01 2731.84 3095.11 2697.56 3071.75 2681.68C3028.84 2652.49 2968.75 2734.89 2996.22 2638.19C3023.69 2541.49 3020.22 2508.73 3012.24 2488.84C2991.04 2443.68 2938.58 2462.66 2917.71 2562.41Z" fill="#75895E"/>
<path d="M3287.03 3755.27C3266.69 3935.2 3229.05 4049.9 3222.32 4063.65C3219.95 4068.49 3217 4077.16 3211.6 4084.83C3201.66 4098.97 3189.57 4108.09 3201.05 4072.15C3218.77 4016.69 3215.92 3934.96 3216.53 3889.14C3217.23 3797.03 3222.07 3611.7 3256.34 3494.14C3295.79 3358.84 3447.68 3316.3 3527.79 3342.18C3598.02 3364.87 3660.17 3470.79 3607.26 3545.11C3570.11 3597.29 3519.94 3575.57 3504.16 3545.11C3498.44 3531.16 3475.13 3504.34 3427.68 3508.65C3368.36 3514.05 3307.94 3570.28 3287.03 3755.27Z" fill="#4E6F82"/>
<path d="M2956.44 3497.84C3081.1 3538.43 3161.62 3672.82 3186.29 3734.94C3200.96 3779.75 3161.96 3727.16 3149.02 3712.68C3120.82 3671.92 3040.49 3590.31 2950.75 3563.59C2847.67 3532.89 2798.59 3596.83 2818.74 3631.92C2839.07 3667.32 2859.62 3740.52 2816.41 3754.09C2762.96 3770.88 2713.39 3744.9 2714.38 3642.14C2715.34 3542.78 2808.22 3449.59 2956.44 3497.84Z" fill="#4E6F82"/>
<path d="M3105.41 4174.08C3149.73 3970.85 3034.62 3874.88 2966.6 3849.88C2945.69 3842.02 2940.19 3840.78 2906.6 3839C2889.29 3838.09 2863.78 3835.03 2852.72 3813.97C2840.44 3790.57 2850.31 3726.11 2933.8 3703.16C3015.35 3680.75 3152.81 3727.82 3179.05 3855.18C3203.54 3974.06 3166.89 4112.6 3120.95 4201.78C3084.19 4273.13 3095.27 4213.04 3105.41 4174.08Z" fill="#75895E"/>
<path d="M2855.05 4459.57C2627.28 4551.82 2500.27 4476.23 2465.23 4426.91C2438.22 4380.94 2458.35 4341.56 2475.04 4322.6C2491.73 4303.65 2566.4 4271.88 2616.07 4332.8C2659.27 4385.79 2615.86 4435.86 2594.55 4451.74C2614.94 4460.24 2728.79 4483.46 2855.05 4365.08C2981.31 4246.71 2953.08 4105.67 2915.7 4069.42C2878.32 4033.17 2841.18 4037.89 2799.59 4032.6C2754.96 4026.94 2750.03 4002.99 2748.61 3990.69C2746.43 3971.71 2767.8 3900.42 2872.01 3905.52C2976.23 3910.61 3016.39 3963.93 3045.99 4007.81C3075.58 4051.69 3139.76 4344.25 2855.05 4459.57Z" fill="#4E6F82"/>
<path d="M1890.14 888.609C1890.14 907.48 1874.29 923.886 1855.42 923.886C1836.55 923.886 1819.91 906.069 1819.91 887.198C1819.91 868.326 1835.84 854.473 1854.71 854.473C1873.58 854.473 1890.14 869.737 1890.14 888.609Z" fill="#DF980C"/>
<path d="M1800.69 1073.27C1816.82 1083.07 1824.57 1101.4 1814.76 1117.52C1804.95 1133.65 1779.11 1142.35 1762.99 1132.54C1746.86 1122.74 1743.31 1101.92 1753.11 1085.8C1762.92 1069.68 1784.57 1063.46 1800.69 1073.27Z" fill="#DF980C"/>
<path d="M1619.12 1088.79C1629.7 1278.07 1862.65 1414.77 1972.34 1453.91C1986.24 1458.76 2008.46 1459.55 1963.96 1431.3C1762.93 1296.25 1713.38 1178.46 1704.33 1098.55C1694.89 1015.22 1759.99 1013.23 1802.09 1018.28C1834.8 1022.2 1823.01 1005.54 1812.38 998.037C1800.02 988.126 1783.34 965.931 1773.28 913.649C1752.01 821.028 1850.12 784.322 1896.09 826.516C1932.86 860.272 1935.88 850.186 1932.79 840.924C1902.6 762.711 1908.78 675.579 1941.71 651.223C1974.64 626.867 2008.26 646.42 2014.78 651.223C2019.99 655.065 2023.6 659.244 2029.08 659.244V556.208C1865.82 556.208 1854.29 686.15 1868.94 751.122C1832.33 713.603 1731.67 728.245 1702.39 806.942C1678.96 869.9 1706.66 938.715 1723.44 965.252C1677.68 938.715 1619.12 968.913 1619.12 1088.79Z" fill="#B14B57"/>
<path d="M2439.04 1088.79C2428.45 1278.07 2195.5 1414.77 2085.81 1453.91C2071.91 1458.76 2049.69 1459.55 2094.2 1431.3C2295.23 1296.25 2344.78 1178.46 2353.83 1098.55C2363.26 1015.22 2298.17 1013.23 2256.06 1018.28C2223.35 1022.2 2235.14 1005.54 2245.77 998.037C2258.13 988.126 2274.81 965.931 2284.88 913.649C2306.14 821.028 2208.03 784.322 2162.07 826.516C2125.29 860.272 2122.27 850.186 2125.36 840.924C2155.55 762.711 2149.37 675.579 2116.44 651.223C2083.51 626.867 2049.89 646.42 2043.37 651.223C2038.16 655.065 2034.48 659.244 2029.08 659.244V556.208C2192.33 556.208 2203.86 686.15 2189.22 751.122C2225.82 713.603 2326.48 728.245 2355.76 806.942C2379.19 869.9 2351.49 938.715 2334.72 965.252C2380.47 938.715 2439.04 968.913 2439.04 1088.79Z" fill="#B14B57"/>
<path d="M2036.12 1623.9C2029.35 1552.54 2017.02 1590.44 2012.63 1621.84C2001.31 1725.94 2005.68 2081.14 2007.24 2115.6C2008.81 2150.06 2030.05 2172.38 2036.12 2123.03C2042.2 2073.67 2043.97 1706.59 2036.12 1623.9Z" fill="#75895E"/>
<path d="M2376.37 1478.4C2234.3 1436.5 2125.14 1539.38 2099.92 1580.19C2093.72 1588.25 2086.52 1602.8 2084.29 1599.67C2082.07 1596.54 2113.76 1493.59 2221.99 1438.44C2330.21 1383.3 2399.75 1389.8 2452.25 1434.46C2481.68 1462.09 2500.72 1515.07 2376.37 1478.4Z" fill="#4E6F82"/>
<path d="M1676.48 1478.4C1818.55 1436.5 1927.71 1539.38 1952.93 1580.19C1959.14 1588.25 1966.34 1602.8 1968.56 1599.67C1970.78 1596.54 1939.09 1493.59 1830.87 1438.44C1722.64 1383.3 1653.11 1389.8 1600.6 1434.46C1571.17 1462.09 1552.13 1515.07 1676.48 1478.4Z" fill="#4E6F82"/>
<path d="M2062.52 1057.5C2062.52 1076.37 2046.66 1092.78 2027.79 1092.78C2008.92 1092.78 1992.28 1074.96 1992.28 1056.09C1992.28 1037.22 2008.21 1023.36 2027.08 1023.36C2045.95 1023.36 2062.52 1038.63 2062.52 1057.5Z" fill="#DF980C"/>
<path d="M2045.16 1133.28C2061.28 1143.08 2067.06 1165.16 2057.25 1181.28C2047.44 1197.4 2023.57 1202.36 2007.45 1192.55C1991.33 1182.75 1987.77 1161.93 1997.58 1145.81C2007.39 1129.69 2029.04 1123.47 2045.16 1133.28Z" fill="#DF980C"/>
<path d="M2216.66 858.464C2232.78 868.27 2238.56 890.344 2228.75 906.467C2218.95 922.59 2195.08 927.547 2178.96 917.74C2162.83 907.933 2159.28 887.121 2169.08 870.998C2178.89 854.875 2200.54 848.657 2216.66 858.464Z" fill="#DF980C"/>
<path d="M2014.67 718.467C2032.23 711.548 2051.52 716.447 2058.44 734.005C2065.36 751.562 2056.67 777.413 2039.11 784.332C2021.56 791.251 2002.83 781.507 1995.91 763.95C1988.99 746.393 1997.12 725.386 2014.67 718.467Z" fill="#DF980C"/>
<path d="M2049.19 1254.55C2063.4 1267.88 2064.9 1291.04 2051.99 1304.8C2039.07 1318.56 2014.27 1318.1 2000.06 1304.77C1985.85 1291.43 1986.32 1270.02 1999.23 1256.26C2012.14 1242.5 2034.97 1241.21 2049.19 1254.55Z" fill="#DF980C"/>
<path d="M2289.06 1067.84C2303.27 1081.18 2304.78 1104.34 2291.86 1118.1C2278.95 1131.86 2254.14 1131.4 2239.93 1118.06C2225.72 1104.73 2226.19 1083.32 2239.11 1069.56C2252.02 1055.8 2274.85 1054.51 2289.06 1067.84Z" fill="#DF980C"/>
<path d="M1904.38 1801.45C1976.7 1919.87 1993.06 2105.64 1977.25 2150.31C1976.66 2158.27 1969.09 2176.46 1958.93 2148.73C1948.78 2121 1953.22 2050.33 1930.95 2010.61C1909.43 1972.23 1874.06 1956.2 1843.64 1955.44C1811.22 1954.63 1785.29 1936.11 1781.38 1927.04C1775.25 1912.81 1791.43 1867.98 1795.76 1859.56C1798.39 1854.42 1796.32 1853.27 1794.17 1853.69C1771.45 1859.25 1711.32 1855.27 1680.19 1840.42C1649.06 1825.57 1652.73 1788.77 1649.17 1769.12C1646.75 1755.73 1626.48 1741.16 1614.69 1734.63C1602.45 1729.8 1575.42 1715.53 1565.22 1697.09C1555.03 1678.65 1587.75 1662.63 1605.39 1656.93C1700.38 1630.4 1828.52 1677.23 1904.38 1801.45Z" fill="#75895E"/>
<path d="M2150.99 1803.92C2078.67 1922.34 2062.31 2108.11 2078.11 2152.78C2078.7 2160.74 2086.28 2178.93 2096.43 2151.2C2106.59 2123.47 2102.15 2052.8 2124.42 2013.08C2145.94 1974.7 2181.3 1958.67 2211.73 1957.91C2244.15 1957.1 2270.07 1938.58 2273.99 1929.51C2280.12 1915.28 2263.93 1870.46 2259.61 1862.03C2256.98 1856.89 2259.04 1855.74 2261.19 1856.16C2283.92 1861.72 2344.04 1857.74 2375.17 1842.89C2406.31 1828.04 2402.63 1791.24 2406.19 1771.59C2408.62 1758.2 2428.89 1743.63 2440.68 1737.1C2452.92 1732.27 2479.95 1718 2490.14 1699.56C2500.34 1681.12 2467.62 1665.1 2449.98 1659.4C2354.99 1632.88 2226.85 1679.7 2150.99 1803.92Z" fill="#75895E"/>
<path d="M1829.61 1587.32C1900.51 1638.13 1945.02 1734.8 1959.48 1774.22C1961.28 1779.12 1975.26 1805.94 1966.77 1759.59C1952.86 1683.62 1869.13 1566.43 1796.86 1535.94C1724.58 1505.44 1655.42 1532.57 1640.37 1556.6C1622.35 1585.38 1651.54 1590.12 1669.16 1576.07C1681.64 1566.13 1741.88 1524.46 1829.61 1587.32Z" fill="#B14B57"/>
<path d="M2202.21 1587.32C2131.31 1638.13 2086.8 1734.8 2072.34 1774.22C2070.54 1779.12 2056.56 1805.94 2065.05 1759.59C2078.96 1683.62 2162.69 1566.43 2234.96 1535.94C2307.24 1505.44 2376.4 1532.57 2391.45 1556.6C2409.47 1585.38 2380.28 1590.12 2362.66 1576.07C2350.18 1566.13 2289.94 1524.46 2202.21 1587.32Z" fill="#B14B57"/>
<path d="M2071.16 1393.36C2021.12 1442.99 2022.38 1421.4 2039.71 1396.93C2057.05 1372.46 2110.81 1280.59 2123.33 1196.39C2139.4 1088.33 2109.66 984.914 2018.12 973.861C1933.63 967.068 1894.48 1115.36 1924.56 1235.61C1943.97 1306.47 1974.02 1371.93 1996.82 1394.16C2005.32 1402.99 2017.2 1415.5 2014.18 1417.41C2009.72 1418.85 1981.97 1415.42 1953.66 1378.24C1897.65 1304.66 1857.4 1220.04 1853.92 1069.41C1850.7 930.034 1944.77 860.274 2018.12 856.797C2050.04 856.082 2129.9 872.668 2167.64 973.861C2205.37 1075.05 2183.36 1186.59 2167.64 1229.7C2156.92 1264.24 2121.13 1343.79 2071.16 1393.36Z" fill="#D2939B"/>
<path d="M2101.17 1472.15C2112.33 1529.18 2063.36 1553.78 2037.47 1558.96C2025.14 1560.77 2013.41 1559.86 2009.09 1558.7C1944.59 1549.02 1939.06 1486.27 1940.65 1478.99C1941.92 1473.16 1945.02 1473.67 1946.41 1474.65C1967.33 1490.82 1982.02 1497.14 2021.3 1500.21C2060.58 1503.29 2091.76 1475.61 2096.95 1472.02C2100.09 1469.85 2100.58 1470.74 2101.17 1472.15Z" fill="#4E6F82"/>
<path d="M1791.13 3692.01C1844.47 3749.36 1863.73 3847.39 1855.27 3872.61C1855.24 3876.91 1851.04 3887.27 1843.05 3873.28C1835.05 3859.29 1834.8 3821.11 1818.23 3801.71C1802.21 3782.96 1778.02 3777.33 1757.81 3779.45C1736.26 3781.71 1718.22 3773.96 1715.21 3769.43C1710.5 3762.33 1719.21 3737 1721.69 3732.13C1723.21 3729.16 1721.79 3728.71 1720.38 3729.12C1705.56 3733.98 1665.49 3736.85 1644.16 3731.49C1622.83 3726.14 1623.6 3706.14 1620.35 3695.92C1618.14 3688.96 1604.03 3682.85 1595.91 3680.34C1587.57 3678.77 1568.99 3673.38 1561.39 3664.36C1553.79 3655.34 1574.78 3644.05 1586.22 3639.53C1648.04 3617.45 1735.18 3631.85 1791.13 3692.01Z" fill="#75895E"/>
<path d="M2333.79 3692.01C2280.44 3749.36 2261.18 3847.39 2269.65 3872.61C2269.68 3876.91 2273.88 3887.27 2281.87 3873.28C2289.86 3859.29 2290.12 3821.11 2306.69 3801.71C2322.71 3782.96 2346.9 3777.33 2367.11 3779.45C2388.66 3781.71 2406.7 3773.96 2409.71 3769.43C2414.42 3762.33 2405.71 3737 2403.22 3732.13C2401.71 3729.16 2403.13 3728.71 2404.54 3729.12C2419.36 3733.98 2459.43 3736.85 2480.76 3731.49C2502.09 3726.14 2501.32 3706.14 2504.57 3695.92C2506.78 3688.96 2520.89 3682.85 2529.01 3680.34C2537.35 3678.77 2555.92 3673.38 2563.52 3664.36C2571.13 3655.34 2550.14 3644.05 2538.7 3639.53C2476.87 3617.45 2389.74 3631.85 2333.79 3692.01Z" fill="#75895E"/>
<path d="M2604.3 5152.63C2430.57 5166.79 2329.51 5022.06 2310.26 4968.99C2305.04 4958.21 2300.24 4939.73 2296.93 4942.8C2293.62 4945.87 2305.41 5072.07 2416.85 5161.59C2528.29 5251.11 2609.96 5260.31 2681.17 5221.47C2721.71 5196.7 2756.37 5140.23 2604.3 5152.63Z" fill="#4E6F82"/>
<path d="M2531.74 5007.59C2525.66 5002.83 2516.1 5004.02 2511.34 5010.1C2506.58 5016.17 2507.56 5026.09 2513.64 5030.86C2519.71 5035.62 2529.31 5034.05 2534.07 5027.98C2538.83 5021.9 2538.32 5013.58 2531.74 5007.59Z" fill="#B14B57"/>
<path d="M2481.42 5007.35C2474.09 5001.6 2463.82 5003.57 2458.08 5010.9C2453.13 5018.12 2454.11 5028.75 2460.95 5034.56C2468.28 5040.3 2480.26 5038.58 2486 5031.25C2491.75 5023.92 2488.75 5013.09 2481.42 5007.35Z" fill="#B14B57"/>
<path d="M2433.71 4977.98C2426.44 4970.65 2414.86 4970.74 2407.89 4979.7C2401.59 4987.73 2402.08 4999.88 2410.12 5006.18C2418.15 5012.47 2429.64 5012.5 2435.94 5004.46C2442.23 4996.43 2441.75 4984.28 2433.71 4977.98Z" fill="#B14B57"/>
<path d="M2608.11 5113.94C2709.99 5082.27 2723.67 5006.62 2717.61 4969.95C2715.82 4958.64 2714.98 4955.87 2707.27 4940.43C2703.3 4932.48 2698.2 4920.33 2704.8 4910.06C2712.13 4898.66 2743.39 4886.74 2774.76 4918.18C2805.4 4948.89 2819.2 5022.13 2769.02 5066.08C2722.18 5107.09 2651.1 5125.81 2599.68 5127.88C2558.55 5129.54 2588.16 5119.28 2608.11 5113.94Z" fill="#75895E"/>
<path d="M2417.38 5074.51C2318.57 4996.24 2320.14 4920.45 2333.28 4892.33C2346.95 4868.65 2369.61 4867.66 2382.29 4870.31C2394.98 4872.96 2428.05 4898.23 2413.44 4935.81C2400.74 4968.49 2367.41 4961.8 2354.93 4956.31C2356.3 4967.56 2374.76 5024.23 2459.53 5050.59C2544.3 5076.96 2600.07 5028.67 2606.78 5002.82C2613.49 4976.96 2601.99 4961.59 2593.82 4941.7C2585.05 4920.35 2594.48 4912.09 2599.61 4908.34C2607.53 4902.57 2644.74 4894.05 2668.85 4941.84C2692.95 4989.62 2679.33 5021.04 2667.24 5045.35C2655.16 5069.65 2540.88 5172.34 2417.38 5074.51Z" fill="#4E6F82"/>
<path d="M1451.06 5152.63C1624.78 5166.79 1725.85 5022.06 1745.1 4968.99C1750.31 4958.22 1755.11 4939.73 1758.42 4942.8C1761.73 4945.87 1749.95 5072.08 1638.5 5161.59C1527.06 5251.11 1445.4 5260.32 1374.19 5221.47C1333.65 5196.7 1298.99 5140.24 1451.06 5152.63Z" fill="#4E6F82"/>
<path d="M1523.62 5007.59C1529.69 5002.83 1539.26 5004.02 1544.02 5010.1C1548.78 5016.17 1547.79 5026.09 1541.72 5030.86C1535.64 5035.62 1526.04 5034.05 1521.28 5027.98C1516.52 5021.9 1517.03 5013.58 1523.62 5007.59Z" fill="#B14B57"/>
<path d="M1573.94 5007.35C1581.27 5001.6 1591.54 5003.57 1597.28 5010.9C1602.23 5018.12 1601.25 5028.75 1594.41 5034.56C1587.08 5040.3 1575.09 5038.58 1569.35 5031.25C1563.61 5023.92 1566.61 5013.09 1573.94 5007.35Z" fill="#B14B57"/>
<path d="M1621.65 4977.98C1628.91 4970.65 1640.49 4970.74 1647.46 4979.7C1653.76 4987.74 1653.27 4999.88 1645.24 5006.18C1637.2 5012.47 1625.72 5012.5 1619.42 5004.46C1613.12 4996.43 1613.61 4984.28 1621.65 4977.98Z" fill="#B14B57"/>
<path d="M1447.25 5113.94C1345.36 5082.27 1331.69 5006.63 1337.75 4969.96C1339.53 4958.64 1340.38 4955.87 1348.08 4940.43C1352.06 4932.48 1357.15 4920.33 1350.55 4910.06C1343.22 4898.66 1311.97 4886.74 1280.6 4918.18C1249.96 4948.89 1236.16 5022.13 1286.34 5066.08C1333.17 5107.09 1404.26 5125.81 1455.67 5127.88C1496.81 5129.55 1467.19 5119.28 1447.25 5113.94Z" fill="#75895E"/>
<path d="M1637.98 5074.51C1736.79 4996.25 1735.21 4920.45 1722.08 4892.34C1708.41 4868.65 1685.74 4867.66 1673.06 4870.31C1660.38 4872.96 1627.31 4898.23 1641.91 4935.81C1654.62 4968.49 1687.94 4961.8 1700.42 4956.31C1699.05 4967.56 1680.6 5024.23 1595.83 5050.59C1511.06 5076.96 1455.28 5028.67 1448.57 5002.82C1441.86 4976.96 1453.37 4961.59 1461.54 4941.7C1470.31 4920.35 1460.87 4912.09 1455.74 4908.35C1447.83 4902.57 1410.61 4894.06 1386.51 4941.84C1362.4 4989.63 1376.03 5021.04 1388.11 5045.35C1400.2 5069.66 1514.47 5172.34 1637.98 5074.51Z" fill="#4E6F82"/>
<path d="M1875.23 4755.77C1928.57 4813.12 1947.83 4911.15 1939.37 4936.37C1939.34 4940.67 1935.14 4951.03 1927.15 4937.04C1919.15 4923.05 1918.9 4884.87 1902.32 4865.47C1886.31 4846.72 1862.12 4841.09 1841.9 4843.21C1820.35 4845.47 1802.32 4837.72 1799.31 4833.19C1794.6 4826.09 1803.31 4800.75 1805.79 4795.89C1807.31 4792.92 1805.88 4792.47 1804.48 4792.88C1789.65 4797.74 1749.58 4800.61 1728.26 4795.25C1706.93 4789.9 1707.7 4769.9 1704.45 4759.68C1702.23 4752.72 1688.13 4746.61 1680.01 4744.1C1671.67 4742.53 1653.09 4737.14 1645.49 4728.12C1637.89 4719.1 1658.88 4707.81 1670.32 4703.29C1732.14 4681.21 1819.27 4695.61 1875.23 4755.77Z" fill="#75895E"/>
<path d="M2191.84 4755.77C2138.49 4813.12 2119.23 4911.15 2127.7 4936.37C2127.73 4940.67 2131.93 4951.03 2139.92 4937.04C2147.92 4923.05 2148.17 4884.87 2164.74 4865.47C2180.76 4846.72 2204.95 4841.09 2225.16 4843.21C2246.71 4845.47 2264.75 4837.72 2267.76 4833.19C2272.47 4826.09 2263.76 4800.75 2261.27 4795.89C2259.76 4792.92 2261.18 4792.47 2262.59 4792.88C2277.41 4797.74 2317.48 4800.61 2338.81 4795.25C2360.14 4789.9 2359.37 4769.9 2362.62 4759.68C2364.83 4752.72 2378.94 4746.61 2387.06 4744.1C2395.4 4742.53 2413.98 4737.14 2421.58 4728.12C2429.18 4719.1 2408.19 4707.81 2396.75 4703.29C2334.92 4681.21 2247.79 4695.61 2191.84 4755.77Z" fill="#75895E"/>
<path d="M2056.74 5437.61C2094.03 5447.7 2115.1 5485.55 2098.82 5524.77C2084.3 5560.09 2043.9 5580.92 2008.58 5566.4C1973.26 5551.88 1951.98 5514.57 1966.5 5479.25C1981.02 5443.93 2021.43 5423.09 2056.74 5437.61Z" fill="#B14B57"/>
<path d="M2015.01 5626.56C2043.88 5609.13 2080.48 5618.69 2095.39 5652.63C2108.91 5683.12 2097.66 5721.18 2067.18 5734.7C2036.69 5748.22 2000.31 5739.11 1986.79 5708.63C1973.28 5678.15 1984.52 5640.08 2015.01 5626.56Z" fill="#B14B57"/>
<path d="M1517.11 5461.72C1640.07 5434.57 1811.59 5279.89 1814.13 5267.85C1816.66 5255.82 1809.47 5258.26 1806 5261.23C1802.53 5264.21 1724.59 5320.18 1679.66 5345.85C1625.85 5376.59 1522.22 5406.49 1422.83 5392.93C1338.69 5381.45 1328.63 5411.28 1337.5 5429.44C1348.57 5452.24 1397.01 5488.23 1517.11 5461.72Z" fill="#75895E"/>
<path d="M1628.44 5572.68C1733.97 5530.4 1864 5367.36 1864.49 5356.26C1864.97 5345.17 1858.92 5348.4 1856.27 5351.56C1853.62 5354.73 1792.43 5416.06 1756.19 5445.54C1712.78 5480.84 1624.86 5522.73 1534.32 5525.28C1457.68 5527.44 1453.11 5555.49 1463.69 5570.37C1476.9 5589.04 1525.35 5613.97 1628.44 5572.68Z" fill="#75895E"/>
<path d="M1806.22 5627.24C1885.33 5566.78 1956.74 5398.66 1954.55 5389.19C1952.35 5379.71 1948 5383.86 1946.51 5387.15C1945.02 5390.44 1907.8 5456.57 1884.14 5489.96C1855.81 5529.94 1791.47 5585.94 1715.68 5609.36C1651.52 5629.19 1654.25 5653.93 1666.67 5664C1682.21 5676.65 1728.95 5686.31 1806.22 5627.24Z" fill="#75895E"/>
<path d="M2546.1 5461.71C2423.14 5434.57 2251.62 5279.89 2249.08 5267.85C2246.55 5255.82 2253.74 5258.25 2257.21 5261.23C2260.68 5264.21 2338.62 5320.18 2383.55 5345.85C2437.36 5376.59 2540.99 5406.49 2640.39 5392.93C2724.52 5381.45 2734.58 5411.28 2725.71 5429.44C2714.64 5452.23 2666.2 5488.23 2546.1 5461.71Z" fill="#75895E"/>
<path d="M2434.77 5572.68C2329.24 5530.4 2199.21 5367.36 2198.72 5356.26C2198.24 5345.17 2204.29 5348.4 2206.94 5351.56C2209.59 5354.73 2270.78 5416.06 2307.03 5445.54C2350.44 5480.84 2438.35 5522.73 2528.89 5525.28C2605.53 5527.44 2610.1 5555.49 2599.52 5570.37C2586.31 5589.04 2537.86 5613.97 2434.77 5572.68Z" fill="#75895E"/>
<path d="M2256.99 5627.24C2177.88 5566.78 2106.47 5398.66 2108.66 5389.19C2110.86 5379.71 2115.21 5383.86 2116.7 5387.15C2118.19 5390.44 2155.41 5456.57 2179.07 5489.96C2207.4 5529.94 2271.74 5585.94 2347.54 5609.36C2411.69 5629.19 2408.96 5653.93 2396.54 5664C2381 5676.65 2334.27 5686.31 2256.99 5627.24Z" fill="#75895E"/>
<path d="M2222.94 5145.25C2249.8 5282.54 2131.91 5341.76 2069.6 5354.21C2039.91 5358.57 2011.68 5356.39 2001.27 5353.59C1846.02 5330.3 1832.7 5179.26 1836.53 5161.72C1839.6 5147.69 1847.05 5148.91 1850.39 5151.27C1900.75 5190.19 1936.13 5205.41 2030.67 5212.81C2125.22 5220.21 2200.27 5153.57 2212.77 5144.94C2220.34 5139.71 2221.51 5141.85 2222.94 5145.25Z" fill="#B14B57"/>
<path d="M2179.91 4983.76C2201.63 5094.79 2106.3 5142.68 2055.91 5152.75C2031.89 5156.27 2009.07 5154.51 2000.65 5152.24C1875.1 5133.41 1864.33 5011.26 1867.43 4997.08C1869.91 4985.74 1875.93 4986.72 1878.64 4988.63C1919.36 5020.1 1947.97 5032.41 2024.43 5038.4C2100.89 5044.38 2161.58 4990.5 2171.68 4983.52C2177.81 4979.29 2178.75 4981.02 2179.91 4983.76Z" fill="#B14B57"/>
<path d="M2132.22 4451.29C2146.51 4524.3 2083.81 4555.8 2050.67 4562.42C2034.88 4564.74 2019.87 4563.57 2014.33 4562.09C1931.77 4549.7 1924.68 4469.37 1926.72 4460.05C1928.35 4452.59 1932.31 4453.23 1934.09 4454.49C1960.87 4475.19 1979.69 4483.28 2029.97 4487.22C2080.25 4491.15 2120.17 4455.71 2126.81 4451.12C2130.84 4448.34 2131.46 4449.48 2132.22 4451.29Z" fill="#4E6F82"/>
<path d="M2052.1 4625.91C2041.32 4580.6 2021.73 4604.66 2014.76 4624.6C1996.76 4690.7 2003.71 4916.24 2006.19 4938.12C2008.68 4960 2042.44 4974.18 2052.1 4942.84C2061.75 4911.5 2064.57 4678.41 2052.1 4625.91Z" fill="#75895E"/>
<path d="M1900.67 4656.06C1949.25 4715.25 1965.02 4807.33 1968.33 4844.04C1968.74 4848.6 1974.51 4874.53 1977.84 4833.29C1983.3 4765.72 1938.93 4647.33 1884.58 4605.05C1830.23 4562.78 1765.42 4570.06 1747.2 4587.02C1725.39 4607.33 1749.06 4617.98 1767.19 4610.07C1780.03 4604.48 1840.58 4582.83 1900.67 4656.06Z" fill="#B14B57"/>
<path d="M2155.58 4656.06C2107 4715.25 2091.23 4807.33 2087.92 4844.04C2087.51 4848.6 2081.74 4874.53 2078.41 4833.29C2072.95 4765.72 2117.32 4647.33 2171.67 4605.05C2226.02 4562.78 2290.83 4570.06 2309.05 4587.02C2330.86 4607.33 2307.19 4617.98 2289.06 4610.07C2276.22 4604.48 2215.67 4582.83 2155.58 4656.06Z" fill="#B14B57"/>
</svg>
