<svg width="512" height="512" viewBox="0 0 512 512" fill="none" xmlns="http://www.w3.org/2000/svg">
<rect width="512" height="512" fill="#FAF7F1"/>
<path d="M360.377 245.042C354.371 245.042 349.484 244.394 345.715 243.099C342.065 241.803 339.591 240.155 338.296 238.153C337.707 237.328 337.177 236.092 336.706 234.443C336.235 232.794 336.412 230.969 337.236 228.967C338.885 230.262 340.651 231.263 342.536 231.97C344.538 232.559 346.363 232.971 348.012 233.206C350.014 233.56 351.957 233.736 353.841 233.736C357.374 233.736 360.79 233.442 364.087 232.853C367.502 232.264 370.859 231.44 374.156 230.38C375.569 223.314 376.924 216.954 378.219 211.301C379.632 205.649 381.222 201.056 382.989 197.523C384.873 193.636 386.816 190.162 388.818 187.1C390.938 183.92 393.235 181.271 395.708 179.151C398.299 176.913 401.125 175.206 404.187 174.028C407.249 172.85 410.782 172.261 414.786 172.261C417.73 172.261 420.027 172.85 421.676 174.028C423.442 175.206 424.737 176.678 425.562 178.444C426.504 180.211 427.034 182.154 427.152 184.274C427.387 186.276 427.505 188.16 427.505 189.927C427.505 193.813 426.563 198.053 424.679 202.646C422.794 207.238 420.145 211.773 416.729 216.248C413.314 220.723 409.192 224.963 404.364 228.967C399.653 232.971 394.353 236.268 388.465 238.859C386.463 246.632 384.461 254.346 382.459 262.001C380.575 269.538 378.69 275.779 376.806 280.726C375.157 285.319 373.037 290.441 370.447 296.094C367.973 301.747 364.911 307.164 361.261 312.346C363.498 313.759 365.736 315.232 367.973 316.763C370.329 318.294 372.684 319.648 375.039 320.826C377.395 322.121 379.75 323.181 382.106 324.005C384.579 324.83 387.17 325.242 389.878 325.242C392.705 325.124 395.472 324.712 398.181 324.005C400.536 323.416 403.009 322.415 405.6 321.002C408.191 319.707 410.605 317.822 412.843 315.349C413.667 316.763 413.903 318.882 413.55 321.709C413.314 324.535 412.431 327.362 410.9 330.188C409.369 333.014 407.19 335.488 404.364 337.607C401.537 339.727 398.004 340.787 393.765 340.787C389.289 340.787 385.109 340.139 381.222 338.844C377.336 337.666 373.685 336.194 370.27 334.428C366.855 332.661 363.616 330.718 360.554 328.598C357.61 326.596 354.842 324.712 352.251 322.945C348.718 326.361 344.832 329.128 340.592 331.248C336.353 333.368 331.642 334.428 326.46 334.428C322.338 334.428 319.041 333.25 316.568 330.895C314.095 328.657 312.976 325.595 313.211 321.709C313.329 320.296 313.741 318.588 314.448 316.586C315.155 314.702 316.509 312.876 318.511 311.11C320.395 309.343 323.045 307.812 326.46 306.517C329.876 305.339 334.292 304.75 339.709 304.75C341.711 304.75 343.595 304.927 345.362 305.28C347.246 305.751 349.072 306.281 350.838 306.87C352.134 304.515 353.429 301.806 354.725 298.744C356.02 295.682 357.433 292.208 358.964 288.322C361.673 280.902 364.028 273.483 366.03 266.063C368.032 258.526 369.74 251.225 371.153 244.159C369.504 244.512 367.738 244.748 365.854 244.865C364.087 244.983 362.262 245.042 360.377 245.042ZM331.053 324.889C332.584 324.3 334.351 323.711 336.353 323.122C338.355 322.533 340.651 320.884 343.242 318.176C341.476 317.587 340.121 317.292 339.179 317.292C334.94 317.292 331.878 317.881 329.993 319.059C327.991 320.354 326.99 321.591 326.99 322.769C326.99 323.593 327.344 324.182 328.05 324.535C328.757 325.006 329.758 325.124 331.053 324.889ZM397.828 201.939C397.239 203.705 396.473 206.296 395.531 209.712C394.589 213.127 393.588 217.072 392.528 221.547C398.887 217.425 403.951 212.715 407.72 207.415C411.606 202.116 413.55 196.816 413.55 191.517C413.55 188.337 412.607 186.747 410.723 186.747C409.074 186.747 406.955 188.042 404.364 190.633C401.773 193.106 399.594 196.875 397.828 201.939Z" fill="#571E25"/>
<path d="M294.56 277.125C295.329 276.441 296.056 276.057 296.74 275.971C297.424 275.886 297.937 276.057 298.279 276.484C298.707 276.826 298.835 277.382 298.664 278.151C298.578 278.835 298.065 279.69 297.125 280.716C295.158 282.683 293.021 284.821 290.712 287.129C288.404 289.352 285.796 291.49 282.889 293.542C283.573 294.824 284.342 295.979 285.197 297.005C285.881 297.945 286.693 298.886 287.634 299.826C288.575 300.681 289.643 301.323 290.84 301.75C290.669 302.092 290.285 302.434 289.686 302.776C289.088 303.118 288.446 303.503 287.762 303.93C286.993 304.358 286.138 304.828 285.197 305.341C282.889 306.453 280.965 307.051 279.426 307.137C277.887 307.222 276.604 307.009 275.578 306.496C274.552 305.983 273.74 305.213 273.141 304.187C272.628 303.161 272.201 302.092 271.859 300.981C271.773 300.895 271.73 300.681 271.73 300.339C271.73 300.168 271.688 300.04 271.602 299.955C268.866 301.066 266.002 301.964 263.009 302.648C260.017 303.332 256.896 303.674 253.647 303.674C249.542 303.674 246.208 302.862 243.643 301.237C241.163 299.613 239.325 297.603 238.128 295.209C236.845 292.815 236.076 290.25 235.819 287.514C235.563 284.692 235.648 282.127 236.076 279.819C236.845 275.031 239.282 269.9 243.386 264.428C247.576 258.956 253.134 252.843 260.059 246.088C260.487 245.66 260.957 245.233 261.47 244.805C261.983 244.378 262.453 243.95 262.881 243.523C262.881 241.214 262.924 239.034 263.009 236.982C263.18 234.844 263.351 232.792 263.522 230.826C263.608 230.056 263.693 229.329 263.779 228.645C263.864 227.876 263.992 227.106 264.163 226.337C265.019 221.976 266.387 218.342 268.268 215.435C270.149 212.442 272.201 210.048 274.424 208.253C276.732 206.372 278.955 205.046 281.093 204.277C283.316 203.507 285.197 203.123 286.736 203.123C287.762 203.123 288.874 203.294 290.071 203.636C291.353 203.978 292.465 204.576 293.405 205.431C294.431 206.286 295.201 207.441 295.714 208.894C296.227 210.348 296.313 212.186 295.971 214.409C295.629 216.29 295.073 218.128 294.303 219.924C293.619 221.72 292.508 223.729 290.969 225.952C289.515 228.089 287.506 230.569 284.941 233.391C282.461 236.212 279.297 239.59 275.45 243.523C275.108 243.865 274.766 244.164 274.424 244.421C274.167 244.677 273.911 244.976 273.654 245.318C274.082 253.185 274.98 260.752 276.348 268.019C277.801 275.287 279.169 281.529 280.452 286.744C280.623 287.428 280.751 287.899 280.837 288.155C282.632 287.044 284.299 285.932 285.838 284.821C287.377 283.624 288.703 282.512 289.814 281.486C291.011 280.46 291.995 279.562 292.764 278.793C293.619 278.023 294.218 277.467 294.56 277.125ZM259.033 294.953C260.914 294.953 262.71 294.824 264.42 294.568C266.13 294.226 267.84 293.841 269.55 293.414C268.781 290.849 267.926 287.685 266.985 283.923C266.13 280.161 265.361 275.928 264.676 271.226C264.334 268.746 264.035 266.266 263.779 263.787C263.608 261.307 263.437 258.87 263.266 256.476C253.433 267.506 248.003 276.014 246.977 281.999C246.806 283.196 246.806 284.564 246.977 286.103C247.148 287.557 247.661 288.967 248.516 290.336C249.371 291.618 250.611 292.73 252.236 293.67C253.946 294.525 256.212 294.953 259.033 294.953ZM274.552 220.309C273.954 224.498 273.569 228.902 273.398 233.519C277.502 229.5 281.008 225.909 283.915 222.746C286.822 219.582 288.489 216.76 288.917 214.281C289.088 213.084 288.917 211.929 288.404 210.818C287.976 209.621 287.121 209.022 285.838 209.022C284.47 209.022 283.145 209.364 281.863 210.048C280.58 210.732 279.426 211.63 278.4 212.742C277.459 213.768 276.647 214.965 275.963 216.333C275.279 217.615 274.809 218.941 274.552 220.309Z" fill="#DF980C"/>
<path d="M93.2303 338.137C88.6374 338.255 84.8688 337.431 81.9246 335.664C78.8626 333.898 76.5073 331.307 74.8585 327.892C73.092 324.594 71.9732 320.531 71.5021 315.703C71.0311 310.992 71.0311 305.81 71.5021 300.157C72.091 295.8 73.1509 291.266 74.6819 286.555C75.9773 282.551 77.9794 278.135 80.688 273.306C83.2789 268.478 86.8119 263.767 91.2871 259.174C92.2293 259.41 92.9948 259.704 93.5836 260.057C94.1724 260.293 94.6435 260.587 94.9968 260.941C95.3501 261.412 95.5856 261.824 95.7034 262.177C95.939 263.473 95.5856 264.945 94.6435 266.593C93.7014 268.242 92.7592 270.009 91.8171 271.893C89.2262 277.31 87.283 282.433 85.9876 287.262C84.6921 292.09 83.8678 296.565 83.5145 300.687C83.2789 304.22 83.3378 307.4 83.6911 310.226C83.9266 313.171 84.3388 315.644 84.9277 317.646C85.5165 319.766 86.1642 321.355 86.8708 322.415C87.5774 323.593 88.2252 324.182 88.814 324.182C89.4028 324.182 89.9917 323.77 90.5805 322.945C91.2871 322.121 91.9348 321.12 92.5237 319.942C93.2303 318.765 94.0547 316.939 94.9968 314.466C95.939 312.111 96.94 309.343 97.9999 306.163C99.0598 302.984 100.061 299.568 101.003 295.918C102.063 292.149 103.005 288.38 103.829 284.612C105.478 277.075 107.245 268.596 109.129 259.174C111.013 249.635 113.781 239.684 117.432 229.32C118.609 224.963 120.081 220.193 121.848 215.011C123.261 210.536 125.028 205.354 127.147 199.466C129.385 193.46 131.917 186.982 134.743 180.034C134.743 179.445 135.215 178.915 136.157 178.444C137.217 177.855 138.394 177.267 139.69 176.678C141.103 176.089 142.693 175.5 144.459 174.911C146.815 174.087 148.64 173.616 149.935 173.498C151.349 173.38 152.409 173.557 153.115 174.028C153.822 174.499 154.293 175.147 154.528 175.971C154.764 176.678 154.882 177.502 154.882 178.444C155.117 182.331 155.235 185.981 155.235 189.397C155.353 192.812 155.471 195.815 155.588 198.406C155.706 201.468 155.765 204.235 155.765 206.709C155.883 210.006 155.706 214.422 155.235 219.957C154.764 225.375 154.234 231.086 153.645 237.093C153.174 243.099 152.703 248.987 152.232 254.758C151.879 260.411 151.82 265.121 152.055 268.89C152.055 270.892 152.114 272.776 152.232 274.543C152.467 276.192 152.703 277.84 152.939 279.489C154.47 275.249 156.177 270.833 158.061 266.24C159.946 261.529 161.83 257.054 163.714 252.815C165.599 248.457 167.365 244.453 169.014 240.802C170.663 237.034 171.958 233.913 172.9 231.44C174.313 228.142 176.198 223.962 178.553 218.898C180.908 213.833 183.264 208.769 185.619 203.705C188.092 198.641 190.33 193.99 192.332 189.75C194.452 185.51 195.983 182.566 196.925 180.917C197.631 179.74 198.809 178.68 200.458 177.738C202.224 176.796 204.05 175.971 205.934 175.265C207.936 174.558 209.762 174.087 211.41 173.851C213.177 173.498 214.354 173.439 214.943 173.675C216.474 174.028 217.534 174.499 218.123 175.088C218.83 175.677 219.242 176.089 219.36 176.324C219.595 176.796 219.772 177.62 219.89 178.798C220.007 179.857 219.948 181.565 219.713 183.92C219.477 186.747 218.771 191.045 217.593 196.816C216.533 202.587 215.179 209.182 213.53 216.601C211.999 223.903 210.291 231.734 208.407 240.096C206.641 248.457 204.933 256.701 203.284 264.827C201.636 272.835 200.163 280.372 198.868 287.438C197.69 294.504 196.925 300.452 196.572 305.28C196.336 310.697 196.689 315.467 197.631 319.589C197.985 321.355 198.515 323.063 199.221 324.712C199.928 326.361 200.87 327.774 202.048 328.951C203.225 330.247 204.639 331.189 206.287 331.778C207.936 332.367 209.879 332.543 212.117 332.308C209.173 334.31 206.287 335.782 203.461 336.724C200.635 337.666 197.867 338.137 195.158 338.137C192.214 338.255 189.623 337.784 187.386 336.724C185.148 335.782 183.264 334.369 181.733 332.485C180.202 330.718 179.083 328.539 178.376 325.948C177.67 323.475 177.434 320.708 177.67 317.646C177.905 314.819 178.671 310.168 179.966 303.69C181.262 297.213 182.793 289.911 184.559 281.785C186.443 273.542 188.446 265.004 190.565 256.171C192.803 247.221 194.864 238.859 196.748 231.086C198.75 223.196 200.458 216.424 201.871 210.772C203.284 205.119 204.168 201.409 204.521 199.642C204.756 198.229 204.933 196.934 205.051 195.756C205.286 194.461 205.522 193.342 205.757 192.4C204.58 194.755 203.108 197.582 201.341 200.879C199.692 204.177 197.926 207.71 196.042 211.478C194.157 215.247 192.214 219.192 190.212 223.314C188.328 227.318 186.502 231.204 184.736 234.973C181.792 241.097 178.906 247.397 176.08 253.875C173.253 260.234 170.721 266.299 168.484 272.07C166.246 277.84 164.362 283.022 162.831 287.615C161.418 292.208 160.593 295.741 160.358 298.214V300.687C160.358 301.394 160.358 302.218 160.358 303.16C160.476 304.102 160.652 304.986 160.888 305.81L153.822 311.286C152.762 311.64 151.82 311.934 150.995 312.17C150.289 312.405 149.582 312.523 148.876 312.523C146.167 312.523 144.106 311.11 142.693 308.283C141.28 305.692 139.984 300.628 138.806 293.091C137.629 285.554 137.275 276.309 137.747 265.357C137.982 259.94 138.335 254.463 138.806 248.928C139.395 243.393 139.925 238.094 140.396 233.03C140.985 227.966 141.515 223.255 141.986 218.898C142.457 214.422 142.693 210.595 142.693 207.415C142.811 205.06 142.752 202.94 142.516 201.056C142.281 199.054 142.045 197.228 141.809 195.579C140.75 198.288 139.572 201.998 138.276 206.709C136.981 211.301 135.627 216.424 134.213 222.077C132.8 227.73 131.328 233.677 129.797 239.919C128.384 246.161 126.971 252.167 125.558 257.938C124.262 263.708 123.026 269.067 121.848 274.013C120.67 278.841 119.728 282.728 119.021 285.672C117.844 290.383 116.666 295.741 115.488 301.747C114.311 307.753 112.839 313.406 111.072 318.706C109.306 324.123 107.009 328.657 104.183 332.308C101.356 336.076 97.7055 338.02 93.2303 338.137Z" fill="#571E25"/>
<path d="M293.635 93.7465C296.759 111.493 321.78 136.625 323.83 137.186C325.88 137.746 325.55 136.693 325.079 136.155C324.608 135.617 315.921 123.711 312.055 116.96C307.424 108.874 304.372 94.5795 307.988 80.8348C311.05 69.1997 305.221 66.4988 301.965 67.4389C297.881 68.6088 290.583 76.4117 293.635 93.7465Z" fill="#75895E"/>
<path d="M275.414 122.487C295.022 131.038 319.415 168.932 319.529 171.659C319.852 173.385 318.516 173.697 318.019 172.964C317.523 172.231 306.075 158.194 299.31 151.569C291.206 143.634 274.857 134.867 258.107 135.846C243.928 136.674 243.023 129.838 244.949 125.982C247.353 121.143 256.261 114.135 275.414 122.487Z" fill="#4E6F82"/>
<path d="M190.019 124.134C182.474 126.96 172.395 128.64 170.373 122.605C168.894 118.187 178.322 111.911 185.866 109.084C193.41 106.258 206.607 104.67 206.357 110.432C205.528 115.753 197.563 121.308 190.019 124.134Z" fill="#DF980C"/>
<path d="M305.427 137.942C318.921 154.954 331.043 180.676 334.549 191.947C335.087 193.633 336.244 196.022 338.45 196.26C340.215 196.449 341.043 194.206 341.237 193.061C341.904 188.861 339.997 169.066 312.471 133.998C282.903 96.3297 245.46 93.7448 232.247 98.0197C226.02 87.2181 214.282 90.4888 213.097 91.2808C212.148 91.9143 212.454 92.43 212.726 92.6086C217.065 95.2022 219.509 98.2717 222.799 105.047C226.089 111.821 223.428 119.272 223.153 120.446C222.986 121.158 223.178 121.182 223.471 121.189C234.4 119.191 236.444 111.904 235.556 106.937C265.11 101.01 289.441 117.788 305.427 137.942Z" fill="#75895E"/>
<path d="M165.204 82.0273C183.677 81.8746 200.751 91.3012 206.979 96.0337C209.414 98.0921 208.256 98.8029 207.373 98.901C188.938 100.699 172.495 107.008 160.204 117.027C147.913 127.045 154.564 136.286 174.237 133.515C193.911 130.745 210.351 122.589 214.098 117.257C215.058 115.89 216.643 115.609 216.275 118.194C210.406 144.87 189.827 157.989 178.651 158.801C169.98 159.43 165.467 147.44 164.307 141.65C159.442 146.018 147.642 148.19 142.335 147.62C137.028 147.049 124.58 141.751 127.393 125.616C129.643 112.708 145.709 108.343 153.46 107.774C149.279 102.702 142.113 82.2183 165.204 82.0273Z" fill="#B14B57"/>
<path d="M331.715 150.266C332.678 155.066 337.287 158.05 342.384 156.32C346.973 154.78 349.947 149.845 348.407 145.256C346.868 140.667 342.327 137.662 337.738 139.202C333.149 140.742 330.175 145.677 331.715 150.266Z" fill="#B14B57"/>
<path d="M175.989 419.463C173.104 401.676 148.424 376.209 146.382 375.621C144.34 375.033 144.655 376.091 145.119 376.635C145.583 377.179 154.108 389.2 157.883 396.003C162.405 404.151 165.264 418.485 161.463 432.18C158.245 443.773 164.036 446.552 167.305 445.656C171.405 444.541 178.807 436.837 175.989 419.463Z" fill="#75895E"/>
<path d="M194.598 390.97C175.107 382.156 151.226 343.937 151.15 341.208C150.849 339.478 152.19 339.184 152.676 339.924C153.163 340.664 164.42 354.853 171.096 361.569C179.092 369.612 195.321 378.599 212.083 377.846C226.272 377.209 227.084 384.057 225.107 387.887C222.638 392.693 213.637 399.58 194.598 390.97Z" fill="#4E6F82"/>
<path d="M280.007 390.474C287.589 387.75 297.69 386.206 299.63 392.268C301.05 396.705 291.538 402.854 283.956 405.579C276.375 408.303 263.157 409.713 263.485 403.955C264.386 398.646 272.425 393.198 280.007 390.474Z" fill="#DF980C"/>
<path d="M164.793 375.112C151.529 357.92 139.756 332.037 136.402 320.72C135.886 319.026 134.762 316.622 132.559 316.355C130.797 316.142 129.939 318.373 129.73 319.516C129.005 323.707 130.646 343.525 157.697 378.961C186.754 417.024 224.159 420.114 237.429 416.017C243.509 426.902 255.291 423.79 256.486 423.014C257.443 422.393 257.144 421.873 256.875 421.691C252.572 419.039 250.169 415.937 246.971 409.118C243.772 402.3 246.533 394.886 246.824 393.716C247.001 393.006 246.809 392.979 246.516 392.968C235.562 394.819 233.419 402.078 234.24 407.056C204.609 412.585 180.506 395.48 164.793 375.112Z" fill="#75895E"/>
<path d="M304.252 432.912C285.778 432.815 268.833 423.159 262.67 418.344C260.263 416.252 261.43 415.557 262.315 415.471C280.772 413.922 297.298 407.834 309.723 397.983C322.148 388.131 315.623 378.801 295.914 381.307C276.205 383.812 259.656 391.745 255.837 397.026C254.859 398.38 253.271 398.64 253.673 396.06C259.901 369.465 280.655 356.625 291.841 355.964C300.519 355.452 304.871 367.501 305.953 373.307C310.875 369.004 322.704 366.991 328.003 367.633C333.302 368.275 345.677 373.74 342.647 389.836C340.223 402.713 324.1 406.861 316.342 407.326C320.454 412.454 327.344 433.032 304.252 432.912Z" fill="#B14B57"/>
<path d="M138.675 362.435C137.777 357.623 133.208 354.578 128.089 356.238C123.479 357.716 120.439 362.611 121.917 367.22C123.394 371.829 127.894 374.895 132.503 373.417C137.112 371.939 140.153 367.045 138.675 362.435Z" fill="#B14B57"/>
</svg>
